<svg width="26" height="42" viewBox="0 0 26 42" fill="none" xmlns="http://www.w3.org/2000/svg">
<path d="M22.1897 19.7601C23.7348 18.383 24.6097 16.5476 24.6097 14.6429C24.6097 12.6187 23.662 10.7256 21.9413 9.31199C20.2666 7.93668 18.0499 7.17917 15.6992 7.17917C13.3486 7.17917 11.1319 7.93668 9.45741 9.31209C7.73668 10.7256 6.78906 12.6187 6.78906 14.6429C6.78906 16.6671 7.73668 18.5602 9.45741 19.9738C11.1319 21.3492 13.3486 22.1067 15.6992 22.1067C16.0125 22.1067 16.3276 22.0929 16.6401 22.0654L17.174 22.5282C19.0133 24.122 21.3656 24.9994 23.7994 24.9995H24.6094V23.2753L24.3722 23.0382C23.4363 22.0995 22.6947 20.9856 22.1897 19.7601ZM18.235 21.3038L17.1637 20.3753L16.8065 20.4191C16.4391 20.464 16.0694 20.4865 15.6992 20.4866C11.6795 20.4866 8.40909 17.8651 8.40909 14.6429C8.40909 11.4207 11.6795 8.7992 15.6992 8.7992C19.7189 8.7992 22.9894 11.4207 22.9894 14.6429C22.9894 16.2483 22.1885 17.747 20.7342 18.863L20.2677 19.221L20.4829 19.8302C20.9241 21.0746 21.5725 22.2354 22.4007 23.2635C20.8583 23.0061 19.4168 22.3279 18.235 21.3038Z" fill="#8C8C8C" stroke="#8C8C8C" stroke-width="0.5"/>
<path d="M2.5455 15.9617C3.30374 15.0019 3.89907 13.924 4.30769 12.7711L4.52133 12.1649L4.05522 11.8072C2.68386 10.7549 1.92862 9.34249 1.92862 7.83024C1.92862 4.79147 5.01726 2.31925 8.81376 2.31925C11.6067 2.31925 14.0164 3.65729 15.0953 5.5745C15.2956 5.56478 15.4968 5.55931 15.6989 5.55931C16.1048 5.55931 16.507 5.57901 16.9055 5.61839C16.4886 4.53829 15.7646 3.5523 14.7691 2.73469C13.1712 1.42211 11.0565 0.699219 8.81376 0.699219C6.57103 0.699219 4.45628 1.42211 2.85832 2.73469C1.21409 4.08534 0.308594 5.89496 0.308594 7.83024C0.308594 9.64265 1.13643 11.389 2.59942 12.7026C2.12199 13.8516 1.42437 14.896 0.545878 15.7771L0.308594 16.0143V17.7095H1.11861C2.61648 17.7094 4.09376 17.3605 5.43351 16.6907C5.2866 16.1339 5.20052 15.5628 5.17679 14.9874C4.36362 15.464 3.47295 15.7938 2.5455 15.9617V15.9617Z" fill="#8C8C8C" stroke="#8C8C8C" stroke-width="0.5"/>
<path d="M3.84 38.1298C4.8 38.1298 5.53 37.7498 6.13 37.0698L5.51 36.3398C5.07 36.8198 4.56 37.1198 3.88 37.1198C2.58 37.1198 1.76 36.0498 1.76 34.2998C1.76 32.5798 2.63 31.5098 3.91 31.5098C4.51 31.5098 4.96 31.7798 5.35 32.1698L5.98 31.4298C5.53 30.9398 4.81 30.4998 3.89 30.4998C2.02 30.4998 0.57 31.9298 0.57 34.3398C0.57 36.7398 1.99 38.1298 3.84 38.1298ZM7.43484 30.6398V37.9998H8.59484V34.6498H11.7448V37.9998H12.9048V30.6398H11.7448V33.6398H8.59484V30.6398H7.43484ZM18.2272 35.8998L18.8472 37.9998H20.0772L17.6372 30.6398H16.2972L13.8572 37.9998H15.0372L15.6672 35.8998H18.2272ZM17.9472 34.9898H15.9372L16.2372 33.9998C16.4772 33.1998 16.7072 32.3898 16.9172 31.5498H16.9572C17.1872 32.3898 17.4072 33.1998 17.6572 33.9998L17.9472 34.9898ZM21.8643 31.6098V37.9998H23.0243V31.6098H25.1943V30.6398H19.7043V31.6098H21.8643Z" fill="#8C8C8C"/>
</svg>
