<svg width="40" height="63" viewBox="0 0 40 63" fill="none" xmlns="http://www.w3.org/2000/svg">
<path d="M34.2729 29.2512C36.5904 27.1857 37.9027 24.4325 37.9027 21.5755C37.9027 18.5391 36.4813 15.6995 33.9002 13.5791C31.3882 11.5162 28.0631 10.3799 24.5371 10.3799C21.0111 10.3799 17.6861 11.5162 15.1744 13.5793C12.5933 15.6995 11.1719 18.5391 11.1719 21.5755C11.1719 24.6118 12.5933 27.4515 15.1744 29.5719C17.6861 31.635 21.0111 32.7712 24.5371 32.7712C25.007 32.7712 25.4797 32.7504 25.9484 32.7092L26.7493 33.4034C29.5083 35.7941 33.0366 37.1103 36.6873 37.1104H37.9024V34.5241L37.5465 34.1684C36.1427 32.7604 35.0303 31.0895 34.2729 29.2512ZM28.3408 31.5668L26.7339 30.174L26.1981 30.2397C25.647 30.3071 25.0923 30.3409 24.5371 30.341C18.5076 30.341 13.6019 26.4088 13.6019 21.5755C13.6019 16.7422 18.5076 12.8099 24.5371 12.8099C30.5667 12.8099 35.4723 16.7421 35.4723 21.5755C35.4723 23.9835 34.271 26.2316 32.0896 27.9056L31.3898 28.4426L31.7127 29.3565C32.3744 31.223 33.347 32.9642 34.5894 34.5064C32.2757 34.1202 30.1135 33.103 28.3408 31.5668Z" fill="#8C8C8C" stroke="#8C8C8C" stroke-width="0.75"/>
<path d="M4.80653 23.5549C5.94389 22.1152 6.83689 20.4983 7.44981 18.769L7.77028 17.8596L7.07111 17.323C5.01407 15.7446 3.88122 13.626 3.88122 11.3577C3.88122 6.7995 8.51417 3.09118 14.2089 3.09118C18.3983 3.09118 22.0129 5.09825 23.6312 7.97405C23.9317 7.95947 24.2335 7.95127 24.5366 7.95127C25.1455 7.95127 25.7488 7.98081 26.3465 8.03989C25.7212 6.41973 24.6351 4.94075 23.1419 3.71433C20.7451 1.74547 17.573 0.661133 14.2089 0.661133C10.8448 0.661133 7.67269 1.74547 5.27576 3.71433C2.80942 5.74031 1.45117 8.45475 1.45117 11.3577C1.45117 14.0763 2.69292 16.6958 4.88741 18.6663C4.17126 20.3897 3.12483 21.9563 1.8071 23.278L1.45117 23.6338V26.1766H2.66619C4.91301 26.1763 7.12891 25.6531 9.13854 24.6483C8.91818 23.8131 8.78906 22.9565 8.75346 22.0934C7.53371 22.8083 6.19771 23.303 4.80653 23.5549V23.5549Z" fill="#8C8C8C" stroke="#8C8C8C" stroke-width="0.75"/>
<path d="M6.74828 56.3073C7.46828 56.3073 8.10828 56.1723 8.66828 55.9023C9.22828 55.6223 9.73328 55.2273 10.1833 54.7173L9.25328 53.6223C8.92328 53.9823 8.55828 54.2673 8.15828 54.4773C7.76828 54.6873 7.31828 54.7923 6.80828 54.7923C6.31828 54.7923 5.87828 54.6973 5.48828 54.5073C5.09828 54.3073 4.76328 54.0273 4.48328 53.6673C4.21328 53.2973 4.00328 52.8523 3.85328 52.3323C3.70328 51.8123 3.62828 51.2223 3.62828 50.5623C3.62828 49.9123 3.70328 49.3323 3.85328 48.8223C4.01328 48.3023 4.23328 47.8623 4.51328 47.5023C4.80328 47.1423 5.14328 46.8673 5.53328 46.6773C5.93328 46.4773 6.37328 46.3773 6.85328 46.3773C7.30328 46.3773 7.70328 46.4723 8.05328 46.6623C8.40328 46.8423 8.72328 47.0773 9.01328 47.3673L9.95828 46.2573C9.61828 45.8873 9.18328 45.5623 8.65328 45.2823C8.12328 45.0023 7.51328 44.8623 6.82328 44.8623C6.12328 44.8623 5.46828 44.9923 4.85828 45.2523C4.25828 45.5123 3.73328 45.8923 3.28328 46.3923C2.83328 46.8823 2.47828 47.4873 2.21828 48.2073C1.96828 48.9173 1.84328 49.7223 1.84328 50.6223C1.84328 51.5223 1.96828 52.3273 2.21828 53.0373C2.46828 53.7373 2.81328 54.3323 3.25328 54.8223C3.69328 55.3023 4.21328 55.6723 4.81328 55.9323C5.41328 56.1823 6.05828 56.3073 6.74828 56.3073ZM12.1405 45.0723V56.1123H13.8805V51.0873H18.6055V56.1123H20.3455V45.0723H18.6055V49.5723H13.8805V45.0723H12.1405ZM28.329 52.9623L29.259 56.1123H31.104L27.444 45.0723H25.434L21.7741 56.1123H23.5441L24.489 52.9623H28.329ZM27.909 51.5973H24.894L25.344 50.1123C25.524 49.5123 25.699 48.9073 25.869 48.2973C26.039 47.6873 26.204 47.0673 26.364 46.4373H26.424C26.594 47.0673 26.764 47.6873 26.934 48.2973C27.104 48.9073 27.284 49.5123 27.474 50.1123L27.909 51.5973ZM33.7847 46.5273V56.1123H35.5247V46.5273H38.7797V45.0723H30.5447V46.5273H33.7847Z" fill="#8C8C8C"/>
</svg>
