<svg width="54" height="51" viewBox="0 0 54 51" fill="none" xmlns="http://www.w3.org/2000/svg">
<rect width="54" height="2" rx="1" fill="#EE8B6A"/>
<path d="M36.1897 28.7604C37.7348 27.3833 38.6097 25.5479 38.6097 23.6432C38.6097 21.6189 37.662 19.7258 35.9413 18.3123C34.2666 16.937 32.0499 16.1794 29.6992 16.1794C27.3486 16.1794 25.1319 16.937 23.4574 18.3124C21.7367 19.7258 20.7891 21.6189 20.7891 23.6432C20.7891 25.6674 21.7367 27.5605 23.4574 28.9741C25.1319 30.3495 27.3486 31.107 29.6992 31.107C30.0125 31.107 30.3276 31.0931 30.6401 31.0657L31.174 31.5284C33.0133 33.1223 35.3656 33.9997 37.7994 33.9998H38.6094V32.2756L38.3722 32.0384C37.4363 31.0998 36.6947 29.9859 36.1897 28.7604ZM32.235 30.3041L31.1637 29.3756L30.8065 29.4193C30.4391 29.4643 30.0694 29.4868 29.6992 29.4868C25.6795 29.4868 22.4091 26.8654 22.4091 23.6432C22.4091 20.421 25.6795 17.7995 29.6992 17.7995C33.7189 17.7995 36.9894 20.4209 36.9894 23.6432C36.9894 25.2485 36.1885 26.7473 34.7342 27.8633L34.2677 28.2212L34.4829 28.8305C34.9241 30.0749 35.5725 31.2357 36.4007 32.2638C34.8583 32.0064 33.4168 31.3282 32.235 30.3041Z" fill="#ED9071" stroke="#ED9071" stroke-width="0.5"/>
<path d="M16.5455 24.962C17.3037 24.0022 17.8991 22.9243 18.3077 21.7714L18.5213 21.1651L18.0552 20.8074C16.6839 19.7551 15.9286 18.3427 15.9286 16.8305C15.9286 13.7917 19.0173 11.3195 22.8138 11.3195C25.6067 11.3195 28.0164 12.6575 29.0953 14.5747C29.2956 14.565 29.4968 14.5596 29.6989 14.5596C30.1048 14.5596 30.507 14.5793 30.9055 14.6186C30.4886 13.5385 29.7646 12.5525 28.7691 11.7349C27.1712 10.4224 25.0565 9.69946 22.8138 9.69946C20.571 9.69946 18.4563 10.4224 16.8583 11.7349C15.2141 13.0856 14.3086 14.8952 14.3086 16.8305C14.3086 18.6429 15.1364 20.3892 16.5994 21.7029C16.122 22.8518 15.4244 23.8963 14.5459 24.7773L14.3086 25.0146V26.7098H15.1186C16.6165 26.7096 18.0938 26.3608 19.4335 25.6909C19.2866 25.1341 19.2005 24.563 19.1768 23.9876C18.3636 24.4642 17.473 24.794 16.5455 24.962V24.962Z" fill="#ED9071" stroke="#ED9071" stroke-width="0.5"/>
<path d="M17.84 47.13C18.32 47.13 18.7467 47.04 19.12 46.86C19.4933 46.6733 19.83 46.41 20.13 46.07L19.51 45.34C19.29 45.58 19.0467 45.77 18.78 45.91C18.52 46.05 18.22 46.12 17.88 46.12C17.5533 46.12 17.26 46.0567 17 45.93C16.74 45.7967 16.5167 45.61 16.33 45.37C16.15 45.1233 16.01 44.8267 15.91 44.48C15.81 44.1333 15.76 43.74 15.76 43.3C15.76 42.8667 15.81 42.48 15.91 42.14C16.0167 41.7933 16.1633 41.5 16.35 41.26C16.5433 41.02 16.77 40.8367 17.03 40.71C17.2967 40.5767 17.59 40.51 17.91 40.51C18.21 40.51 18.4767 40.5733 18.71 40.7C18.9433 40.82 19.1567 40.9767 19.35 41.17L19.98 40.43C19.7533 40.1833 19.4633 39.9667 19.11 39.78C18.7567 39.5933 18.35 39.5 17.89 39.5C17.4233 39.5 16.9867 39.5867 16.58 39.76C16.18 39.9333 15.83 40.1867 15.53 40.52C15.23 40.8467 14.9933 41.25 14.82 41.73C14.6533 42.2033 14.57 42.74 14.57 43.34C14.57 43.94 14.6533 44.4767 14.82 44.95C14.9867 45.4167 15.2167 45.8133 15.51 46.14C15.8033 46.46 16.15 46.7067 16.55 46.88C16.95 47.0467 17.38 47.13 17.84 47.13ZM21.4348 39.64V47H22.5948V43.65H25.7448V47H26.9048V39.64H25.7448V42.64H22.5948V39.64H21.4348ZM32.2272 44.9L32.8472 47H34.0772L31.6372 39.64H30.2972L27.8572 47H29.0372L29.6672 44.9H32.2272ZM31.9472 43.99H29.9372L30.2372 43C30.3572 42.6 30.4739 42.1967 30.5872 41.79C30.7005 41.3833 30.8105 40.97 30.9172 40.55H30.9572C31.0705 40.97 31.1839 41.3833 31.2972 41.79C31.4105 42.1967 31.5305 42.6 31.6572 43L31.9472 43.99ZM35.8643 40.61V47H37.0243V40.61H39.1943V39.64H33.7043V40.61H35.8643Z" fill="#ED9071"/>
</svg>
