<svg width="82" height="77" viewBox="0 0 82 77" fill="none" xmlns="http://www.w3.org/2000/svg">
<rect x="0.488281" y="0.112305" width="81" height="3" rx="1.5" fill="#EE8B6A"/>
<path d="M54.7729 43.2503C57.0904 41.1847 58.4027 38.4316 58.4027 35.5745C58.4027 32.5382 56.9813 29.6985 54.4002 27.5781C51.8882 25.5152 48.5631 24.3789 45.0371 24.3789C41.5111 24.3789 38.1861 25.5152 35.6744 27.5783C33.0933 29.6985 31.6719 32.5382 31.6719 35.5745C31.6719 38.6108 33.0933 41.4505 35.6744 43.5709C38.1861 45.634 41.5111 46.7702 45.0371 46.7702C45.507 46.7702 45.9797 46.7495 46.4484 46.7082L47.2493 47.4024C50.0083 49.7932 53.5366 51.1093 57.1873 51.1094H58.4024V48.5232L58.0465 48.1674C56.6427 46.7594 55.5303 45.0885 54.7729 43.2503ZM48.8408 45.5659L47.2339 44.1731L46.6981 44.2388C46.147 44.3061 45.5923 44.34 45.0371 44.34C39.0076 44.34 34.1019 40.4078 34.1019 35.5745C34.1019 30.7412 39.0076 26.809 45.0371 26.809C51.0667 26.809 55.9723 30.7411 55.9723 35.5745C55.9723 37.9825 54.771 40.2306 52.5896 41.9046L51.8898 42.4416L52.2127 43.3555C52.8744 45.2221 53.847 46.9633 55.0894 48.5055C52.7757 48.1193 50.6135 47.1021 48.8408 45.5659Z" fill="#ED9071" stroke="#ED9071" stroke-width="0.75"/>
<path d="M25.3065 37.5539C26.4439 36.1142 27.3369 34.4974 27.9498 32.768L28.2703 31.8587L27.5711 31.3221C25.5141 29.7436 24.3812 27.6251 24.3812 25.3567C24.3812 20.7985 29.0142 17.0902 34.7089 17.0902C38.8983 17.0902 42.5129 19.0973 44.1312 21.9731C44.4317 21.9585 44.7335 21.9503 45.0366 21.9503C45.6455 21.9503 46.2488 21.9798 46.8465 22.0389C46.2212 20.4188 45.1351 18.9398 43.6419 17.7134C41.2451 15.7445 38.073 14.6602 34.7089 14.6602C31.3448 14.6602 28.1727 15.7445 25.7758 17.7134C23.3094 19.7393 21.9512 22.4538 21.9512 25.3567C21.9512 28.0753 23.1929 30.6948 25.3874 32.6653C24.6713 34.3887 23.6248 35.9554 22.3071 37.277L21.9512 37.6328V40.1756H23.1662C25.413 40.1754 27.6289 39.6521 29.6385 38.6474C29.4182 37.8121 29.2891 36.9555 29.2535 36.0924C28.0337 36.8073 26.6977 37.302 25.3065 37.5539V37.5539Z" fill="#ED9071" stroke="#ED9071" stroke-width="0.75"/>
<path d="M27.2483 70.3063C27.9683 70.3063 28.6083 70.1713 29.1683 69.9013C29.7283 69.6213 30.2333 69.2263 30.6833 68.7163L29.7533 67.6213C29.4233 67.9813 29.0583 68.2663 28.6583 68.4763C28.2683 68.6863 27.8183 68.7913 27.3083 68.7913C26.8183 68.7913 26.3783 68.6963 25.9883 68.5063C25.5983 68.3063 25.2633 68.0263 24.9833 67.6663C24.7133 67.2963 24.5033 66.8513 24.3533 66.3313C24.2033 65.8113 24.1283 65.2213 24.1283 64.5613C24.1283 63.9113 24.2033 63.3313 24.3533 62.8213C24.5133 62.3013 24.7333 61.8613 25.0133 61.5013C25.3033 61.1413 25.6433 60.8663 26.0333 60.6763C26.4333 60.4763 26.8733 60.3763 27.3533 60.3763C27.8033 60.3763 28.2033 60.4713 28.5533 60.6613C28.9033 60.8413 29.2233 61.0763 29.5133 61.3663L30.4583 60.2563C30.1183 59.8863 29.6833 59.5613 29.1533 59.2813C28.6233 59.0013 28.0133 58.8613 27.3233 58.8613C26.6233 58.8613 25.9683 58.9913 25.3583 59.2513C24.7583 59.5113 24.2333 59.8913 23.7833 60.3913C23.3333 60.8813 22.9783 61.4863 22.7183 62.2063C22.4683 62.9163 22.3433 63.7213 22.3433 64.6213C22.3433 65.5213 22.4683 66.3263 22.7183 67.0363C22.9683 67.7363 23.3133 68.3313 23.7533 68.8213C24.1933 69.3013 24.7133 69.6713 25.3133 69.9313C25.9133 70.1813 26.5583 70.3063 27.2483 70.3063ZM32.6405 59.0713V70.1113H34.3805V65.0863H39.1055V70.1113H40.8455V59.0713H39.1055V63.5713H34.3805V59.0713H32.6405ZM48.829 66.9613L49.759 70.1113H51.604L47.944 59.0713H45.934L42.2741 70.1113H44.0441L44.989 66.9613H48.829ZM48.409 65.5963H45.394L45.844 64.1113C46.024 63.5113 46.199 62.9063 46.369 62.2963C46.539 61.6863 46.704 61.0663 46.864 60.4363H46.924C47.094 61.0663 47.264 61.6863 47.434 62.2963C47.604 62.9063 47.784 63.5113 47.974 64.1113L48.409 65.5963ZM54.2847 60.5263V70.1113H56.0247V60.5263H59.2797V59.0713H51.0447V60.5263H54.2847Z" fill="#ED9071"/>
</svg>
