<svg width="30" height="31" viewBox="0 0 30 31" fill="none" xmlns="http://www.w3.org/2000/svg">
<path d="M26.3278 23.6806C28.1663 22.0421 29.2073 19.858 29.2073 17.5916C29.2073 15.183 28.0798 12.9303 26.0322 11.2483C24.0395 9.61182 21.4018 8.71045 18.6047 8.71045C15.8077 8.71045 13.17 9.61182 11.1775 11.2484C9.13002 12.9303 8.00244 15.183 8.00244 17.5916C8.00244 20.0003 9.13002 22.2529 11.1775 23.9349C13.17 25.5715 15.8077 26.4729 18.6047 26.4729C18.9774 26.4729 19.3524 26.4564 19.7243 26.4237L20.3596 26.9744C22.5482 28.8709 25.3472 29.9149 28.2432 29.915H29.207V27.8634L28.9247 27.5812C27.8112 26.4643 26.9287 25.1388 26.3278 23.6806ZM21.6221 25.5175L20.3474 24.4126L19.9223 24.4647C19.4852 24.5182 19.0452 24.545 18.6047 24.545C13.8217 24.545 9.93013 21.4257 9.93013 17.5916C9.93013 13.7575 13.8217 10.6381 18.6047 10.6381C23.3878 10.6381 27.2793 13.7574 27.2793 17.5916C27.2793 19.5018 26.3263 21.2852 24.5959 22.6131L24.0408 23.0391L24.2969 23.7641C24.8218 25.2448 25.5934 26.626 26.5789 27.8494C24.7436 27.543 23.0283 26.7361 21.6221 25.5175Z" fill="#8C8C8C" stroke="#8C8C8C" stroke-width="0.5"/>
<path d="M2.95347 19.161C3.8557 18.0189 4.56409 16.7363 5.05031 15.3645L5.30453 14.6431L4.74989 14.2175C3.1181 12.9653 2.21944 11.2847 2.21944 9.48527C2.21944 5.86941 5.89464 2.92769 10.4121 2.92769C13.7355 2.92769 16.6028 4.51984 17.8866 6.80114C18.1249 6.78958 18.3643 6.78307 18.6048 6.78307C19.0878 6.78307 19.5664 6.80651 20.0406 6.85337C19.5445 5.56815 18.6829 4.3949 17.4984 3.42202C15.5971 1.86017 13.0808 1 10.4121 1C7.74348 1 5.22712 1.86017 3.32569 3.42202C1.36921 5.02917 0.291748 7.18247 0.291748 9.48527C0.291748 11.6419 1.2768 13.7199 3.01762 15.283C2.44952 16.6501 1.61942 17.8929 0.574094 18.9413L0.291748 19.2236V21.2408H1.25559C3.03793 21.2405 4.79575 20.8255 6.38994 20.0284C6.21513 19.3659 6.1127 18.6863 6.08446 18.0016C5.11686 18.5687 4.05705 18.9612 2.95347 19.161V19.161Z" fill="#8C8C8C" stroke="#8C8C8C" stroke-width="0.5"/>
</svg>
