<svg width="31" height="31" viewBox="0 0 31 31" fill="none" xmlns="http://www.w3.org/2000/svg">
<path d="M27.1086 23.6811C28.9471 22.0425 29.9881 19.8585 29.9881 17.5921C29.9881 15.1835 28.8605 12.9308 26.813 11.2488C24.8203 9.61231 22.1826 8.71094 19.3855 8.71094C16.5884 8.71094 13.9507 9.61231 11.9583 11.2489C9.91078 12.9308 8.7832 15.1835 8.7832 17.5921C8.7832 20.0008 9.91078 22.2534 11.9583 23.9354C13.9507 25.572 16.5884 26.4733 19.3855 26.4733C19.7582 26.4733 20.1332 26.4569 20.5051 26.4242L21.1404 26.9748C23.329 28.8714 26.1279 29.9154 29.024 29.9155H29.9878V27.8639L29.7055 27.5817C28.5919 26.4648 27.7095 25.1393 27.1086 23.6811ZM22.4029 25.518L21.1281 24.4131L20.7031 24.4652C20.2659 24.5187 19.8259 24.5455 19.3855 24.5455C14.6024 24.5455 10.7109 21.4262 10.7109 17.5921C10.7109 13.758 14.6024 10.6386 19.3855 10.6386C24.1686 10.6386 28.0601 13.7579 28.0601 17.5921C28.0601 19.5023 27.1071 21.2857 25.3766 22.6136L24.8215 23.0396L25.0777 23.7646C25.6026 25.2453 26.3741 26.6265 27.3597 27.8499C25.5243 27.5435 23.8091 26.7366 22.4029 25.518Z" fill="#8C8C8C" stroke="#8C8C8C" stroke-width="0.5"/>
<path d="M3.73398 19.161C4.63622 18.0189 5.34461 16.7363 5.83083 15.3645L6.08504 14.6431L5.53041 14.2175C3.89862 12.9653 2.99996 11.2847 2.99996 9.48527C2.99996 5.86941 6.67516 2.92769 11.1926 2.92769C14.516 2.92769 17.3834 4.51984 18.6671 6.80114C18.9055 6.78958 19.1448 6.78307 19.3853 6.78307C19.8683 6.78307 20.3469 6.80651 20.8211 6.85337C20.325 5.56815 19.4635 4.3949 18.279 3.42202C16.3776 1.86017 13.8613 1 11.1926 1C8.52399 1 6.00764 1.86017 4.10621 3.42202C2.14972 5.02917 1.07227 7.18247 1.07227 9.48527C1.07227 11.6419 2.05732 13.7199 3.79814 15.283C3.23004 16.6501 2.39994 17.8929 1.35461 18.9413L1.07227 19.2236V21.2408H2.03611C3.81845 21.2405 5.57627 20.8255 7.17045 20.0284C6.99565 19.3659 6.89322 18.6863 6.86498 18.0016C5.89738 18.5687 4.83757 18.9612 3.73398 19.161V19.161Z" fill="#8C8C8C" stroke="#8C8C8C" stroke-width="0.5"/>
</svg>
