<svg width="26" height="43" viewBox="0 0 26 43" fill="none" xmlns="http://www.w3.org/2000/svg">
<path d="M22.1888 20.0614C23.7338 18.6843 24.6087 16.8489 24.6087 14.9442C24.6087 12.92 23.6611 11.0269 21.9403 9.61329C20.2656 8.23798 18.0489 7.48047 15.6983 7.48047C13.3476 7.48047 11.1309 8.23798 9.45643 9.61339C7.7357 11.0269 6.78809 12.92 6.78809 14.9442C6.78809 16.9684 7.7357 18.8615 9.45643 20.2751C11.1309 21.6505 13.3476 22.408 15.6983 22.408C16.0115 22.408 16.3266 22.3942 16.6391 22.3667L17.173 22.8295C19.0124 24.4233 21.3646 25.3007 23.7984 25.3008H24.6084V23.5766L24.3712 23.3395C23.4353 22.4008 22.6937 21.2869 22.1888 20.0614ZM18.2341 21.6051L17.1628 20.6766L16.8055 20.7204C16.4382 20.7653 16.0684 20.7878 15.6983 20.7879C11.6786 20.7879 8.40812 18.1664 8.40812 14.9442C8.40812 11.722 11.6786 9.1005 15.6983 9.1005C19.718 9.1005 22.9884 11.722 22.9884 14.9442C22.9884 16.5496 22.1875 18.0483 20.7332 19.1643L20.2667 19.5223L20.482 20.1315C20.9231 21.3759 21.5715 22.5367 22.3998 23.5648C20.8573 23.3074 19.4158 22.6292 18.2341 21.6051Z" fill="#ED9071" stroke="#ED9071" stroke-width="0.5"/>
<path d="M2.54453 16.2625C3.30276 15.3027 3.8981 14.2248 4.30671 13.0719L4.52036 12.4657L4.05424 12.1079C2.68289 11.0556 1.92765 9.64327 1.92765 8.13102C1.92765 5.09225 5.01629 2.62003 8.81278 2.62003C11.6057 2.62003 14.0155 3.95808 15.0943 5.87528C15.2946 5.86556 15.4958 5.86009 15.6979 5.86009C16.1038 5.86009 16.506 5.87979 16.9045 5.91917C16.4876 4.83907 15.7636 3.85308 14.7681 3.03547C13.1703 1.72289 11.0555 1 8.81278 1C6.57005 1 4.4553 1.72289 2.85734 3.03547C1.21311 4.38612 0.307617 6.19574 0.307617 8.13102C0.307617 9.94343 1.13545 11.6898 2.59844 13.0034C2.12101 14.1524 1.42339 15.1968 0.544901 16.0779L0.307617 16.3151V18.0103H1.11763C2.61551 18.0101 4.09278 17.6613 5.43254 16.9915C5.28563 16.4347 5.19955 15.8636 5.17581 15.2882C4.36264 15.7648 3.47197 16.0946 2.54453 16.2625V16.2625Z" fill="#ED9071" stroke="#ED9071" stroke-width="0.5"/>
<path d="M3.84 38.4308C4.32 38.4308 4.74667 38.3408 5.12 38.1608C5.49333 37.9741 5.83 37.7108 6.13 37.3708L5.51 36.6408C5.29 36.8808 5.04667 37.0708 4.78 37.2108C4.52 37.3508 4.22 37.4208 3.88 37.4208C3.55333 37.4208 3.26 37.3574 3 37.2308C2.74 37.0974 2.51667 36.9108 2.33 36.6708C2.15 36.4241 2.01 36.1274 1.91 35.7808C1.81 35.4341 1.76 35.0408 1.76 34.6008C1.76 34.1674 1.81 33.7808 1.91 33.4408C2.01667 33.0941 2.16333 32.8008 2.35 32.5608C2.54333 32.3208 2.77 32.1374 3.03 32.0108C3.29667 31.8774 3.59 31.8108 3.91 31.8108C4.21 31.8108 4.47667 31.8741 4.71 32.0008C4.94333 32.1208 5.15667 32.2774 5.35 32.4708L5.98 31.7308C5.75333 31.4841 5.46333 31.2674 5.11 31.0808C4.75667 30.8941 4.35 30.8008 3.89 30.8008C3.42333 30.8008 2.98667 30.8874 2.58 31.0608C2.18 31.2341 1.83 31.4874 1.53 31.8208C1.23 32.1474 0.993333 32.5508 0.82 33.0308C0.653333 33.5041 0.57 34.0408 0.57 34.6408C0.57 35.2408 0.653333 35.7774 0.82 36.2508C0.986667 36.7174 1.21667 37.1141 1.51 37.4408C1.80333 37.7608 2.15 38.0074 2.55 38.1808C2.95 38.3474 3.38 38.4308 3.84 38.4308ZM7.43484 30.9408V38.3008H8.59484V34.9508H11.7448V38.3008H12.9048V30.9408H11.7448V33.9408H8.59484V30.9408H7.43484ZM18.2272 36.2008L18.8472 38.3008H20.0772L17.6372 30.9408H16.2972L13.8572 38.3008H15.0372L15.6672 36.2008H18.2272ZM17.9472 35.2908H15.9372L16.2372 34.3008C16.3572 33.9008 16.4739 33.4974 16.5872 33.0908C16.7005 32.6841 16.8105 32.2708 16.9172 31.8508H16.9572C17.0705 32.2708 17.1839 32.6841 17.2972 33.0908C17.4105 33.4974 17.5305 33.9008 17.6572 34.3008L17.9472 35.2908ZM21.8643 31.9108V38.3008H23.0243V31.9108H25.1943V30.9408H19.7043V31.9108H21.8643Z" fill="#ED9071"/>
</svg>
