<svg width="14" height="19" viewBox="0 0 14 19" fill="none" xmlns="http://www.w3.org/2000/svg">
<path d="M3.06862 8.94557H9.20587V10.6991H3.06862V8.94557ZM4.60294 15.9598H1.53431V1.9313H6.9044V6.31522H10.7402V9.03325L12.2745 7.27968V5.43844L7.67156 0.177734H1.53431C1.12739 0.177734 0.737129 0.362485 0.44939 0.691342C0.16165 1.0202 0 1.46623 0 1.9313V15.9598C0 16.4249 0.16165 16.8709 0.44939 17.1998C0.737129 17.5287 1.12739 17.7134 1.53431 17.7134H4.60294V15.9598ZM3.06862 14.2063H6.21396L6.9044 13.4172V12.4527H3.06862V14.2063ZM12.4279 9.82235C12.5046 9.82235 12.6581 9.91003 12.7348 9.99771L13.7321 11.1375C13.8855 11.3129 13.8855 11.6636 13.7321 11.839L12.9649 12.7157L11.3539 10.8745L12.1211 9.99771C12.1978 9.91003 12.2745 9.82235 12.4279 9.82235M12.4279 13.2418L7.74828 18.5902H6.13725V16.7489L10.8169 11.4006L12.4279 13.2418Z" fill="#65B9D5"/>
</svg>
