<svg width="17" height="20" viewBox="0 0 17 20" fill="none" xmlns="http://www.w3.org/2000/svg">
<path d="M3.61685 9.25026H10.8506V11.1003H3.61685V9.25026ZM5.42528 16.6505H1.80843V1.85005H8.13792V6.47518H12.659V9.34277L14.4674 7.49271V5.55016L9.04214 0H1.80843C1.3288 0 0.868822 0.194916 0.529676 0.541868C0.19053 0.88882 0 1.35939 0 1.85005V16.6505C0 17.1411 0.19053 17.6117 0.529676 17.9587C0.868822 18.3056 1.3288 18.5005 1.80843 18.5005H5.42528V16.6505ZM3.61685 14.8004H7.32413L8.13792 13.9679V12.9504H3.61685V14.8004ZM14.6483 10.1753C14.7387 10.1753 14.9195 10.2678 15.0099 10.3603L16.1854 11.5628C16.3663 11.7478 16.3663 12.1178 16.1854 12.3029L15.2812 13.2279L13.3824 11.2853L14.2866 10.3603C14.377 10.2678 14.4674 10.1753 14.6483 10.1753M14.6483 13.7829L9.13256 19.4256H7.23371V17.483L12.7494 11.8403L14.6483 13.7829Z" fill="#606060"/>
</svg>
