<svg width="18" height="20" viewBox="0 0 18 20" fill="none" xmlns="http://www.w3.org/2000/svg">
<path d="M4.33316 9.25026H11.5669V11.1003H4.33316V9.25026ZM6.14159 16.6505H2.52474V1.85005H8.85423V6.47518H13.3753V9.34277L15.1837 7.49271V5.55016L9.75844 0H2.52474C2.04511 0 1.58513 0.194916 1.24598 0.541868C0.906839 0.88882 0.716309 1.35939 0.716309 1.85005V16.6505C0.716309 17.1411 0.906839 17.6117 1.24598 17.9587C1.58513 18.3056 2.04511 18.5005 2.52474 18.5005H6.14159V16.6505ZM4.33316 14.8004H8.04044L8.85423 13.9679V12.9504H4.33316V14.8004ZM15.3646 10.1753C15.455 10.1753 15.6358 10.2678 15.7263 10.3603L16.9017 11.5628C17.0826 11.7478 17.0826 12.1178 16.9017 12.3029L15.9975 13.2279L14.0987 11.2853L15.0029 10.3603C15.0933 10.2678 15.1837 10.1753 15.3646 10.1753M15.3646 13.7829L9.84887 19.4256H7.95002V17.483L13.4657 11.8403L15.3646 13.7829Z" fill="#606060"/>
</svg>
