<svg width="22" height="22" viewBox="0 0 22 22" fill="none" xmlns="http://www.w3.org/2000/svg">
<rect x="0.75" y="-0.75" width="20.5" height="20.5" rx="10.25" transform="matrix(1 0 0 -1 0 20.5)" stroke="#393939" stroke-width="1.5"/>
<path d="M16.0723 9.76819H11.9442V5.64005C11.9442 5.45757 11.8717 5.28257 11.7426 5.15354C11.6136 5.02451 11.4386 4.95203 11.2561 4.95203C11.0737 4.95203 10.8987 5.02451 10.7696 5.15354C10.6406 5.28257 10.5681 5.45757 10.5681 5.64005V9.76819H6.43998C6.2575 9.76819 6.0825 9.84067 5.95347 9.9697C5.82444 10.0987 5.75195 10.2737 5.75195 10.4562C5.75195 10.6387 5.82444 10.8137 5.95347 10.9427C6.0825 11.0717 6.2575 11.1442 6.43998 11.1442H10.5681V15.2724C10.5681 15.4548 10.6406 15.6298 10.7696 15.7589C10.8987 15.8879 11.0737 15.9604 11.2561 15.9604C11.4386 15.9604 11.6136 15.8879 11.7426 15.7589C11.8717 15.6298 11.9442 15.4548 11.9442 15.2724V11.1442H16.0723C16.2548 11.1442 16.4298 11.0717 16.5588 10.9427C16.6878 10.8137 16.7603 10.6387 16.7603 10.4562C16.7603 10.2737 16.6878 10.0987 16.5588 9.9697C16.4298 9.84067 16.2548 9.76819 16.0723 9.76819Z" fill="#393939"/>
</svg>
