<svg width="48" height="44" viewBox="0 0 48 44" fill="none" xmlns="http://www.w3.org/2000/svg">
<path d="M29.4297 14.6642H29.4504" stroke="#393939" stroke-width="2" stroke-linecap="round" stroke-linejoin="round"/>
<path d="M33.354 7.3316H13.7337C10.4829 7.3316 7.84766 9.79357 7.84766 12.8306V31.1604C7.84766 34.1974 10.4829 36.6593 13.7337 36.6593H33.354C36.6047 36.6593 39.24 34.1974 39.24 31.1604V12.8306C39.24 9.79357 36.6047 7.3316 33.354 7.3316Z" stroke="#393939" stroke-width="2" stroke-linecap="round" stroke-linejoin="round"/>
<path d="M7.84766 27.4949L15.6957 20.163C16.5905 19.3586 17.6056 18.9351 18.6388 18.9351C19.672 18.9351 20.687 19.3586 21.5818 20.163L31.3919 29.3279" stroke="#393939" stroke-width="2" stroke-linecap="round" stroke-linejoin="round"/>
<path d="M27.4688 25.6613L29.4308 23.8283C30.3256 23.0239 31.3406 22.6005 32.3738 22.6005C33.407 22.6005 34.422 23.0239 35.3168 23.8283L39.2409 27.4943" stroke="#393939" stroke-width="2" stroke-linecap="round" stroke-linejoin="round"/>
</svg>
