<svg width="72" height="67" viewBox="0 0 72 67" fill="none" xmlns="http://www.w3.org/2000/svg">
<path d="M44.7695 22.4951H44.8005" stroke="#393939" stroke-width="3" stroke-linecap="round" stroke-linejoin="round"/>
<path d="M50.6559 11.4971H21.2256C16.3494 11.4971 12.3965 15.19 12.3965 19.7455V47.2402C12.3965 51.7957 16.3494 55.4886 21.2256 55.4886H50.6559C55.5321 55.4886 59.485 51.7957 59.485 47.2402V19.7455C59.485 15.19 55.5321 11.4971 50.6559 11.4971Z" stroke="#393939" stroke-width="3" stroke-linecap="round" stroke-linejoin="round"/>
<path d="M12.3965 41.742L24.1686 30.7441C25.5108 29.5376 27.0333 28.9023 28.5832 28.9023C30.133 28.9023 31.6555 29.5376 32.9977 30.7441L47.7129 44.4915" stroke="#393939" stroke-width="3" stroke-linecap="round" stroke-linejoin="round"/>
<path d="M41.8281 38.9917L44.7712 36.2422C46.1134 35.0356 47.6359 34.4004 49.1857 34.4004C50.7355 34.4004 52.2581 35.0356 53.6003 36.2422L59.4863 41.7411" stroke="#393939" stroke-width="3" stroke-linecap="round" stroke-linejoin="round"/>
</svg>
