<svg width="34" height="33" viewBox="0 0 34 33" fill="none" xmlns="http://www.w3.org/2000/svg">
<rect x="1.125" y="-1.125" width="30.75" height="30.75" rx="15.375" transform="matrix(1 0 0 -1 0.125 30.749)" stroke="#393939" stroke-width="2.25"/>
<path d="M24.2344 14.651H18.0422V8.45879C18.0422 8.18508 17.9335 7.92258 17.7399 7.72903C17.5464 7.53549 17.2839 7.42676 17.0102 7.42676C16.7365 7.42676 16.474 7.53549 16.2804 7.72903C16.0869 7.92258 15.9781 8.18508 15.9781 8.45879V14.651H9.78594C9.51223 14.651 9.24973 14.7597 9.05618 14.9533C8.86264 15.1468 8.75391 15.4093 8.75391 15.683C8.75391 15.9567 8.86264 16.2192 9.05618 16.4128C9.24973 16.6063 9.51223 16.7151 9.78594 16.7151H15.9781V22.9073C15.9781 23.181 16.0869 23.4435 16.2804 23.637C16.474 23.8306 16.7365 23.9393 17.0102 23.9393C17.2839 23.9393 17.5464 23.8306 17.7399 23.637C17.9335 23.4435 18.0422 23.181 18.0422 22.9073V16.7151H24.2344C24.5081 16.7151 24.7706 16.6063 24.9642 16.4128C25.1577 16.2192 25.2664 15.9567 25.2664 15.683C25.2664 15.4093 25.1577 15.1468 24.9642 14.9533C24.7706 14.7597 24.5081 14.651 24.2344 14.651Z" fill="#393939"/>
</svg>
