<svg width="28" height="29" viewBox="0 0 28 29" fill="none" xmlns="http://www.w3.org/2000/svg">
<path d="M26.4689 11.8938L14.88 1.23197C14.5033 0.88536 14.0071 0.69778 13.4953 0.708438C12.9835 0.719096 12.4956 0.927166 12.1336 1.28916L1.4752 11.9476L0.928223 12.4946V28.2074H11.199V18.4035H16.8012V28.2074H27.072V12.4486L26.4689 11.8938ZM13.5355 2.57545C13.5519 2.57545 13.5418 2.57901 13.5347 2.58596C13.5274 2.57901 13.519 2.57545 13.5355 2.57545ZM25.2046 26.34H18.6686V18.4035C18.6686 17.9082 18.4719 17.4332 18.1217 17.083C17.7715 16.7328 17.2965 16.5361 16.8012 16.5361H11.199C10.7037 16.5361 10.2287 16.7328 9.87853 17.083C9.52833 17.4332 9.33158 17.9082 9.33158 18.4035V26.34H2.79564V13.2681L13.5355 2.60959L13.5369 2.60755L25.2046 13.2681V26.34Z" fill="#8C8C8C" stroke="#8C8C8C" stroke-width="0.5"/>
</svg>
