<svg width="30" height="43" viewBox="0 0 30 43" fill="none" xmlns="http://www.w3.org/2000/svg">
<path d="M24.8655 10.8846L14.6247 1.46301C14.2918 1.15672 13.8534 0.990962 13.4011 1.00038C12.9488 1.0098 12.5177 1.19366 12.1978 1.51355L2.77925 10.9322L2.2959 11.4155V25.3004H11.3719V16.637H16.3224V25.3004H25.3984V11.3749L24.8655 10.8846ZM13.4366 2.65021C13.4511 2.65021 13.4421 2.65336 13.4359 2.65949C13.4295 2.65336 13.422 2.65021 13.4366 2.65021ZM23.7482 23.6502H17.9726V16.637C17.9726 16.1993 17.7988 15.7796 17.4893 15.4701C17.1798 15.1607 16.7601 14.9868 16.3224 14.9868H11.3719C10.9342 14.9868 10.5145 15.1607 10.205 15.4701C9.89557 15.7796 9.72171 16.1993 9.72171 16.637V23.6502H3.94608V12.099L13.4366 2.68038L13.4378 2.67857L23.7482 12.099V23.6502Z" fill="#8C8C8C" stroke="#8C8C8C" stroke-width="0.5"/>
<path d="M0.97 30.9408V38.3008H2.13V34.9508H5.28V38.3008H6.44V30.9408H5.28V33.9408H2.13V30.9408H0.97ZM11.1723 38.4308C13.0623 38.4308 14.3823 36.9608 14.3823 34.5908C14.3823 32.2208 13.0623 30.8008 11.1723 30.8008C9.28234 30.8008 7.97234 32.2208 7.97234 34.5908C7.97234 36.9608 9.28234 38.4308 11.1723 38.4308ZM11.1723 37.4208C9.95234 37.4208 9.16234 36.3208 9.16234 34.5908C9.16234 32.8608 9.95234 31.8108 11.1723 31.8108C12.3923 31.8108 13.1923 32.8608 13.1923 34.5908C13.1923 36.3208 12.3923 37.4208 11.1723 37.4208ZM15.9114 30.9408V38.3008H16.9514V34.6608C16.9514 34.0008 16.8614 33.0508 16.8114 32.3808H16.8514L17.4314 34.0808L18.7214 37.5908H19.4414L20.7214 34.0808L21.3114 32.3808H21.3514C21.3014 33.0508 21.2014 34.0008 21.2014 34.6608V38.3008H22.2814V30.9408H20.9414L19.6114 34.6608C19.4414 35.1508 19.3014 35.6408 19.1314 36.1508H19.0814C18.9114 35.6408 18.7614 35.1508 18.5914 34.6608L17.2414 30.9408H15.9114ZM24.2122 30.9408V38.3008H28.6722V37.3208H25.3722V34.9408H28.0722V33.9608H25.3722V31.9108H28.5622V30.9408H24.2122Z" fill="#8C8C8C"/>
</svg>
