<svg width="30" height="43" viewBox="0 0 30 43" fill="none" xmlns="http://www.w3.org/2000/svg">
<path d="M24.8655 10.8846L14.6247 1.46301C14.2918 1.15672 13.8534 0.990962 13.4011 1.00038C12.9488 1.0098 12.5177 1.19366 12.1978 1.51355L2.77925 10.9322L2.2959 11.4155V25.3004H11.3719V16.637H16.3224V25.3004H25.3984V11.3749L24.8655 10.8846ZM13.4366 2.65021C13.4511 2.65021 13.4421 2.65336 13.4359 2.65949C13.4295 2.65336 13.422 2.65021 13.4366 2.65021ZM23.7482 23.6502H17.9726V16.637C17.9726 16.1993 17.7988 15.7796 17.4893 15.4701C17.1798 15.1607 16.7601 14.9868 16.3224 14.9868H11.3719C10.9342 14.9868 10.5145 15.1607 10.205 15.4701C9.89557 15.7796 9.72171 16.1993 9.72171 16.637V23.6502H3.94608V12.099L13.4366 2.68038L13.4378 2.67857L23.7482 12.099V23.6502Z" fill="#ED9071" stroke="#ED9071" stroke-width="0.5"/>
<path d="M0.97 30.9408V38.3008H2.13V34.9508H5.28V38.3008H6.44V30.9408H5.28V33.9408H2.13V30.9408H0.97ZM11.1723 38.4308C11.6457 38.4308 12.079 38.3441 12.4723 38.1708C12.8657 37.9908 13.2023 37.7341 13.4823 37.4008C13.769 37.0674 13.989 36.6641 14.1423 36.1908C14.3023 35.7174 14.3823 35.1841 14.3823 34.5908C14.3823 33.9974 14.3023 33.4674 14.1423 33.0008C13.989 32.5274 13.769 32.1308 13.4823 31.8108C13.2023 31.4841 12.8657 31.2341 12.4723 31.0608C12.079 30.8874 11.6457 30.8008 11.1723 30.8008C10.699 30.8008 10.2657 30.8874 9.87234 31.0608C9.47901 31.2341 9.14234 31.4841 8.86234 31.8108C8.58234 32.1308 8.36234 32.5274 8.20234 33.0008C8.04901 33.4674 7.97234 33.9974 7.97234 34.5908C7.97234 35.1841 8.04901 35.7174 8.20234 36.1908C8.36234 36.6641 8.58234 37.0674 8.86234 37.4008C9.14234 37.7341 9.47901 37.9908 9.87234 38.1708C10.2657 38.3441 10.699 38.4308 11.1723 38.4308ZM11.1723 37.4208C10.8657 37.4208 10.589 37.3541 10.3423 37.2208C10.0957 37.0874 9.88568 36.9008 9.71234 36.6608C9.53901 36.4141 9.40234 36.1174 9.30234 35.7708C9.20901 35.4174 9.16234 35.0241 9.16234 34.5908C9.16234 34.1574 9.20901 33.7708 9.30234 33.4308C9.40234 33.0841 9.53901 32.7908 9.71234 32.5508C9.88568 32.3108 10.0957 32.1274 10.3423 32.0008C10.589 31.8741 10.8657 31.8108 11.1723 31.8108C11.479 31.8108 11.7557 31.8741 12.0023 32.0008C12.249 32.1274 12.459 32.3108 12.6323 32.5508C12.8123 32.7908 12.949 33.0841 13.0423 33.4308C13.1423 33.7708 13.1923 34.1574 13.1923 34.5908C13.1923 35.0241 13.1423 35.4174 13.0423 35.7708C12.949 36.1174 12.8123 36.4141 12.6323 36.6608C12.459 36.9008 12.249 37.0874 12.0023 37.2208C11.7557 37.3541 11.479 37.4208 11.1723 37.4208ZM15.9114 30.9408V38.3008H16.9514V34.6608C16.9514 34.4941 16.9447 34.3141 16.9314 34.1208C16.9247 33.9274 16.9147 33.7308 16.9014 33.5308C16.8881 33.3241 16.8714 33.1241 16.8514 32.9308C16.8381 32.7308 16.8247 32.5474 16.8114 32.3808H16.8514L17.4314 34.0808L18.7214 37.5908H19.4414L20.7214 34.0808L21.3114 32.3808H21.3514C21.3381 32.5474 21.3214 32.7308 21.3014 32.9308C21.2881 33.1241 21.2714 33.3241 21.2514 33.5308C21.2381 33.7308 21.2247 33.9274 21.2114 34.1208C21.2047 34.3141 21.2014 34.4941 21.2014 34.6608V38.3008H22.2814V30.9408H20.9414L19.6114 34.6608C19.5247 34.9074 19.4447 35.1541 19.3714 35.4008C19.2981 35.6474 19.2181 35.8974 19.1314 36.1508H19.0814C18.9947 35.8974 18.9114 35.6474 18.8314 35.4008C18.7581 35.1541 18.6781 34.9074 18.5914 34.6608L17.2414 30.9408H15.9114ZM24.2122 30.9408V38.3008H28.6722V37.3208H25.3722V34.9408H28.0722V33.9608H25.3722V31.9108H28.5622V30.9408H24.2122Z" fill="#ED9071"/>
</svg>
