<svg width="45" height="63" viewBox="0 0 45 63" fill="none" xmlns="http://www.w3.org/2000/svg">
<path d="M38.288 15.488L22.9268 1.35565C22.4274 0.896214 21.7698 0.647576 21.0914 0.661703C20.413 0.675831 19.7663 0.951629 19.2864 1.43145L5.15862 15.5594L4.43359 16.2843V37.1118H18.0476V24.1166H25.4734V37.1118H39.0874V16.2234L38.288 15.488ZM21.1446 3.13645C21.1664 3.13645 21.1529 3.14117 21.1436 3.15037C21.1339 3.14117 21.1228 3.13645 21.1446 3.13645ZM36.6121 34.6365H27.9486V24.1166C27.9486 23.4601 27.6879 22.8305 27.2237 22.3663C26.7595 21.9021 26.1299 21.6413 25.4734 21.6413H18.0476C17.3911 21.6413 16.7615 21.9021 16.2973 22.3663C15.8331 22.8305 15.5723 23.4601 15.5723 24.1166V34.6365H6.90886V17.3096L21.1446 3.1817L21.1465 3.17899L36.6121 17.3096V34.6365Z" fill="#8C8C8C" stroke="#8C8C8C" stroke-width="0.75"/>
<path d="M2.44328 45.0733V56.1133H4.18328V51.0883H8.90828V56.1133H10.6483V45.0733H8.90828V49.5733H4.18328V45.0733H2.44328ZM17.7468 56.3083C18.4568 56.3083 19.1068 56.1783 19.6968 55.9183C20.2868 55.6483 20.7918 55.2633 21.2118 54.7633C21.6418 54.2633 21.9718 53.6583 22.2018 52.9483C22.4418 52.2383 22.5618 51.4383 22.5618 50.5483C22.5618 49.6583 22.4418 48.8633 22.2018 48.1633C21.9718 47.4533 21.6418 46.8583 21.2118 46.3783C20.7918 45.8883 20.2868 45.5133 19.6968 45.2533C19.1068 44.9933 18.4568 44.8633 17.7468 44.8633C17.0368 44.8633 16.3868 44.9933 15.7968 45.2533C15.2068 45.5133 14.7018 45.8883 14.2818 46.3783C13.8618 46.8583 13.5318 47.4533 13.2918 48.1633C13.0618 48.8633 12.9468 49.6583 12.9468 50.5483C12.9468 51.4383 13.0618 52.2383 13.2918 52.9483C13.5318 53.6583 13.8618 54.2633 14.2818 54.7633C14.7018 55.2633 15.2068 55.6483 15.7968 55.9183C16.3868 56.1783 17.0368 56.3083 17.7468 56.3083ZM17.7468 54.7933C17.2868 54.7933 16.8718 54.6933 16.5018 54.4933C16.1318 54.2933 15.8168 54.0133 15.5568 53.6533C15.2968 53.2833 15.0918 52.8383 14.9418 52.3183C14.8018 51.7883 14.7318 51.1983 14.7318 50.5483C14.7318 49.8983 14.8018 49.3183 14.9418 48.8083C15.0918 48.2883 15.2968 47.8483 15.5568 47.4883C15.8168 47.1283 16.1318 46.8533 16.5018 46.6633C16.8718 46.4733 17.2868 46.3783 17.7468 46.3783C18.2068 46.3783 18.6218 46.4733 18.9918 46.6633C19.3618 46.8533 19.6768 47.1283 19.9368 47.4883C20.2068 47.8483 20.4118 48.2883 20.5518 48.8083C20.7018 49.3183 20.7768 49.8983 20.7768 50.5483C20.7768 51.1983 20.7018 51.7883 20.5518 52.3183C20.4118 52.8383 20.2068 53.2833 19.9368 53.6533C19.6768 54.0133 19.3618 54.2933 18.9918 54.4933C18.6218 54.6933 18.2068 54.7933 17.7468 54.7933ZM24.8554 45.0733V56.1133H26.4154V50.6533C26.4154 50.4033 26.4054 50.1333 26.3854 49.8433C26.3754 49.5533 26.3604 49.2583 26.3404 48.9583C26.3204 48.6483 26.2954 48.3483 26.2654 48.0583C26.2454 47.7583 26.2254 47.4833 26.2054 47.2333H26.2654L27.1354 49.7833L29.0704 55.0483H30.1504L32.0704 49.7833L32.9554 47.2333H33.0154C32.9954 47.4833 32.9704 47.7583 32.9404 48.0583C32.9204 48.3483 32.8954 48.6483 32.8654 48.9583C32.8454 49.2583 32.8254 49.5533 32.8054 49.8433C32.7954 50.1333 32.7904 50.4033 32.7904 50.6533V56.1133H34.4104V45.0733H32.4004L30.4054 50.6533C30.2754 51.0233 30.1554 51.3933 30.0454 51.7633C29.9354 52.1333 29.8154 52.5083 29.6854 52.8883H29.6104C29.4804 52.5083 29.3554 52.1333 29.2354 51.7633C29.1254 51.3933 29.0054 51.0233 28.8754 50.6533L26.8504 45.0733H24.8554ZM37.3065 45.0733V56.1133H43.9965V54.6433H39.0465V51.0733H43.0965V49.6033H39.0465V46.5283H43.8315V45.0733H37.3065Z" fill="#8C8C8C"/>
</svg>
