<svg width="30" height="42" viewBox="0 0 30 42" fill="none" xmlns="http://www.w3.org/2000/svg">
<path d="M24.8665 10.584L14.6257 1.16247C14.2928 0.856184 13.8543 0.690425 13.4021 0.699843C12.9498 0.709261 12.5187 0.893127 12.1988 1.21301L2.78022 10.6316L2.29688 11.1149V24.9999H11.3729V16.3364H16.3234V24.9999H25.3994V11.0743L24.8665 10.584ZM13.4375 2.34967C13.4521 2.34967 13.4431 2.35282 13.4369 2.35896C13.4304 2.35282 13.423 2.34967 13.4375 2.34967ZM23.7492 23.3497H17.9736V16.3364C17.9736 15.8988 17.7997 15.4791 17.4903 15.1696C17.1808 14.8601 16.7611 14.6863 16.3234 14.6863H11.3729C10.9352 14.6863 10.5155 14.8601 10.206 15.1696C9.89654 15.4791 9.72269 15.8988 9.72269 16.3364V23.3497H3.94706V11.7984L13.4375 2.37984L13.4388 2.37804L23.7492 11.7984V23.3497Z" fill="#8C8C8C" stroke="#8C8C8C" stroke-width="0.5"/>
<path d="M0.97 30.6399V37.9999H2.13V34.6499H5.28V37.9999H6.44V30.6399H5.28V33.6399H2.13V30.6399H0.97ZM11.1723 38.1299C11.6457 38.1299 12.079 38.0432 12.4723 37.8699C12.8657 37.6899 13.2023 37.4332 13.4823 37.0999C13.769 36.7665 13.989 36.3632 14.1423 35.8899C14.3023 35.4165 14.3823 34.8832 14.3823 34.2899C14.3823 33.6965 14.3023 33.1665 14.1423 32.6999C13.989 32.2265 13.769 31.8299 13.4823 31.5099C13.2023 31.1832 12.8657 30.9332 12.4723 30.7599C12.079 30.5865 11.6457 30.4999 11.1723 30.4999C10.699 30.4999 10.2657 30.5865 9.87234 30.7599C9.47901 30.9332 9.14234 31.1832 8.86234 31.5099C8.58234 31.8299 8.36234 32.2265 8.20234 32.6999C8.04901 33.1665 7.97234 33.6965 7.97234 34.2899C7.97234 34.8832 8.04901 35.4165 8.20234 35.8899C8.36234 36.3632 8.58234 36.7665 8.86234 37.0999C9.14234 37.4332 9.47901 37.6899 9.87234 37.8699C10.2657 38.0432 10.699 38.1299 11.1723 38.1299ZM11.1723 37.1199C10.8657 37.1199 10.589 37.0532 10.3423 36.9199C10.0957 36.7865 9.88568 36.5999 9.71234 36.3599C9.53901 36.1132 9.40234 35.8165 9.30234 35.4699C9.20901 35.1165 9.16234 34.7232 9.16234 34.2899C9.16234 33.8565 9.20901 33.4699 9.30234 33.1299C9.40234 32.7832 9.53901 32.4899 9.71234 32.2499C9.88568 32.0099 10.0957 31.8265 10.3423 31.6999C10.589 31.5732 10.8657 31.5099 11.1723 31.5099C11.479 31.5099 11.7557 31.5732 12.0023 31.6999C12.249 31.8265 12.459 32.0099 12.6323 32.2499C12.8123 32.4899 12.949 32.7832 13.0423 33.1299C13.1423 33.4699 13.1923 33.8565 13.1923 34.2899C13.1923 34.7232 13.1423 35.1165 13.0423 35.4699C12.949 35.8165 12.8123 36.1132 12.6323 36.3599C12.459 36.5999 12.249 36.7865 12.0023 36.9199C11.7557 37.0532 11.479 37.1199 11.1723 37.1199ZM15.9114 30.6399V37.9999H16.9514V34.3599C16.9514 34.1932 16.9447 34.0132 16.9314 33.8199C16.9247 33.6265 16.9147 33.4299 16.9014 33.2299C16.8881 33.0232 16.8714 32.8232 16.8514 32.6299C16.8381 32.4299 16.8247 32.2465 16.8114 32.0799H16.8514L17.4314 33.7799L18.7214 37.2899H19.4414L20.7214 33.7799L21.3114 32.0799H21.3514C21.3381 32.2465 21.3214 32.4299 21.3014 32.6299C21.2881 32.8232 21.2714 33.0232 21.2514 33.2299C21.2381 33.4299 21.2247 33.6265 21.2114 33.8199C21.2047 34.0132 21.2014 34.1932 21.2014 34.3599V37.9999H22.2814V30.6399H20.9414L19.6114 34.3599C19.5247 34.6065 19.4447 34.8532 19.3714 35.0999C19.2981 35.3465 19.2181 35.5965 19.1314 35.8499H19.0814C18.9947 35.5965 18.9114 35.3465 18.8314 35.0999C18.7581 34.8532 18.6781 34.6065 18.5914 34.3599L17.2414 30.6399H15.9114ZM24.2122 30.6399V37.9999H28.6722V37.0199H25.3722V34.6399H28.0722V33.6599H25.3722V31.6099H28.5622V30.6399H24.2122Z" fill="#8C8C8C"/>
</svg>
