<svg width="82" height="77" viewBox="0 0 82 77" fill="none" xmlns="http://www.w3.org/2000/svg">
<rect x="0.988281" y="0.112305" width="81" height="3" rx="1.5" fill="#EE8B6A"/>
<path d="M56.288 29.487L40.9268 15.3547C40.4274 14.8952 39.7698 14.6466 39.0914 14.6607C38.413 14.6749 37.7663 14.9507 37.2864 15.4305L23.1586 29.5584L22.4336 30.2833V51.1108H36.0476V38.1156H43.4734V51.1108H57.0874V30.2225L56.288 29.487ZM39.1446 17.1355C39.1664 17.1355 39.1529 17.1402 39.1436 17.1494C39.1339 17.1402 39.1228 17.1355 39.1446 17.1355ZM54.6121 48.6355H45.9486V38.1156C45.9486 37.4591 45.6879 36.8295 45.2237 36.3653C44.7595 35.9011 44.1299 35.6404 43.4734 35.6404H36.0476C35.3911 35.6404 34.7615 35.9011 34.2973 36.3653C33.8331 36.8295 33.5723 37.4591 33.5723 38.1156V48.6355H24.9089V31.3086L39.1446 17.1807L39.1465 17.178L54.6121 31.3086V48.6355Z" fill="#ED9071" stroke="#ED9071" stroke-width="0.75"/>
<path d="M20.4433 59.0713V70.1113H22.1833V65.0863H26.9083V70.1113H28.6483V59.0713H26.9083V63.5713H22.1833V59.0713H20.4433ZM35.7468 70.3063C36.4568 70.3063 37.1068 70.1763 37.6968 69.9163C38.2868 69.6463 38.7918 69.2613 39.2118 68.7613C39.6418 68.2613 39.9718 67.6563 40.2018 66.9463C40.4418 66.2363 40.5618 65.4363 40.5618 64.5463C40.5618 63.6563 40.4418 62.8613 40.2018 62.1613C39.9718 61.4513 39.6418 60.8563 39.2118 60.3763C38.7918 59.8863 38.2868 59.5113 37.6968 59.2513C37.1068 58.9913 36.4568 58.8613 35.7468 58.8613C35.0368 58.8613 34.3868 58.9913 33.7968 59.2513C33.2068 59.5113 32.7018 59.8863 32.2818 60.3763C31.8618 60.8563 31.5318 61.4513 31.2918 62.1613C31.0618 62.8613 30.9468 63.6563 30.9468 64.5463C30.9468 65.4363 31.0618 66.2363 31.2918 66.9463C31.5318 67.6563 31.8618 68.2613 32.2818 68.7613C32.7018 69.2613 33.2068 69.6463 33.7968 69.9163C34.3868 70.1763 35.0368 70.3063 35.7468 70.3063ZM35.7468 68.7913C35.2868 68.7913 34.8718 68.6913 34.5018 68.4913C34.1318 68.2913 33.8168 68.0113 33.5568 67.6513C33.2968 67.2813 33.0918 66.8363 32.9418 66.3163C32.8018 65.7863 32.7318 65.1963 32.7318 64.5463C32.7318 63.8963 32.8018 63.3163 32.9418 62.8063C33.0918 62.2863 33.2968 61.8463 33.5568 61.4863C33.8168 61.1263 34.1318 60.8513 34.5018 60.6613C34.8718 60.4713 35.2868 60.3763 35.7468 60.3763C36.2068 60.3763 36.6218 60.4713 36.9918 60.6613C37.3618 60.8513 37.6768 61.1263 37.9368 61.4863C38.2068 61.8463 38.4118 62.2863 38.5518 62.8063C38.7018 63.3163 38.7768 63.8963 38.7768 64.5463C38.7768 65.1963 38.7018 65.7863 38.5518 66.3163C38.4118 66.8363 38.2068 67.2813 37.9368 67.6513C37.6768 68.0113 37.3618 68.2913 36.9918 68.4913C36.6218 68.6913 36.2068 68.7913 35.7468 68.7913ZM42.8554 59.0713V70.1113H44.4154V64.6513C44.4154 64.4013 44.4054 64.1313 44.3854 63.8413C44.3754 63.5513 44.3604 63.2563 44.3404 62.9563C44.3204 62.6463 44.2954 62.3463 44.2654 62.0563C44.2454 61.7563 44.2254 61.4813 44.2054 61.2313H44.2654L45.1354 63.7813L47.0704 69.0463H48.1504L50.0704 63.7813L50.9554 61.2313H51.0154C50.9954 61.4813 50.9704 61.7563 50.9404 62.0563C50.9204 62.3463 50.8954 62.6463 50.8654 62.9563C50.8454 63.2563 50.8254 63.5513 50.8054 63.8413C50.7954 64.1313 50.7904 64.4013 50.7904 64.6513V70.1113H52.4104V59.0713H50.4004L48.4054 64.6513C48.2754 65.0213 48.1554 65.3913 48.0454 65.7613C47.9354 66.1313 47.8154 66.5063 47.6854 66.8863H47.6104C47.4804 66.5063 47.3554 66.1313 47.2354 65.7613C47.1254 65.3913 47.0054 65.0213 46.8754 64.6513L44.8504 59.0713H42.8554ZM55.3065 59.0713V70.1113H61.9965V68.6413H57.0465V65.0713H61.0965V63.6013H57.0465V60.5263H61.8315V59.0713H55.3065Z" fill="#ED9071"/>
</svg>
