<svg width="54" height="51" viewBox="0 0 54 51" fill="none" xmlns="http://www.w3.org/2000/svg">
<rect width="54" height="2" rx="1" fill="#EE8B6A"/>
<path d="M36.8665 19.5843L26.6257 10.1627C26.2928 9.85643 25.8543 9.69067 25.4021 9.70009C24.9498 9.70951 24.5187 9.89337 24.1988 10.2133L14.7802 19.6319L14.2969 20.1152V34.0001H23.3729V25.3367H28.3234V34.0001H37.3994V20.0746L36.8665 19.5843ZM25.4375 11.3499C25.4521 11.3499 25.4431 11.3531 25.4369 11.3592C25.4304 11.3531 25.423 11.3499 25.4375 11.3499ZM35.7492 32.35H29.9736V25.3367C29.9736 24.899 29.7997 24.4793 29.4903 24.1698C29.1808 23.8604 28.7611 23.6865 28.3234 23.6865H23.3729C22.9352 23.6865 22.5155 23.8604 22.206 24.1698C21.8965 24.4793 21.7227 24.899 21.7227 25.3367V32.35H15.9471V20.7987L25.4375 11.3801L25.4388 11.3783L35.7492 20.7987V32.35Z" fill="#ED9071" stroke="#ED9071" stroke-width="0.5"/>
<path d="M12.97 39.6401V47.0001H14.13V43.6501H17.28V47.0001H18.44V39.6401H17.28V42.6401H14.13V39.6401H12.97ZM23.1723 47.1301C25.0623 47.1301 26.3823 45.6601 26.3823 43.2901C26.3823 40.9201 25.0623 39.5001 23.1723 39.5001C21.2823 39.5001 19.9723 40.9201 19.9723 43.2901C19.9723 45.6601 21.2823 47.1301 23.1723 47.1301ZM23.1723 46.1201C21.9523 46.1201 21.1623 45.0201 21.1623 43.2901C21.1623 41.5601 21.9523 40.5101 23.1723 40.5101C24.3923 40.5101 25.1923 41.5601 25.1923 43.2901C25.1923 45.0201 24.3923 46.1201 23.1723 46.1201ZM27.9114 39.6401V47.0001H28.9514V43.3601C28.9514 42.7001 28.8614 41.7501 28.8114 41.0801H28.8514L29.4314 42.7801L30.7214 46.2901H31.4414L32.7214 42.7801L33.3114 41.0801H33.3514C33.3014 41.7501 33.2014 42.7001 33.2014 43.3601V47.0001H34.2814V39.6401H32.9414L31.6114 43.3601C31.4414 43.8501 31.3014 44.3401 31.1314 44.8501H31.0814C30.9114 44.3401 30.7614 43.8501 30.5914 43.3601L29.2414 39.6401H27.9114ZM36.2122 39.6401V47.0001H40.6722V46.0201H37.3722V43.6401H40.0722V42.6601H37.3722V40.6101H40.5622V39.6401H36.2122Z" fill="#ED9071"/>
</svg>
