<svg width="28" height="29" viewBox="0 0 28 29" fill="none" xmlns="http://www.w3.org/2000/svg">
<path d="M26.5407 11.8928L14.9518 1.23099C14.5751 0.884383 14.0789 0.696804 13.5671 0.707462C13.0553 0.71812 12.5674 0.92619 12.2054 1.28818L1.54698 11.9467L1 12.4936V28.2064H11.2708V18.4025H16.873V28.2064H27.1438V12.4477L26.5407 11.8928ZM13.6073 2.57448C13.6237 2.57448 13.6136 2.57804 13.6065 2.58498C13.5992 2.57804 13.5908 2.57448 13.6073 2.57448ZM25.2764 26.339H18.7404V18.4025C18.7404 17.9072 18.5437 17.4322 18.1935 17.082C17.8433 16.7318 17.3683 16.5351 16.873 16.5351H11.2708C10.7755 16.5351 10.3005 16.7318 9.95031 17.082C9.6001 17.4322 9.40336 17.9072 9.40336 18.4025V26.339H2.86741V13.2671L13.6073 2.60862L13.6087 2.60657L25.2764 13.2671V26.339Z" fill="#ED9071" stroke="#ED9071" stroke-width="0.5"/>
</svg>
