<svg width="7" height="11" viewBox="0 0 7 11" fill="none" xmlns="http://www.w3.org/2000/svg">
<path d="M6.96802 3.82568C6.96802 1.89268 5.41867 0.325684 3.50745 0.325684C1.59622 0.325684 0.046875 1.89268 0.046875 3.82568C0.046875 4.51918 0.249566 5.16418 0.593151 5.70818H0.589196C1.7559 7.55568 3.50745 10.3257 3.50745 10.3257L6.4257 5.70818H6.42224C6.76533 5.16418 6.96802 4.51918 6.96802 3.82568ZM3.50745 5.32568C2.68828 5.32568 2.02434 4.65418 2.02434 3.82568C2.02434 2.99718 2.68828 2.32568 3.50745 2.32568C4.32661 2.32568 4.99055 2.99718 4.99055 3.82568C4.99055 4.65418 4.32661 5.32568 3.50745 5.32568Z" fill="black"/>
</svg>
