<svg width="11" height="16" viewBox="0 0 11 16" fill="none" xmlns="http://www.w3.org/2000/svg">
<path d="M10.577 6.23926C10.577 3.33976 8.253 0.989258 5.38617 0.989258C2.51933 0.989258 0.195312 3.33976 0.195312 6.23926C0.195312 7.27951 0.499348 8.24701 1.01473 9.06301H1.00879C2.75885 11.8343 5.38617 15.9893 5.38617 15.9893L9.76354 9.06301H9.75835C10.273 8.24701 10.577 7.27951 10.577 6.23926ZM5.38617 8.48926C4.15742 8.48926 3.16151 7.48201 3.16151 6.23926C3.16151 4.99651 4.15742 3.98926 5.38617 3.98926C6.61492 3.98926 7.61082 4.99651 7.61082 6.23926C7.61082 7.48201 6.61492 8.48926 5.38617 8.48926Z" fill="black"/>
</svg>
