<svg width="8" height="10" viewBox="0 0 8 10" fill="none" xmlns="http://www.w3.org/2000/svg">
<path d="M7.86548 3.5C7.86548 1.567 6.31613 0 4.40491 0C2.49368 0 0.944336 1.567 0.944336 3.5C0.944336 4.1935 1.14703 4.8385 1.49061 5.3825H1.48666C2.65336 7.23 4.40491 10 4.40491 10L7.32316 5.3825H7.3197C7.66279 4.8385 7.86548 4.1935 7.86548 3.5ZM4.40491 5C3.58574 5 2.92181 4.3285 2.92181 3.5C2.92181 2.6715 3.58574 2 4.40491 2C5.22407 2 5.88801 2.6715 5.88801 3.5C5.88801 4.3285 5.22407 5 4.40491 5Z" fill="black"/>
</svg>
