<svg width="82" height="77" viewBox="0 0 82 77" fill="none" xmlns="http://www.w3.org/2000/svg">
<rect x="0.488281" y="0.112305" width="81" height="3" rx="1.5" fill="#EE8B6A"/>
<path d="M39.4883 34.9447C33.9654 34.9447 29.4883 30.8406 29.4883 25.778C29.4883 20.7154 33.9654 16.6113 39.4883 16.6113C45.0111 16.6113 49.4883 20.7154 49.4883 25.778C49.4883 30.8406 45.0111 34.9447 39.4883 34.9447ZM39.4883 40.4447C49.774 40.4447 55.774 43.5002 57.4883 49.6113H21.4883C23.2026 43.5002 29.2026 40.4447 39.4883 40.4447Z" fill="#ED9071" stroke="#ED9071" stroke-width="3.3" stroke-linecap="round" stroke-linejoin="round"/>
<path d="M10.9433 59.0713V70.1113H12.5033V64.6513C12.5033 64.4013 12.4933 64.1313 12.4733 63.8413C12.4633 63.5513 12.4483 63.2563 12.4283 62.9563C12.4083 62.6463 12.3833 62.3463 12.3533 62.0563C12.3333 61.7563 12.3133 61.4813 12.2933 61.2313H12.3533L13.2233 63.7813L15.1583 69.0463H16.2383L18.1583 63.7813L19.0433 61.2313H19.1033C19.0833 61.4813 19.0583 61.7563 19.0283 62.0563C19.0083 62.3463 18.9833 62.6463 18.9533 62.9563C18.9333 63.2563 18.9133 63.5513 18.8933 63.8413C18.8833 64.1313 18.8783 64.4013 18.8783 64.6513V70.1113H20.4983V59.0713H18.4883L16.4933 64.6513C16.3633 65.0213 16.2433 65.3913 16.1333 65.7613C16.0233 66.1313 15.9033 66.5063 15.7733 66.8863H15.6983C15.5683 66.5063 15.4433 66.1313 15.3233 65.7613C15.2133 65.3913 15.0933 65.0213 14.9633 64.6513L12.9383 59.0713H10.9433ZM25.2094 65.9263V70.1113H26.9494V65.9263L30.2794 59.0713H28.4644L27.1744 61.9963C27.0044 62.4163 26.8294 62.8213 26.6494 63.2113C26.4794 63.6013 26.3044 64.0063 26.1244 64.4263H26.0644C25.8744 64.0063 25.6944 63.6013 25.5244 63.2113C25.3644 62.8213 25.1994 62.4163 25.0294 61.9963L23.7544 59.0713H21.8944L25.2094 65.9263ZM35.0249 59.0713V70.1113H36.7649V65.9263H38.4299C39.0299 65.9263 39.5849 65.8563 40.0949 65.7163C40.6049 65.5763 41.0399 65.3613 41.3999 65.0713C41.7699 64.7813 42.0599 64.4163 42.2699 63.9763C42.4799 63.5263 42.5849 63.0013 42.5849 62.4013C42.5849 61.7813 42.4799 61.2613 42.2699 60.8413C42.0599 60.4113 41.7699 60.0663 41.3999 59.8063C41.0299 59.5463 40.5849 59.3613 40.0649 59.2513C39.5549 59.1313 38.9899 59.0713 38.3699 59.0713H35.0249ZM38.2649 64.5313H36.7649V60.4663H38.2049C39.0849 60.4663 39.7499 60.6063 40.1999 60.8863C40.6499 61.1663 40.8749 61.6713 40.8749 62.4013C40.8749 63.1313 40.6649 63.6713 40.2449 64.0213C39.8349 64.3613 39.1749 64.5313 38.2649 64.5313ZM49.0019 66.9613L49.9319 70.1113H51.7769L48.1169 59.0713H46.1069L42.4469 70.1113H44.2169L45.1619 66.9613H49.0019ZM48.5819 65.5963H45.5669L46.0169 64.1113C46.1969 63.5113 46.3719 62.9063 46.5419 62.2963C46.7119 61.6863 46.8769 61.0663 47.0369 60.4363H47.0969C47.2669 61.0663 47.4369 61.6863 47.6069 62.2963C47.7769 62.9063 47.9569 63.5113 48.1469 64.1113L48.5819 65.5963ZM57.5868 70.3063C58.3468 70.3063 59.0268 70.1863 59.6268 69.9463C60.2268 69.6963 60.7118 69.3863 61.0818 69.0163V64.2313H57.3168V65.6563H59.5068V68.2513C59.3068 68.4213 59.0518 68.5563 58.7418 68.6563C58.4318 68.7463 58.1068 68.7913 57.7668 68.7913C57.1968 68.7913 56.6918 68.6963 56.2518 68.5063C55.8218 68.3063 55.4568 68.0263 55.1568 67.6663C54.8668 67.2963 54.6468 66.8513 54.4968 66.3313C54.3468 65.8113 54.2718 65.2213 54.2718 64.5613C54.2718 63.9113 54.3518 63.3313 54.5118 62.8213C54.6818 62.3013 54.9168 61.8613 55.2168 61.5013C55.5168 61.1413 55.8768 60.8663 56.2968 60.6763C56.7168 60.4763 57.1818 60.3763 57.6918 60.3763C58.2318 60.3763 58.6768 60.4713 59.0268 60.6613C59.3868 60.8513 59.7018 61.0863 59.9718 61.3663L60.9168 60.2563C60.7468 60.0763 60.5518 59.9063 60.3318 59.7463C60.1218 59.5763 59.8818 59.4263 59.6118 59.2963C59.3418 59.1663 59.0418 59.0613 58.7118 58.9813C58.3818 58.9013 58.0218 58.8613 57.6318 58.8613C56.9018 58.8613 56.2218 58.9913 55.5918 59.2513C54.9618 59.5113 54.4168 59.8913 53.9568 60.3913C53.4968 60.8813 53.1368 61.4863 52.8768 62.2063C52.6168 62.9163 52.4868 63.7213 52.4868 64.6213C52.4868 65.5213 52.6118 66.3263 52.8618 67.0363C53.1218 67.7363 53.4768 68.3313 53.9268 68.8213C54.3768 69.3013 54.9118 69.6713 55.5318 69.9313C56.1618 70.1813 56.8468 70.3063 57.5868 70.3063ZM63.6044 59.0713V70.1113H70.2944V68.6413H65.3444V65.0713H69.3944V63.6013H65.3444V60.5263H70.1294V59.0713H63.6044Z" fill="#ED9071"/>
</svg>
