<svg width="54" height="51" viewBox="0 0 54 51" fill="none" xmlns="http://www.w3.org/2000/svg">
<rect width="54" height="2" rx="1" fill="#EE8B6A"/>
<path d="M26 23.2222C22.3181 23.2222 19.3333 20.4862 19.3333 17.1111C19.3333 13.736 22.3181 11 26 11C29.6819 11 32.6667 13.736 32.6667 17.1111C32.6667 20.4862 29.6819 23.2222 26 23.2222ZM26 26.8889C32.8571 26.8889 36.8571 28.9259 38 33H14C15.1429 28.9259 19.1429 26.8889 26 26.8889Z" fill="#ED9071" stroke="#ED9071" stroke-width="2.2" stroke-linecap="round" stroke-linejoin="round"/>
<path d="M6.97 39.64V47H8.01V43.36C8.01 43.1933 8.00333 43.0133 7.99 42.82C7.98333 42.6267 7.97333 42.43 7.96 42.23C7.94667 42.0233 7.93 41.8233 7.91 41.63C7.89667 41.43 7.88333 41.2467 7.87 41.08H7.91L8.49 42.78L9.78 46.29H10.5L11.78 42.78L12.37 41.08H12.41C12.3967 41.2467 12.38 41.43 12.36 41.63C12.3467 41.8233 12.33 42.0233 12.31 42.23C12.2967 42.43 12.2833 42.6267 12.27 42.82C12.2633 43.0133 12.26 43.1933 12.26 43.36V47H13.34V39.64H12L10.67 43.36C10.5833 43.6067 10.5033 43.8533 10.43 44.1C10.3567 44.3467 10.2767 44.5967 10.19 44.85H10.14C10.0533 44.5967 9.97 44.3467 9.89 44.1C9.81667 43.8533 9.73667 43.6067 9.65 43.36L8.3 39.64H6.97ZM16.4808 44.21V47H17.6408V44.21L19.8608 39.64H18.6508L17.7908 41.59C17.6774 41.87 17.5608 42.14 17.4408 42.4C17.3274 42.66 17.2108 42.93 17.0908 43.21H17.0508C16.9241 42.93 16.8041 42.66 16.6908 42.4C16.5841 42.14 16.4741 41.87 16.3608 41.59L15.5108 39.64H14.2708L16.4808 44.21ZM23.0245 39.64V47H24.1845V44.21H25.2945C25.6945 44.21 26.0645 44.1633 26.4045 44.07C26.7445 43.9767 27.0345 43.8333 27.2745 43.64C27.5211 43.4467 27.7145 43.2033 27.8545 42.91C27.9945 42.61 28.0645 42.26 28.0645 41.86C28.0645 41.4467 27.9945 41.1 27.8545 40.82C27.7145 40.5333 27.5211 40.3033 27.2745 40.13C27.0278 39.9567 26.7311 39.8333 26.3845 39.76C26.0445 39.68 25.6678 39.64 25.2545 39.64H23.0245ZM25.1845 43.28H24.1845V40.57H25.1445C25.7311 40.57 26.1745 40.6633 26.4745 40.85C26.7745 41.0367 26.9245 41.3733 26.9245 41.86C26.9245 42.3467 26.7845 42.7067 26.5045 42.94C26.2311 43.1667 25.7911 43.28 25.1845 43.28ZM32.3424 44.9L32.9624 47H34.1924L31.7524 39.64H30.4124L27.9724 47H29.1524L29.7824 44.9H32.3424ZM32.0624 43.99H30.0524L30.3524 43C30.4724 42.6 30.5891 42.1967 30.7024 41.79C30.8158 41.3833 30.9258 40.97 31.0324 40.55H31.0724C31.1858 40.97 31.2991 41.3833 31.4124 41.79C31.5258 42.1967 31.6458 42.6 31.7724 43L32.0624 43.99ZM38.0657 47.13C38.5724 47.13 39.0257 47.05 39.4257 46.89C39.8257 46.7233 40.149 46.5167 40.3957 46.27V43.08H37.8857V44.03H39.3457V45.76C39.2124 45.8733 39.0424 45.9633 38.8357 46.03C38.629 46.09 38.4124 46.12 38.1857 46.12C37.8057 46.12 37.469 46.0567 37.1757 45.93C36.889 45.7967 36.6457 45.61 36.4457 45.37C36.2524 45.1233 36.1057 44.8267 36.0057 44.48C35.9057 44.1333 35.8557 43.74 35.8557 43.3C35.8557 42.8667 35.909 42.48 36.0157 42.14C36.129 41.7933 36.2857 41.5 36.4857 41.26C36.6857 41.02 36.9257 40.8367 37.2057 40.71C37.4857 40.5767 37.7957 40.51 38.1357 40.51C38.4957 40.51 38.7924 40.5733 39.0257 40.7C39.2657 40.8267 39.4757 40.9833 39.6557 41.17L40.2857 40.43C40.1724 40.31 40.0424 40.1967 39.8957 40.09C39.7557 39.9767 39.5957 39.8767 39.4157 39.79C39.2357 39.7033 39.0357 39.6333 38.8157 39.58C38.5957 39.5267 38.3557 39.5 38.0957 39.5C37.609 39.5 37.1557 39.5867 36.7357 39.76C36.3157 39.9333 35.9524 40.1867 35.6457 40.52C35.339 40.8467 35.099 41.25 34.9257 41.73C34.7524 42.2033 34.6657 42.74 34.6657 43.34C34.6657 43.94 34.749 44.4767 34.9157 44.95C35.089 45.4167 35.3257 45.8133 35.6257 46.14C35.9257 46.46 36.2824 46.7067 36.6957 46.88C37.1157 47.0467 37.5724 47.13 38.0657 47.13ZM42.0774 39.64V47H46.5374V46.02H43.2374V43.64H45.9374V42.66H43.2374V40.61H46.4274V39.64H42.0774Z" fill="#ED9071"/>
</svg>
