<svg width="25" height="30" viewBox="0 0 25 30" fill="none" xmlns="http://www.w3.org/2000/svg">
<path d="M5.87254 13.8744H16.7231V16.6495H5.87254V13.8744ZM8.58518 24.9747H3.1599V2.7741H12.6541V9.7118H19.4357V14.0132L22.1484 11.2381V8.32426L14.0105 -0.000976562H3.1599C2.44047 -0.000976562 1.7505 0.291397 1.24178 0.811825C0.733061 1.33225 0.447266 2.03811 0.447266 2.7741V24.9747C0.447266 25.7107 0.733061 26.4166 1.24178 26.937C1.7505 27.4574 2.44047 27.7498 3.1599 27.7498H8.58518V24.9747ZM5.87254 22.1996H11.4335L12.6541 20.9509V19.4246H5.87254V22.1996ZM22.4196 15.262C22.5553 15.262 22.8265 15.4007 22.9622 15.5395L24.7254 17.3433C24.9966 17.6208 24.9966 18.1758 24.7254 18.4533L23.3691 19.8408L20.5208 16.927L21.8771 15.5395C22.0127 15.4007 22.1484 15.262 22.4196 15.262M22.4196 20.6734L14.1461 29.1373H11.2978V26.2235L19.5714 17.7595L22.4196 20.6734Z" fill="#606060"/>
</svg>
