<svg width="17" height="20" viewBox="0 0 17 20" fill="none" xmlns="http://www.w3.org/2000/svg">
<path d="M3.8317 9.25026H11.0654V11.1003H3.8317V9.25026ZM5.64013 16.6505H2.02327V1.85005H8.35277V6.47518H12.8738V9.34277L14.6823 7.49271V5.55016L9.25698 0H2.02327C1.54365 0 1.08367 0.194916 0.74452 0.541868C0.405374 0.88882 0.214844 1.35939 0.214844 1.85005V16.6505C0.214844 17.1411 0.405374 17.6117 0.74452 17.9587C1.08367 18.3056 1.54365 18.5005 2.02327 18.5005H5.64013V16.6505ZM3.8317 14.8004H7.53897L8.35277 13.9679V12.9504H3.8317V14.8004ZM14.8631 10.1753C14.9535 10.1753 15.1344 10.2678 15.2248 10.3603L16.4003 11.5628C16.5811 11.7478 16.5811 12.1178 16.4003 12.3029L15.4961 13.2279L13.5972 11.2853L14.5014 10.3603C14.5918 10.2678 14.6823 10.1753 14.8631 10.1753M14.8631 13.7829L9.3474 19.4256H7.44855V17.483L12.9643 11.8403L14.8631 13.7829Z" fill="#606060"/>
</svg>
