<svg width="42" height="42" viewBox="0 0 42 42" fill="none" xmlns="http://www.w3.org/2000/svg">
<path d="M20 14.222C16.3181 14.222 13.3333 11.4859 13.3333 8.11087C13.3333 4.73579 16.3181 1.99976 20 1.99976C23.6819 1.99976 26.6667 4.73579 26.6667 8.11087C26.6667 11.4859 23.6819 14.222 20 14.222ZM20 17.8886C26.8571 17.8886 30.8571 19.9257 32 23.9998H8C9.14286 19.9257 13.1429 17.8886 20 17.8886Z" stroke="#8C8C8C" stroke-width="2.2" stroke-linecap="round" stroke-linejoin="round"/>
<path d="M0.97 30.6398V37.9998H2.01V34.3598C2.01 33.6998 1.92 32.7498 1.87 32.0798H1.91L2.49 33.7798L3.78 37.2898H4.5L5.78 33.7798L6.37 32.0798H6.41C6.36 32.7498 6.26 33.6998 6.26 34.3598V37.9998H7.34V30.6398H6L4.67 34.3598C4.5 34.8498 4.36 35.3398 4.19 35.8498H4.14C3.97 35.3398 3.82 34.8498 3.65 34.3598L2.3 30.6398H0.97ZM10.4808 35.2098V37.9998H11.6408V35.2098L13.8608 30.6398H12.6508L11.7908 32.5898C11.5608 33.1498 11.3308 33.6498 11.0908 34.2098H11.0508C10.8008 33.6498 10.5908 33.1498 10.3608 32.5898L9.51078 30.6398H8.27078L10.4808 35.2098ZM17.0245 30.6398V37.9998H18.1845V35.2098H19.2945C20.8945 35.2098 22.0645 34.4698 22.0645 32.8598C22.0645 31.2098 20.8945 30.6398 19.2545 30.6398H17.0245ZM19.1845 34.2798H18.1845V31.5698H19.1445C20.3145 31.5698 20.9245 31.8898 20.9245 32.8598C20.9245 33.8298 20.3945 34.2798 19.1845 34.2798ZM26.3424 35.8998L26.9624 37.9998H28.1924L25.7524 30.6398H24.4124L21.9724 37.9998H23.1524L23.7824 35.8998H26.3424ZM26.0624 34.9898H24.0524L24.3524 33.9998C24.5924 33.1998 24.8224 32.3898 25.0324 31.5498H25.0724C25.3024 32.3898 25.5224 33.1998 25.7724 33.9998L26.0624 34.9898ZM32.0657 38.1298C33.0757 38.1298 33.9057 37.7598 34.3957 37.2698V34.0798H31.8857V35.0298H33.3457V36.7598C33.0757 36.9898 32.6357 37.1198 32.1857 37.1198C30.6657 37.1198 29.8557 36.0498 29.8557 34.2998C29.8557 32.5798 30.7757 31.5098 32.1357 31.5098C32.8557 31.5098 33.2957 31.7998 33.6557 32.1698L34.2857 31.4298C33.8357 30.9598 33.1357 30.4998 32.0957 30.4998C30.1357 30.4998 28.6657 31.9298 28.6657 34.3398C28.6657 36.7398 30.0957 38.1298 32.0657 38.1298ZM36.0774 30.6398V37.9998H40.5374V37.0198H37.2374V34.6398H39.9374V33.6598H37.2374V31.6098H40.4274V30.6398H36.0774Z" fill="#8C8C8C"/>
</svg>
