<svg width="63" height="63" viewBox="0 0 63 63" fill="none" xmlns="http://www.w3.org/2000/svg">
<path d="M30.9883 20.9456C25.4654 20.9456 20.9883 16.8416 20.9883 11.779C20.9883 6.71636 25.4654 2.6123 30.9883 2.6123C36.5111 2.6123 40.9883 6.71636 40.9883 11.779C40.9883 16.8416 36.5111 20.9456 30.9883 20.9456ZM30.9883 26.4456C41.274 26.4456 47.274 29.5012 48.9883 35.6123H12.9883C14.7026 29.5012 20.7026 26.4456 30.9883 26.4456Z" stroke="#8C8C8C" stroke-width="3.3" stroke-linecap="round" stroke-linejoin="round"/>
<path d="M2.44328 45.0723V56.1123H4.00328V50.6523C4.00328 50.4023 3.99328 50.1323 3.97328 49.8423C3.96328 49.5523 3.94828 49.2573 3.92828 48.9573C3.90828 48.6473 3.88328 48.3473 3.85328 48.0573C3.83328 47.7573 3.81328 47.4823 3.79328 47.2323H3.85328L4.72328 49.7823L6.65828 55.0473H7.73828L9.65828 49.7823L10.5433 47.2323H10.6033C10.5833 47.4823 10.5583 47.7573 10.5283 48.0573C10.5083 48.3473 10.4833 48.6473 10.4533 48.9573C10.4333 49.2573 10.4133 49.5523 10.3933 49.8423C10.3833 50.1323 10.3783 50.4023 10.3783 50.6523V56.1123H11.9983V45.0723H9.98828L7.99328 50.6523C7.86328 51.0223 7.74328 51.3923 7.63328 51.7623C7.52328 52.1323 7.40328 52.5073 7.27328 52.8873H7.19828C7.06828 52.5073 6.94328 52.1323 6.82328 51.7623C6.71328 51.3923 6.59328 51.0223 6.46328 50.6523L4.43828 45.0723H2.44328ZM16.7094 51.9273V56.1123H18.4494V51.9273L21.7794 45.0723H19.9644L18.6744 47.9973C18.5044 48.4173 18.3294 48.8223 18.1494 49.2123C17.9794 49.6023 17.8044 50.0073 17.6244 50.4273H17.5644C17.3744 50.0073 17.1944 49.6023 17.0244 49.2123C16.8644 48.8223 16.6994 48.4173 16.5294 47.9973L15.2544 45.0723H13.3944L16.7094 51.9273ZM26.5249 45.0723V56.1123H28.2649V51.9273H29.9299C30.5299 51.9273 31.0849 51.8573 31.5949 51.7173C32.1049 51.5773 32.5399 51.3623 32.8999 51.0723C33.2699 50.7823 33.5599 50.4173 33.7699 49.9773C33.9799 49.5273 34.0849 49.0023 34.0849 48.4023C34.0849 47.7823 33.9799 47.2623 33.7699 46.8423C33.5599 46.4123 33.2699 46.0673 32.8999 45.8073C32.5299 45.5473 32.0849 45.3623 31.5649 45.2523C31.0549 45.1323 30.4899 45.0723 29.8699 45.0723H26.5249ZM29.7649 50.5323H28.2649V46.4673H29.7049C30.5849 46.4673 31.2499 46.6073 31.6999 46.8873C32.1499 47.1673 32.3749 47.6723 32.3749 48.4023C32.3749 49.1323 32.1649 49.6723 31.7449 50.0223C31.3349 50.3623 30.6749 50.5323 29.7649 50.5323ZM40.5019 52.9623L41.4319 56.1123H43.2769L39.6169 45.0723H37.6069L33.9469 56.1123H35.7169L36.6619 52.9623H40.5019ZM40.0819 51.5973H37.0669L37.5169 50.1123C37.6969 49.5123 37.8719 48.9073 38.0419 48.2973C38.2119 47.6873 38.3769 47.0673 38.5369 46.4373H38.5969C38.7669 47.0673 38.9369 47.6873 39.1069 48.2973C39.2769 48.9073 39.4569 49.5123 39.6469 50.1123L40.0819 51.5973ZM49.0868 56.3073C49.8468 56.3073 50.5268 56.1873 51.1268 55.9473C51.7268 55.6973 52.2118 55.3873 52.5818 55.0173V50.2323H48.8168V51.6573H51.0068V54.2523C50.8068 54.4223 50.5518 54.5573 50.2418 54.6573C49.9318 54.7473 49.6068 54.7923 49.2668 54.7923C48.6968 54.7923 48.1918 54.6973 47.7518 54.5073C47.3218 54.3073 46.9568 54.0273 46.6568 53.6673C46.3668 53.2973 46.1468 52.8523 45.9968 52.3323C45.8468 51.8123 45.7718 51.2223 45.7718 50.5623C45.7718 49.9123 45.8518 49.3323 46.0118 48.8223C46.1818 48.3023 46.4168 47.8623 46.7168 47.5023C47.0168 47.1423 47.3768 46.8673 47.7968 46.6773C48.2168 46.4773 48.6818 46.3773 49.1918 46.3773C49.7318 46.3773 50.1768 46.4723 50.5268 46.6623C50.8868 46.8523 51.2018 47.0873 51.4718 47.3673L52.4168 46.2573C52.2468 46.0773 52.0518 45.9073 51.8318 45.7473C51.6218 45.5773 51.3818 45.4273 51.1118 45.2973C50.8418 45.1673 50.5418 45.0623 50.2118 44.9823C49.8818 44.9023 49.5218 44.8623 49.1318 44.8623C48.4018 44.8623 47.7218 44.9923 47.0918 45.2523C46.4618 45.5123 45.9168 45.8923 45.4568 46.3923C44.9968 46.8823 44.6368 47.4873 44.3768 48.2073C44.1168 48.9173 43.9868 49.7223 43.9868 50.6223C43.9868 51.5223 44.1118 52.3273 44.3618 53.0373C44.6218 53.7373 44.9768 54.3323 45.4268 54.8223C45.8768 55.3023 46.4118 55.6723 47.0318 55.9323C47.6618 56.1823 48.3468 56.3073 49.0868 56.3073ZM55.1044 45.0723V56.1123H61.7944V54.6423H56.8444V51.0723H60.8944V49.6023H56.8444V46.5273H61.6294V45.0723H55.1044Z" fill="#8C8C8C"/>
</svg>
