<svg width="14" height="14" viewBox="0 0 14 14" fill="none" xmlns="http://www.w3.org/2000/svg">
<path d="M6.01314 1.34164C6.25262 0.60459 7.29535 0.604592 7.53483 1.34164L8.56426 4.50989C8.67136 4.83951 8.97852 5.06268 9.3251 5.06268L12.6564 5.06268C13.4314 5.06268 13.7536 6.05437 13.1266 6.50989L10.4316 8.46797C10.1512 8.67169 10.0338 9.03278 10.1409 9.3624L11.1704 12.5307C11.4098 13.2677 10.5663 13.8806 9.93929 13.4251L7.24421 11.467C6.96382 11.2633 6.58415 11.2633 6.30376 11.467L3.60868 13.4251C2.98171 13.8806 2.13813 13.2677 2.37761 12.5306L3.40704 9.3624C3.51414 9.03278 3.39681 8.67169 3.11642 8.46797L0.421346 6.50989C-0.205625 6.05437 0.116597 5.06268 0.891576 5.06268L4.22287 5.06268C4.56945 5.06268 4.87662 4.83951 4.98371 4.50989L6.01314 1.34164Z" fill="#ED9071"/>
</svg>
