<svg width="89" height="18" viewBox="0 0 89 18" fill="none" xmlns="http://www.w3.org/2000/svg">
<path d="M8.01314 2.34164C8.25262 1.60459 9.29535 1.60459 9.53483 2.34164L10.5643 5.50989C10.6714 5.83951 10.9785 6.06268 11.3251 6.06268L14.6564 6.06268C15.4314 6.06268 15.7536 7.05437 15.1266 7.50989L12.4316 9.46797C12.1512 9.67169 12.0338 10.0328 12.1409 10.3624L13.1704 13.5307C13.4098 14.2677 12.5663 14.8806 11.9393 14.4251L9.24421 12.467C8.96382 12.2633 8.58415 12.2633 8.30376 12.467L5.60868 14.4251C4.98171 14.8806 4.13813 14.2677 4.37761 13.5306L5.40704 10.3624C5.51414 10.0328 5.39681 9.67169 5.11642 9.46797L2.42135 7.50989C1.79438 7.05437 2.1166 6.06268 2.89158 6.06268L6.22287 6.06268C6.56945 6.06268 6.87662 5.83951 6.98371 5.50989L8.01314 2.34164Z" fill="#ED9071"/>
<path d="M43.5092 2.34164C43.7487 1.60459 44.7914 1.60459 45.0309 2.34164L46.0604 5.50989C46.1675 5.83951 46.4746 6.06268 46.8212 6.06268L50.1525 6.06268C50.9275 6.06268 51.2497 7.05437 50.6227 7.50989L47.9276 9.46797C47.6473 9.67169 47.5299 10.0328 47.637 10.3624L48.6665 13.5307C48.9059 14.2677 48.0624 14.8806 47.4354 14.4251L44.7403 12.467C44.4599 12.2633 44.0802 12.2633 43.7999 12.467L41.1048 14.4251C40.4778 14.8806 39.6342 14.2677 39.8737 13.5306L40.9031 10.3624C41.0102 10.0328 40.8929 9.67169 40.6125 9.46797L37.9174 7.50989C37.2905 7.05437 37.6127 6.06268 38.3877 6.06268L41.719 6.06268C42.0655 6.06268 42.3727 5.83951 42.4798 5.50989L43.5092 2.34164Z" fill="#ED9071"/>
<path d="M25.7612 2.34164C26.0007 1.60459 27.0434 1.60459 27.2829 2.34164L28.3123 5.50989C28.4194 5.83951 28.7266 6.06268 29.0731 6.06268L32.4044 6.06268C33.1794 6.06268 33.5016 7.05437 32.8747 7.50989L30.1796 9.46797C29.8992 9.67169 29.7819 10.0328 29.889 10.3624L30.9184 13.5307C31.1579 14.2677 30.3143 14.8806 29.6873 14.4251L26.9923 12.467C26.7119 12.2633 26.3322 12.2633 26.0518 12.467L23.3567 14.4251C22.7298 14.8806 21.8862 14.2677 22.1257 13.5306L23.1551 10.3624C23.2622 10.0328 23.1449 9.67169 22.8645 9.46797L20.1694 7.50989C19.5424 7.05437 19.8646 6.06268 20.6396 6.06268L23.9709 6.06268C24.3175 6.06268 24.6247 5.83951 24.7318 5.50989L25.7612 2.34164Z" fill="#ED9071"/>
<path d="M61.2573 2.34164C61.4968 1.60459 62.5395 1.60459 62.779 2.34164L63.8084 5.50989C63.9155 5.83951 64.2227 6.06268 64.5692 6.06268L67.9005 6.06268C68.6755 6.06268 68.9977 7.05437 68.3708 7.50989L65.6757 9.46797C65.3953 9.67169 65.278 10.0328 65.3851 10.3624L66.4145 13.5307C66.654 14.2677 65.8104 14.8806 65.1834 14.4251L62.4884 12.467C62.208 12.2633 61.8283 12.2633 61.5479 12.467L58.8528 14.4251C58.2259 14.8806 57.3823 14.2677 57.6218 13.5306L58.6512 10.3624C58.7583 10.0328 58.641 9.67169 58.3606 9.46797L55.6655 7.50989C55.0385 7.05437 55.3607 6.06268 56.1357 6.06268L59.467 6.06268C59.8136 6.06268 60.1208 5.83951 60.2279 5.50989L61.2573 2.34164Z" fill="#ED9071"/>
<path d="M79.0053 2.34164C79.2448 1.60459 80.2875 1.60459 80.527 2.34164L81.5564 5.50989C81.6635 5.83951 81.9707 6.06268 82.3173 6.06268L85.6486 6.06268C86.4236 6.06268 86.7458 7.05437 86.1188 7.50989L83.4237 9.46797C83.1433 9.67169 83.026 10.0328 83.1331 10.3624L84.1625 13.5307C84.402 14.2677 83.5584 14.8806 82.9315 14.4251L80.2364 12.467C79.956 12.2633 79.5763 12.2633 79.2959 12.467L76.6009 14.4251C75.9739 14.8806 75.1303 14.2677 75.3698 13.5306L76.3992 10.3624C76.5063 10.0328 76.389 9.67169 76.1086 9.46797L73.4135 7.50989C72.7866 7.05437 73.1088 6.06268 73.8838 6.06268L77.2151 6.06268C77.5616 6.06268 77.8688 5.83951 77.9759 5.50989L79.0053 2.34164Z" fill="#ED9071"/>
</svg>
