<svg width="133" height="27" viewBox="0 0 133 27" fill="none" xmlns="http://www.w3.org/2000/svg">
<path d="M13.5889 3.74422L15.1331 8.49659C15.3941 9.30004 16.1429 9.84401 16.9876 9.84401H21.9846C22.4205 9.84401 22.6018 10.4018 22.2491 10.6581L18.2065 13.5952C17.523 14.0917 17.237 14.9719 17.4981 15.7754L19.0422 20.5277C19.1769 20.9423 18.7024 21.2871 18.3498 21.0308L14.3072 18.0937C13.6237 17.5972 12.6982 17.5972 12.0148 18.0937L7.97218 21.0308C7.61952 21.2871 7.145 20.9423 7.27971 20.5277L8.82384 15.7754C9.0849 14.9719 8.79891 14.0917 8.11547 13.5952L4.07286 10.6581C3.72019 10.4018 3.90143 9.84401 4.33736 9.84401H9.3343C10.1791 9.84401 10.9278 9.30004 11.1889 8.49659L12.733 3.74422C12.8677 3.32963 13.4542 3.32963 13.5889 3.74422Z" fill="white" stroke="#C1C1C1" stroke-width="1.5"/>
<path d="M66.8331 3.74422L68.3772 8.49659C68.6383 9.30004 69.387 9.84401 70.2318 9.84401H75.2287C75.6646 9.84401 75.8459 10.4018 75.4932 10.6581L71.4506 13.5952C70.7672 14.0917 70.4812 14.9719 70.7422 15.7754L72.2864 20.5277C72.4211 20.9423 71.9466 21.2871 71.5939 21.0308L67.5513 18.0937C66.8678 17.5972 65.9424 17.5972 65.2589 18.0937L61.2163 21.0308C60.8637 21.2871 60.3891 20.9423 60.5238 20.5277L62.068 15.7754C62.329 14.9719 62.0431 14.0917 61.3596 13.5952L57.317 10.6581C56.9643 10.4018 57.1456 9.84401 57.5815 9.84401H62.5784C63.4232 9.84401 64.1719 9.30004 64.433 8.49659L65.9771 3.74422C66.1118 3.32963 66.6984 3.32963 66.8331 3.74422Z" fill="white" stroke="#C1C1C1" stroke-width="1.5"/>
<path d="M40.21 3.74422L41.7542 8.49659C42.0152 9.30004 42.7639 9.84401 43.6087 9.84401H48.6057C49.0416 9.84401 49.2229 10.4018 48.8702 10.6581L44.8276 13.5952C44.1441 14.0917 43.8581 14.9719 44.1192 15.7754L45.6633 20.5277C45.798 20.9423 45.3235 21.2871 44.9708 21.0308L40.9282 18.0937C40.2448 17.5972 39.3193 17.5972 38.6359 18.0937L34.5933 21.0308C34.2406 21.2871 33.7661 20.9423 33.9008 20.5277L35.4449 15.7754C35.706 14.9719 35.42 14.0917 34.7366 13.5952L30.694 10.6581C30.3413 10.4018 30.5225 9.84401 30.9585 9.84401H35.9554C36.8002 9.84401 37.5489 9.30004 37.81 8.49659L39.3541 3.74422C39.4888 3.32963 40.0753 3.32963 40.21 3.74422Z" fill="white" stroke="#C1C1C1" stroke-width="1.5"/>
<path d="M93.4542 3.74422L94.9983 8.49659C95.2594 9.30004 96.0081 9.84401 96.8529 9.84401H101.85C102.286 9.84401 102.467 10.4018 102.114 10.6581L98.0717 13.5952C97.3883 14.0917 97.1023 14.9719 97.3633 15.7754L98.9075 20.5277C99.0422 20.9423 98.5677 21.2871 98.215 21.0308L94.1724 18.0937C93.4889 17.5972 92.5635 17.5972 91.88 18.0937L87.8374 21.0308C87.4847 21.2871 87.0102 20.9423 87.1449 20.5277L88.6891 15.7754C88.9501 14.9719 88.6641 14.0917 87.9807 13.5952L83.9381 10.6581C83.5854 10.4018 83.7667 9.84401 84.2026 9.84401H89.1995C90.0443 9.84401 90.793 9.30004 91.0541 8.49659L92.5982 3.74422C92.7329 3.32963 93.3195 3.32963 93.4542 3.74422Z" fill="white" stroke="#C1C1C1" stroke-width="1.5"/>
<path d="M120.077 3.74422L121.621 8.49659C121.882 9.30004 122.631 9.84401 123.476 9.84401H128.473C128.909 9.84401 129.09 10.4018 128.737 10.6581L124.695 13.5952C124.011 14.0917 123.725 14.9719 123.986 15.7754L125.531 20.5277C125.665 20.9423 125.191 21.2871 124.838 21.0308L120.795 18.0937C120.112 17.5972 119.187 17.5972 118.503 18.0937L114.46 21.0308C114.108 21.2871 113.633 20.9423 113.768 20.5277L115.312 15.7754C115.573 14.9719 115.287 14.0917 114.604 13.5952L110.561 10.6581C110.208 10.4018 110.39 9.84401 110.826 9.84401H115.823C116.667 9.84401 117.416 9.30004 117.677 8.49659L119.221 3.74422C119.356 3.32963 119.943 3.32963 120.077 3.74422Z" fill="white" stroke="#C1C1C1" stroke-width="1.5"/>
</svg>
