<svg width="21" height="20" viewBox="0 0 21 20" fill="none" xmlns="http://www.w3.org/2000/svg">
<path d="M9.6447 1.01246C10.0039 -0.093114 11.568 -0.0931121 11.9272 1.01246L13.4714 5.76483C13.632 6.25926 14.0928 6.59401 14.6126 6.59401H19.6096C20.7721 6.59401 21.2554 8.08155 20.3149 8.76483L16.2723 11.702C15.8517 12.0075 15.6757 12.5492 15.8364 13.0436L17.3805 17.796C17.7398 18.9015 16.4744 19.8209 15.5339 19.1376L11.4913 16.2005C11.0707 15.8949 10.5012 15.8949 10.0806 16.2005L6.03802 19.1376C5.09756 19.8209 3.83219 18.9015 4.19141 17.796L5.73555 13.0436C5.8962 12.5492 5.72021 12.0075 5.29963 11.702L1.25702 8.76483C0.316562 8.08155 0.799894 6.59401 1.96236 6.59401H6.9593C7.47917 6.59401 7.93992 6.25926 8.10056 5.76483L9.6447 1.01246Z" fill="#ED9071"/>
</svg>
