<svg width="134" height="27" viewBox="0 0 134 27" fill="none" xmlns="http://www.w3.org/2000/svg">
<path d="M12.6447 3.51148C13.0039 2.40591 14.568 2.40591 14.9272 3.51148L16.4714 8.26385C16.632 8.75828 17.0928 9.09303 17.6126 9.09303H22.6096C23.7721 9.09303 24.2554 10.5806 23.3149 11.2639L19.2723 14.201C18.8517 14.5066 18.6757 15.0482 18.8364 15.5426L20.3805 20.295C20.7398 21.4006 19.4744 22.3199 18.5339 21.6366L14.4913 18.6995C14.0707 18.3939 13.5012 18.3939 13.0806 18.6995L9.03802 21.6366C8.09756 22.3199 6.83219 21.4006 7.19141 20.295L8.73555 15.5426C8.8962 15.0482 8.72021 14.5066 8.29963 14.201L4.25702 11.2639C3.31656 10.5806 3.79989 9.09303 4.96236 9.09303H9.9593C10.4792 9.09303 10.9399 8.75828 11.1006 8.26385L12.6447 3.51148Z" fill="#ED9071"/>
<path d="M65.8888 3.51148C66.2481 2.40591 67.8122 2.40591 68.1714 3.51148L69.7155 8.26385C69.8762 8.75828 70.3369 9.09303 70.8568 9.09303H75.8537C77.0162 9.09303 77.4995 10.5806 76.5591 11.2639L72.5165 14.201C72.0959 14.5066 71.9199 15.0482 72.0805 15.5426L73.6247 20.295C73.9839 21.4006 72.7185 22.3199 71.7781 21.6366L67.7355 18.6995C67.3149 18.3939 66.7454 18.3939 66.3248 18.6995L62.2822 21.6366C61.3417 22.3199 60.0763 21.4006 60.4356 20.295L61.9797 15.5426C62.1403 15.0482 61.9644 14.5066 61.5438 14.201L57.5012 11.2639C56.5607 10.5806 57.044 9.09303 58.2065 9.09303H63.2034C63.7233 9.09303 64.1841 8.75828 64.3447 8.26385L65.8888 3.51148Z" fill="#ED9071"/>
<path d="M39.2658 3.51148C39.625 2.40591 41.1891 2.40591 41.5483 3.51148L43.0925 8.26385C43.2531 8.75828 43.7139 9.09303 44.2337 9.09303H49.2307C50.3931 9.09303 50.8765 10.5806 49.936 11.2639L45.8934 14.201C45.4728 14.5066 45.2968 15.0482 45.4575 15.5426L47.0016 20.295C47.3608 21.4006 46.0955 22.3199 45.155 21.6366L41.1124 18.6995C40.6918 18.3939 40.1223 18.3939 39.7017 18.6995L35.6591 21.6366C34.7187 22.3199 33.4533 21.4006 33.8125 20.295L35.3566 15.5426C35.5173 15.0482 35.3413 14.5066 34.9207 14.201L30.8781 11.2639C29.9377 10.5806 30.421 9.09303 31.5835 9.09303H36.5804C37.1003 9.09303 37.561 8.75828 37.7217 8.26385L39.2658 3.51148Z" fill="#ED9071"/>
<path d="M92.5099 3.51148C92.8692 2.40591 94.4333 2.40591 94.7925 3.51148L96.3366 8.26385C96.4973 8.75828 96.958 9.09303 97.4779 9.09303H102.475C103.637 9.09303 104.121 10.5806 103.18 11.2639L99.1375 14.201C98.717 14.5066 98.541 15.0482 98.7016 15.5426L100.246 20.295C100.605 21.4006 99.3396 22.3199 98.3992 21.6366L94.3565 18.6995C93.936 18.3939 93.3664 18.3939 92.9459 18.6995L88.9033 21.6366C87.9628 22.3199 86.6974 21.4006 87.0566 20.295L88.6008 15.5426C88.7614 15.0482 88.5854 14.5066 88.1649 14.201L84.1223 11.2639C83.1818 10.5806 83.6651 9.09303 84.8276 9.09303H89.8245C90.3444 9.09303 90.8052 8.75828 90.9658 8.26385L92.5099 3.51148Z" fill="#ED9071"/>
<path d="M119.133 3.51148C119.492 2.40591 121.056 2.40591 121.416 3.51148L122.96 8.26385C123.12 8.75828 123.581 9.09303 124.101 9.09303H129.098C130.26 9.09303 130.744 10.5806 129.803 11.2639L125.761 14.201C125.34 14.5066 125.164 15.0482 125.325 15.5426L126.869 20.295C127.228 21.4006 125.963 22.3199 125.022 21.6366L120.98 18.6995C120.559 18.3939 119.989 18.3939 119.569 18.6995L115.526 21.6366C114.586 22.3199 113.32 21.4006 113.68 20.295L115.224 15.5426C115.384 15.0482 115.208 14.5066 114.788 14.201L110.745 11.2639C109.805 10.5806 110.288 9.09303 111.451 9.09303H116.448C116.967 9.09303 117.428 8.75828 117.589 8.26385L119.133 3.51148Z" fill="#ED9071"/>
</svg>
