<svg width="42" height="42" viewBox="0 0 42 42" fill="none" xmlns="http://www.w3.org/2000/svg">
<path d="M20 14.2222C16.3181 14.2222 13.3333 11.4862 13.3333 8.11111C13.3333 4.73604 16.3181 2 20 2C23.6819 2 26.6667 4.73604 26.6667 8.11111C26.6667 11.4862 23.6819 14.2222 20 14.2222ZM20 17.8889C26.8571 17.8889 30.8571 19.9259 32 24H8C9.14286 19.9259 13.1429 17.8889 20 17.8889Z" fill="#ED9071" stroke="#ED9071" stroke-width="2.2" stroke-linecap="round" stroke-linejoin="round"/>
<path d="M0.97 30.64V38H2.01V34.36C2.01 34.1933 2.00333 34.0133 1.99 33.82C1.98333 33.6267 1.97333 33.43 1.96 33.23C1.94667 33.0233 1.93 32.8233 1.91 32.63C1.89667 32.43 1.88333 32.2467 1.87 32.08H1.91L2.49 33.78L3.78 37.29H4.5L5.78 33.78L6.37 32.08H6.41C6.39667 32.2467 6.38 32.43 6.36 32.63C6.34667 32.8233 6.33 33.0233 6.31 33.23C6.29667 33.43 6.28333 33.6267 6.27 33.82C6.26333 34.0133 6.26 34.1933 6.26 34.36V38H7.34V30.64H6L4.67 34.36C4.58333 34.6067 4.50333 34.8533 4.43 35.1C4.35667 35.3467 4.27667 35.5967 4.19 35.85H4.14C4.05333 35.5967 3.97 35.3467 3.89 35.1C3.81667 34.8533 3.73667 34.6067 3.65 34.36L2.3 30.64H0.97ZM10.4808 35.21V38H11.6408V35.21L13.8608 30.64H12.6508L11.7908 32.59C11.6774 32.87 11.5608 33.14 11.4408 33.4C11.3274 33.66 11.2108 33.93 11.0908 34.21H11.0508C10.9241 33.93 10.8041 33.66 10.6908 33.4C10.5841 33.14 10.4741 32.87 10.3608 32.59L9.51078 30.64H8.27078L10.4808 35.21ZM17.0245 30.64V38H18.1845V35.21H19.2945C19.6945 35.21 20.0645 35.1633 20.4045 35.07C20.7445 34.9767 21.0345 34.8333 21.2745 34.64C21.5211 34.4467 21.7145 34.2033 21.8545 33.91C21.9945 33.61 22.0645 33.26 22.0645 32.86C22.0645 32.4467 21.9945 32.1 21.8545 31.82C21.7145 31.5333 21.5211 31.3033 21.2745 31.13C21.0278 30.9567 20.7311 30.8333 20.3845 30.76C20.0445 30.68 19.6678 30.64 19.2545 30.64H17.0245ZM19.1845 34.28H18.1845V31.57H19.1445C19.7311 31.57 20.1745 31.6633 20.4745 31.85C20.7745 32.0367 20.9245 32.3733 20.9245 32.86C20.9245 33.3467 20.7845 33.7067 20.5045 33.94C20.2311 34.1667 19.7911 34.28 19.1845 34.28ZM26.3424 35.9L26.9624 38H28.1924L25.7524 30.64H24.4124L21.9724 38H23.1524L23.7824 35.9H26.3424ZM26.0624 34.99H24.0524L24.3524 34C24.4724 33.6 24.5891 33.1967 24.7024 32.79C24.8158 32.3833 24.9258 31.97 25.0324 31.55H25.0724C25.1858 31.97 25.2991 32.3833 25.4124 32.79C25.5258 33.1967 25.6458 33.6 25.7724 34L26.0624 34.99ZM32.0657 38.13C32.5724 38.13 33.0257 38.05 33.4257 37.89C33.8257 37.7233 34.149 37.5167 34.3957 37.27V34.08H31.8857V35.03H33.3457V36.76C33.2124 36.8733 33.0424 36.9633 32.8357 37.03C32.629 37.09 32.4124 37.12 32.1857 37.12C31.8057 37.12 31.469 37.0567 31.1757 36.93C30.889 36.7967 30.6457 36.61 30.4457 36.37C30.2524 36.1233 30.1057 35.8267 30.0057 35.48C29.9057 35.1333 29.8557 34.74 29.8557 34.3C29.8557 33.8667 29.909 33.48 30.0157 33.14C30.129 32.7933 30.2857 32.5 30.4857 32.26C30.6857 32.02 30.9257 31.8367 31.2057 31.71C31.4857 31.5767 31.7957 31.51 32.1357 31.51C32.4957 31.51 32.7924 31.5733 33.0257 31.7C33.2657 31.8267 33.4757 31.9833 33.6557 32.17L34.2857 31.43C34.1724 31.31 34.0424 31.1967 33.8957 31.09C33.7557 30.9767 33.5957 30.8767 33.4157 30.79C33.2357 30.7033 33.0357 30.6333 32.8157 30.58C32.5957 30.5267 32.3557 30.5 32.0957 30.5C31.609 30.5 31.1557 30.5867 30.7357 30.76C30.3157 30.9333 29.9524 31.1867 29.6457 31.52C29.339 31.8467 29.099 32.25 28.9257 32.73C28.7524 33.2033 28.6657 33.74 28.6657 34.34C28.6657 34.94 28.749 35.4767 28.9157 35.95C29.089 36.4167 29.3257 36.8133 29.6257 37.14C29.9257 37.46 30.2824 37.7067 30.6957 37.88C31.1157 38.0467 31.5724 38.13 32.0657 38.13ZM36.0774 30.64V38H40.5374V37.02H37.2374V34.64H39.9374V33.66H37.2374V31.61H40.4274V30.64H36.0774Z" fill="#ED9071"/>
</svg>
