<svg width="42" height="42" viewBox="0 0 42 42" fill="none" xmlns="http://www.w3.org/2000/svg">
<path d="M20 14.2222C16.3181 14.2222 13.3333 11.4862 13.3333 8.11111C13.3333 4.73604 16.3181 2 20 2C23.6819 2 26.6667 4.73604 26.6667 8.11111C26.6667 11.4862 23.6819 14.2222 20 14.2222ZM20 17.8889C26.8571 17.8889 30.8571 19.9259 32 24H8C9.14286 19.9259 13.1429 17.8889 20 17.8889Z" stroke="#8C8C8C" stroke-width="2.2" stroke-linecap="round" stroke-linejoin="round"/>
<path d="M0.97 30.64V38H2.01V34.36C2.01 33.7 1.92 32.75 1.87 32.08H1.91L2.49 33.78L3.78 37.29H4.5L5.78 33.78L6.37 32.08H6.41C6.36 32.75 6.26 33.7 6.26 34.36V38H7.34V30.64H6L4.67 34.36C4.5 34.85 4.36 35.34 4.19 35.85H4.14C3.97 35.34 3.82 34.85 3.65 34.36L2.3 30.64H0.97ZM10.4808 35.21V38H11.6408V35.21L13.8608 30.64H12.6508L11.7908 32.59C11.5608 33.15 11.3308 33.65 11.0908 34.21H11.0508C10.8008 33.65 10.5908 33.15 10.3608 32.59L9.51078 30.64H8.27078L10.4808 35.21ZM17.0245 30.64V38H18.1845V35.21H19.2945C20.8945 35.21 22.0645 34.47 22.0645 32.86C22.0645 31.21 20.8945 30.64 19.2545 30.64H17.0245ZM19.1845 34.28H18.1845V31.57H19.1445C20.3145 31.57 20.9245 31.89 20.9245 32.86C20.9245 33.83 20.3945 34.28 19.1845 34.28ZM26.3424 35.9L26.9624 38H28.1924L25.7524 30.64H24.4124L21.9724 38H23.1524L23.7824 35.9H26.3424ZM26.0624 34.99H24.0524L24.3524 34C24.5924 33.2 24.8224 32.39 25.0324 31.55H25.0724C25.3024 32.39 25.5224 33.2 25.7724 34L26.0624 34.99ZM32.0657 38.13C33.0757 38.13 33.9057 37.76 34.3957 37.27V34.08H31.8857V35.03H33.3457V36.76C33.0757 36.99 32.6357 37.12 32.1857 37.12C30.6657 37.12 29.8557 36.05 29.8557 34.3C29.8557 32.58 30.7757 31.51 32.1357 31.51C32.8557 31.51 33.2957 31.8 33.6557 32.17L34.2857 31.43C33.8357 30.96 33.1357 30.5 32.0957 30.5C30.1357 30.5 28.6657 31.93 28.6657 34.34C28.6657 36.74 30.0957 38.13 32.0657 38.13ZM36.0774 30.64V38H40.5374V37.02H37.2374V34.64H39.9374V33.66H37.2374V31.61H40.4274V30.64H36.0774Z" fill="#8C8C8C"/>
</svg>
