<svg width="41" height="38" viewBox="0 0 41 38" fill="none" xmlns="http://www.w3.org/2000/svg">
<path d="M25.0574 12.6406H25.0761" stroke="#696969" stroke-width="2" stroke-linecap="round" stroke-linejoin="round"/>
<path d="M28.3983 6.39844H11.6934C8.9256 6.39844 6.68188 8.49458 6.68188 11.0803V26.6865C6.68188 29.2723 8.9256 31.3684 11.6934 31.3684H28.3983C31.166 31.3684 33.4097 29.2723 33.4097 26.6865V11.0803C33.4097 8.49458 31.166 6.39844 28.3983 6.39844Z" stroke="#696969" stroke-width="2" stroke-linecap="round" stroke-linejoin="round"/>
<path d="M6.68188 23.5653L13.3638 17.3228C14.1257 16.6379 14.9899 16.2773 15.8696 16.2773C16.7493 16.2773 17.6135 16.6379 18.3753 17.3228L26.7278 25.1259" stroke="#696969" stroke-width="2" stroke-linecap="round" stroke-linejoin="round"/>
<path d="M23.3867 22.0045L25.0572 20.4439C25.819 19.759 26.6832 19.3984 27.5629 19.3984C28.4426 19.3984 29.3068 19.759 30.0687 20.4439L33.4097 23.5651" stroke="#696969" stroke-width="2" stroke-linecap="round" stroke-linejoin="round"/>
</svg>
