<svg width="8" height="11" viewBox="0 0 8 11" fill="none" xmlns="http://www.w3.org/2000/svg">
<path d="M7.302 3.82568C7.302 1.89268 5.75265 0.325684 3.84143 0.325684C1.93021 0.325684 0.380859 1.89268 0.380859 3.82568C0.380859 4.51918 0.58355 5.16418 0.927135 5.70818H0.92318C2.08989 7.55568 3.84143 10.3257 3.84143 10.3257L6.75968 5.70818H6.75622C7.09931 5.16418 7.302 4.51918 7.302 3.82568ZM3.84143 5.32568C3.02226 5.32568 2.35833 4.65418 2.35833 3.82568C2.35833 2.99718 3.02226 2.32568 3.84143 2.32568C4.6606 2.32568 5.32453 2.99718 5.32453 3.82568C5.32453 4.65418 4.6606 5.32568 3.84143 5.32568Z" fill="black"/>
</svg>
