<svg width="13" height="11" viewBox="0 0 13 11" fill="none" xmlns="http://www.w3.org/2000/svg">
<path fill-rule="evenodd" clip-rule="evenodd" d="M4.26603 3.72713H2.66612C2.52468 3.72713 2.38903 3.67103 2.28901 3.57116C2.189 3.4713 2.13281 3.33585 2.13281 3.19462C2.13281 3.05339 2.189 2.91794 2.28901 2.81808C2.38903 2.71821 2.52468 2.66211 2.66612 2.66211H4.26603C4.40747 2.66211 4.54312 2.71821 4.64313 2.81808C4.74315 2.91794 4.79933 3.05339 4.79933 3.19462C4.79933 3.33585 4.74315 3.4713 4.64313 3.57116C4.54312 3.67103 4.40747 3.72713 4.26603 3.72713V3.72713ZM4.26603 5.85718H2.66612C2.52468 5.85718 2.38903 5.80107 2.28901 5.70121C2.189 5.60134 2.13281 5.4659 2.13281 5.32467C2.13281 5.18344 2.189 5.04799 2.28901 4.94812C2.38903 4.84826 2.52468 4.79215 2.66612 4.79215H4.26603C4.40747 4.79215 4.54312 4.84826 4.64313 4.94812C4.74315 5.04799 4.79933 5.18344 4.79933 5.32467C4.79933 5.4659 4.74315 5.60134 4.64313 5.70121C4.54312 5.80107 4.40747 5.85718 4.26603 5.85718V5.85718ZM4.26603 7.98722H2.66612C2.52468 7.98722 2.38903 7.93112 2.28901 7.83125C2.189 7.73139 2.13281 7.59594 2.13281 7.45471C2.13281 7.31348 2.189 7.17803 2.28901 7.07817C2.38903 6.9783 2.52468 6.9222 2.66612 6.9222H4.26603C4.40747 6.9222 4.54312 6.9783 4.64313 7.07817C4.74315 7.17803 4.79933 7.31348 4.79933 7.45471C4.79933 7.59594 4.74315 7.73139 4.64313 7.83125C4.54312 7.93112 4.40747 7.98722 4.26603 7.98722V7.98722ZM8.53246 3.72713H10.1324C10.2738 3.72713 10.4095 3.67103 10.5095 3.57116C10.6095 3.4713 10.6657 3.33585 10.6657 3.19462C10.6657 3.05339 10.6095 2.91794 10.5095 2.81808C10.4095 2.71821 10.2738 2.66211 10.1324 2.66211H8.53246C8.39102 2.66211 8.25538 2.71821 8.15536 2.81808C8.05535 2.91794 7.99916 3.05339 7.99916 3.19462C7.99916 3.33585 8.05535 3.4713 8.15536 3.57116C8.25538 3.67103 8.39102 3.72713 8.53246 3.72713V3.72713ZM8.53246 5.85718H10.1324C10.2738 5.85718 10.4095 5.80107 10.5095 5.70121C10.6095 5.60134 10.6657 5.4659 10.6657 5.32467C10.6657 5.18344 10.6095 5.04799 10.5095 4.94812C10.4095 4.84826 10.2738 4.79215 10.1324 4.79215H8.53246C8.39102 4.79215 8.25538 4.84826 8.15536 4.94812C8.05535 5.04799 7.99916 5.18344 7.99916 5.32467C7.99916 5.4659 8.05535 5.60134 8.15536 5.70121C8.25538 5.80107 8.39102 5.85718 8.53246 5.85718V5.85718ZM8.53246 7.98722H10.1324C10.2738 7.98722 10.4095 7.93112 10.5095 7.83125C10.6095 7.73139 10.6657 7.59594 10.6657 7.45471C10.6657 7.31348 10.6095 7.17803 10.5095 7.07817C10.4095 6.9783 10.2738 6.9222 10.1324 6.9222H8.53246C8.39102 6.9222 8.25538 6.9783 8.15536 7.07817C8.05535 7.17803 7.99916 7.31348 7.99916 7.45471C7.99916 7.59594 8.05535 7.73139 8.15536 7.83125C8.25538 7.93112 8.39102 7.98722 8.53246 7.98722V7.98722Z" fill="#494C4E"/>
<path fill-rule="evenodd" clip-rule="evenodd" d="M11.7327 0H6.93296C6.74577 0 6.56178 0.0495236 6.39965 0.143778C6.23767 0.0497806 6.0537 0.000181042 5.86635 0H1.06661C0.783986 0.00084282 0.51318 0.113321 0.313335 0.312869C0.11349 0.512417 0.000844075 0.78282 0 1.06502L0 9.58521C0.000844075 9.86741 0.11349 10.1378 0.313335 10.3374C0.51318 10.5369 0.783986 10.6494 1.06661 10.6502H5.86635C6.04767 10.6518 6.22686 10.6039 6.38365 10.5118C6.38827 10.5083 6.39388 10.5064 6.39965 10.5064C6.40542 10.5064 6.41104 10.5083 6.41565 10.5118C6.57244 10.6039 6.75163 10.6518 6.93296 10.6502H11.7327C12.0153 10.6494 12.2861 10.5369 12.486 10.3374C12.6858 10.1378 12.7985 9.86741 12.7993 9.58521V1.06502C12.7985 0.78282 12.6858 0.512417 12.486 0.312869C12.2861 0.113321 12.0153 0.00084282 11.7327 0V0ZM5.5997 9.58521H1.33326C1.26254 9.58521 1.19472 9.55715 1.14471 9.50722C1.0947 9.45729 1.06661 9.38957 1.06661 9.31895V1.33128C1.06661 1.26066 1.0947 1.19294 1.14471 1.14301C1.19472 1.09307 1.26254 1.06502 1.33326 1.06502H5.5997C5.67042 1.06502 5.73824 1.09307 5.78825 1.14301C5.83825 1.19294 5.86635 1.26066 5.86635 1.33128V9.31895C5.86635 9.38957 5.83825 9.45729 5.78825 9.50722C5.73824 9.55715 5.67042 9.58521 5.5997 9.58521ZM11.7327 9.31895C11.7327 9.38957 11.7046 9.45729 11.6546 9.50722C11.6046 9.55715 11.5368 9.58521 11.466 9.58521H7.19961C7.12889 9.58521 7.06106 9.55715 7.01106 9.50722C6.96105 9.45729 6.93296 9.38957 6.93296 9.31895V1.33128C6.93296 1.26066 6.96105 1.19294 7.01106 1.14301C7.06106 1.09307 7.12889 1.06502 7.19961 1.06502H11.466C11.5368 1.06502 11.6046 1.09307 11.6546 1.14301C11.7046 1.19294 11.7327 1.26066 11.7327 1.33128V9.31895Z" fill="#494C4E"/>
</svg>
