<svg width="12" height="11" viewBox="0 0 12 11" fill="none" xmlns="http://www.w3.org/2000/svg">
<path fill-rule="evenodd" clip-rule="evenodd" d="M3.75454 3.72762H2.34635C2.22186 3.72762 2.10246 3.67152 2.01444 3.57165C1.92641 3.47179 1.87695 3.33634 1.87695 3.19511C1.87695 3.05388 1.92641 2.91843 2.01444 2.81857C2.10246 2.7187 2.22186 2.6626 2.34635 2.6626H3.75454C3.87903 2.6626 3.99842 2.7187 4.08645 2.81857C4.17448 2.91843 4.22393 3.05388 4.22393 3.19511C4.22393 3.33634 4.17448 3.47179 4.08645 3.57165C3.99842 3.67152 3.87903 3.72762 3.75454 3.72762V3.72762ZM3.75454 5.85767H2.34635C2.22186 5.85767 2.10246 5.80156 2.01444 5.7017C1.92641 5.60183 1.87695 5.46639 1.87695 5.32515C1.87695 5.18392 1.92641 5.04848 2.01444 4.94861C2.10246 4.84875 2.22186 4.79264 2.34635 4.79264H3.75454C3.87903 4.79264 3.99842 4.84875 4.08645 4.94861C4.17448 5.04848 4.22393 5.18392 4.22393 5.32515C4.22393 5.46639 4.17448 5.60183 4.08645 5.7017C3.99842 5.80156 3.87903 5.85767 3.75454 5.85767V5.85767ZM3.75454 7.98771H2.34635C2.22186 7.98771 2.10246 7.93161 2.01444 7.83174C1.92641 7.73188 1.87695 7.59643 1.87695 7.4552C1.87695 7.31397 1.92641 7.17852 2.01444 7.07866C2.10246 6.97879 2.22186 6.92269 2.34635 6.92269H3.75454C3.87903 6.92269 3.99842 6.97879 4.08645 7.07866C4.17448 7.17852 4.22393 7.31397 4.22393 7.4552C4.22393 7.59643 4.17448 7.73188 4.08645 7.83174C3.99842 7.93161 3.87903 7.98771 3.75454 7.98771V7.98771ZM7.5097 3.72762H8.91789C9.04238 3.72762 9.16177 3.67152 9.2498 3.57165C9.33783 3.47179 9.38729 3.33634 9.38729 3.19511C9.38729 3.05388 9.33783 2.91843 9.2498 2.81857C9.16177 2.7187 9.04238 2.6626 8.91789 2.6626H7.5097C7.38521 2.6626 7.26582 2.7187 7.17779 2.81857C7.08976 2.91843 7.04031 3.05388 7.04031 3.19511C7.04031 3.33634 7.08976 3.47179 7.17779 3.57165C7.26582 3.67152 7.38521 3.72762 7.5097 3.72762V3.72762ZM7.5097 5.85767H8.91789C9.04238 5.85767 9.16177 5.80156 9.2498 5.7017C9.33783 5.60183 9.38729 5.46639 9.38729 5.32515C9.38729 5.18392 9.33783 5.04848 9.2498 4.94861C9.16177 4.84875 9.04238 4.79264 8.91789 4.79264H7.5097C7.38521 4.79264 7.26582 4.84875 7.17779 4.94861C7.08976 5.04848 7.04031 5.18392 7.04031 5.32515C7.04031 5.46639 7.08976 5.60183 7.17779 5.7017C7.26582 5.80156 7.38521 5.85767 7.5097 5.85767V5.85767ZM7.5097 7.98771H8.91789C9.04238 7.98771 9.16177 7.93161 9.2498 7.83174C9.33783 7.73188 9.38729 7.59643 9.38729 7.4552C9.38729 7.31397 9.33783 7.17852 9.2498 7.07866C9.16177 6.97879 9.04238 6.92269 8.91789 6.92269H7.5097C7.38521 6.92269 7.26582 6.97879 7.17779 7.07866C7.08976 7.17852 7.04031 7.31397 7.04031 7.4552C7.04031 7.59643 7.08976 7.73188 7.17779 7.83174C7.26582 7.93161 7.38521 7.98771 7.5097 7.98771V7.98771Z" fill="#494C4E"/>
<path fill-rule="evenodd" clip-rule="evenodd" d="M10.3267 0H6.10215C5.93739 0 5.77545 0.0495236 5.63275 0.143778C5.49018 0.0497806 5.32825 0.000181042 5.16335 0H0.938792C0.690037 0.00084282 0.451683 0.113321 0.275786 0.312869C0.0998896 0.512417 0.000742925 0.78282 0 1.06502L0 9.58521C0.000742925 9.86741 0.0998896 10.1378 0.275786 10.3374C0.451683 10.5369 0.690037 10.6494 0.938792 10.6502H5.16335C5.32295 10.6518 5.48067 10.6039 5.61867 10.5118C5.62273 10.5083 5.62767 10.5064 5.63275 10.5064C5.63783 10.5064 5.64277 10.5083 5.64683 10.5118C5.78483 10.6039 5.94255 10.6518 6.10215 10.6502H10.3267C10.5755 10.6494 10.8138 10.5369 10.9897 10.3374C11.1656 10.1378 11.2648 9.86741 11.2655 9.58521V1.06502C11.2648 0.78282 11.1656 0.512417 10.9897 0.312869C10.8138 0.113321 10.5755 0.00084282 10.3267 0V0ZM4.92866 9.58521H1.17349C1.11124 9.58521 1.05155 9.55715 1.00753 9.50722C0.963519 9.45729 0.938792 9.38957 0.938792 9.31895V1.33128C0.938792 1.26066 0.963519 1.19294 1.00753 1.14301C1.05155 1.09307 1.11124 1.06502 1.17349 1.06502H4.92866C4.9909 1.06502 5.0506 1.09307 5.09461 1.14301C5.13863 1.19294 5.16335 1.26066 5.16335 1.33128V9.31895C5.16335 9.38957 5.13863 9.45729 5.09461 9.50722C5.0506 9.55715 4.9909 9.58521 4.92866 9.58521ZM10.3267 9.31895C10.3267 9.38957 10.302 9.45729 10.258 9.50722C10.214 9.55715 10.1543 9.58521 10.092 9.58521H6.33684C6.2746 9.58521 6.2149 9.55715 6.17089 9.50722C6.12687 9.45729 6.10215 9.38957 6.10215 9.31895V1.33128C6.10215 1.26066 6.12687 1.19294 6.17089 1.14301C6.2149 1.09307 6.2746 1.06502 6.33684 1.06502H10.092C10.1543 1.06502 10.214 1.09307 10.258 1.14301C10.302 1.19294 10.3267 1.26066 10.3267 1.33128V9.31895Z" fill="#494C4E"/>
</svg>
