<svg width="54" height="51" viewBox="0 0 54 51" fill="none" xmlns="http://www.w3.org/2000/svg">
<rect width="54" height="2" rx="1" fill="#EE8B6A"/>
<path d="M21.8987 27.2717L24.0383 26.6545L36.9204 13.6181C37.022 13.514 37.0786 13.3741 37.0779 13.2286C37.0772 13.0831 37.0193 12.9437 36.9167 12.8406L36.1452 12.0606C36.0954 12.0093 36.0358 11.9686 35.97 11.9406C35.9043 11.9126 35.8336 11.8981 35.7621 11.8977C35.6906 11.8974 35.6198 11.9113 35.5537 11.9386C35.4877 11.966 35.4277 12.0062 35.3774 12.0569L22.5293 25.0593L21.8975 27.2705L21.8987 27.2717ZM37.6724 10.5151L38.4439 11.2964C39.5082 12.374 39.5179 14.1126 38.4634 15.1793L25.1888 28.6143L20.6157 29.9313C20.3365 30.0094 20.0377 29.9736 19.7849 29.8317C19.5321 29.6898 19.3459 29.4534 19.2672 29.1744C19.2086 28.9737 19.2077 28.7607 19.2647 28.5596L20.5951 23.8942L33.8344 10.4945C34.0862 10.241 34.3859 10.0402 34.716 9.90373C35.0462 9.76727 35.4002 9.69793 35.7575 9.69974C36.1147 9.70155 36.4681 9.77448 36.7968 9.91426C37.1256 10.0541 37.4233 10.2579 37.6724 10.5139V10.5151ZM23.6774 11.916C24.28 11.916 24.7684 12.4105 24.7684 13.0204C24.7694 13.1645 24.7419 13.3075 24.6876 13.4411C24.6333 13.5746 24.5532 13.6961 24.4518 13.7987C24.3505 13.9013 24.23 13.9829 24.0971 14.0388C23.9642 14.0948 23.8216 14.124 23.6774 14.1248H19.3133C18.1081 14.1248 17.1313 15.1137 17.1313 16.3323V29.5826C17.1313 30.8024 18.1081 31.7914 19.3133 31.7914H32.4056C33.6109 31.7914 34.5889 30.8024 34.5889 29.5826V25.1662C34.5889 24.5563 35.0773 24.0618 35.6799 24.0618C36.2825 24.0618 36.7709 24.5563 36.7709 25.1674V29.5826C36.7709 32.0222 34.8161 34.0001 32.4056 34.0001H19.3133C16.9029 34.0001 14.9492 32.0222 14.9492 29.5826V16.3323C14.9492 13.8939 16.9029 11.916 19.3133 11.916H23.6774Z" fill="#ED9071"/>
<path d="M5.96 39.6401V47.0001H7.12V44.2101H8.23C8.63 44.2101 9 44.1635 9.34 44.0701C9.68 43.9768 9.97 43.8335 10.21 43.6401C10.4567 43.4468 10.65 43.2035 10.79 42.9101C10.93 42.6101 11 42.2601 11 41.8601C11 41.4468 10.93 41.1001 10.79 40.8201C10.65 40.5335 10.4567 40.3035 10.21 40.1301C9.96333 39.9568 9.66667 39.8335 9.32 39.7601C8.98 39.6801 8.60333 39.6401 8.19 39.6401H5.96ZM8.12 43.2801H7.12V40.5701H8.08C8.66667 40.5701 9.11 40.6635 9.41 40.8501C9.71 41.0368 9.86 41.3735 9.86 41.8601C9.86 42.3468 9.72 42.7068 9.44 42.9401C9.16667 43.1668 8.72667 43.2801 8.12 43.2801ZM15.2446 47.1301C15.7179 47.1301 16.1513 47.0435 16.5446 46.8701C16.9379 46.6901 17.2746 46.4335 17.5546 46.1001C17.8413 45.7668 18.0613 45.3635 18.2146 44.8901C18.3746 44.4168 18.4546 43.8835 18.4546 43.2901C18.4546 42.6968 18.3746 42.1668 18.2146 41.7001C18.0613 41.2268 17.8413 40.8301 17.5546 40.5101C17.2746 40.1835 16.9379 39.9335 16.5446 39.7601C16.1513 39.5868 15.7179 39.5001 15.2446 39.5001C14.7713 39.5001 14.3379 39.5868 13.9446 39.7601C13.5513 39.9335 13.2146 40.1835 12.9346 40.5101C12.6546 40.8301 12.4346 41.2268 12.2746 41.7001C12.1213 42.1668 12.0446 42.6968 12.0446 43.2901C12.0446 43.8835 12.1213 44.4168 12.2746 44.8901C12.4346 45.3635 12.6546 45.7668 12.9346 46.1001C13.2146 46.4335 13.5513 46.6901 13.9446 46.8701C14.3379 47.0435 14.7713 47.1301 15.2446 47.1301ZM15.2446 46.1201C14.9379 46.1201 14.6613 46.0535 14.4146 45.9201C14.1679 45.7868 13.9579 45.6001 13.7846 45.3601C13.6113 45.1135 13.4746 44.8168 13.3746 44.4701C13.2813 44.1168 13.2346 43.7235 13.2346 43.2901C13.2346 42.8568 13.2813 42.4701 13.3746 42.1301C13.4746 41.7835 13.6113 41.4901 13.7846 41.2501C13.9579 41.0101 14.1679 40.8268 14.4146 40.7001C14.6613 40.5735 14.9379 40.5101 15.2446 40.5101C15.5513 40.5101 15.8279 40.5735 16.0746 40.7001C16.3213 40.8268 16.5313 41.0101 16.7046 41.2501C16.8846 41.4901 17.0213 41.7835 17.1146 42.1301C17.2146 42.4701 17.2646 42.8568 17.2646 43.2901C17.2646 43.7235 17.2146 44.1168 17.1146 44.4701C17.0213 44.8168 16.8846 45.1135 16.7046 45.3601C16.5313 45.6001 16.3213 45.7868 16.0746 45.9201C15.8279 46.0535 15.5513 46.1201 15.2446 46.1201ZM22.0737 47.1301C22.4737 47.1301 22.8337 47.0735 23.1537 46.9601C23.4737 46.8468 23.7437 46.6935 23.9637 46.5001C24.1903 46.3068 24.3637 46.0801 24.4837 45.8201C24.6037 45.5601 24.6637 45.2835 24.6637 44.9901C24.6637 44.7168 24.627 44.4801 24.5537 44.2801C24.4803 44.0735 24.377 43.8901 24.2437 43.7301C24.1103 43.5701 23.9503 43.4335 23.7637 43.3201C23.5837 43.2001 23.3837 43.0935 23.1637 43.0001L22.1537 42.5701C22.007 42.5101 21.8603 42.4501 21.7137 42.3901C21.5737 42.3235 21.447 42.2468 21.3337 42.1601C21.227 42.0735 21.137 41.9768 21.0637 41.8701C20.997 41.7568 20.9637 41.6201 20.9637 41.4601C20.9637 41.1601 21.0737 40.9268 21.2937 40.7601C21.5203 40.5935 21.8237 40.5101 22.2037 40.5101C22.5303 40.5101 22.8237 40.5701 23.0837 40.6901C23.3437 40.8035 23.5903 40.9635 23.8237 41.1701L24.4337 40.4301C24.1537 40.1435 23.8203 39.9168 23.4337 39.7501C23.0537 39.5835 22.6437 39.5001 22.2037 39.5001C21.857 39.5001 21.5337 39.5535 21.2337 39.6601C20.9403 39.7601 20.6837 39.9001 20.4637 40.0801C20.2503 40.2601 20.0837 40.4735 19.9637 40.7201C19.8437 40.9668 19.7837 41.2368 19.7837 41.5301C19.7837 41.7968 19.827 42.0335 19.9137 42.2401C20.007 42.4468 20.1237 42.6301 20.2637 42.7901C20.4103 42.9435 20.5703 43.0768 20.7437 43.1901C20.9237 43.2968 21.1037 43.3868 21.2837 43.4601L22.3037 43.9001C22.477 43.9735 22.6337 44.0468 22.7737 44.1201C22.9203 44.1868 23.047 44.2635 23.1537 44.3501C23.2603 44.4368 23.3403 44.5401 23.3937 44.6601C23.4537 44.7735 23.4837 44.9135 23.4837 45.0801C23.4837 45.4001 23.3637 45.6535 23.1237 45.8401C22.8837 46.0268 22.5403 46.1201 22.0937 46.1201C21.7337 46.1201 21.3837 46.0435 21.0437 45.8901C20.7037 45.7301 20.4003 45.5168 20.1337 45.2501L19.4537 46.0501C19.7937 46.3901 20.187 46.6568 20.6337 46.8501C21.087 47.0368 21.567 47.1301 22.0737 47.1301ZM27.333 40.6101V47.0001H28.493V40.6101H30.663V39.6401H25.173V40.6101H27.333ZM31.9466 39.6401V47.0001H33.1066V39.6401H31.9466ZM35.0325 39.6401V47.0001H36.1325V43.5301C36.1325 43.1301 36.1158 42.7235 36.0825 42.3101C36.0492 41.8968 36.0158 41.5001 35.9825 41.1201H36.0325L36.8025 42.6601L39.2425 47.0001H40.4325V39.6401H39.3325V43.0701C39.3325 43.4701 39.3492 43.8835 39.3825 44.3101C39.4158 44.7368 39.4492 45.1401 39.4825 45.5201H39.4325L38.6625 43.9601L36.2225 39.6401H35.0325ZM45.3763 47.1301C45.8829 47.1301 46.3363 47.0501 46.7363 46.8901C47.1363 46.7235 47.4596 46.5168 47.7063 46.2701V43.0801H45.1963V44.0301H46.6563V45.7601C46.5229 45.8735 46.3529 45.9635 46.1463 46.0301C45.9396 46.0901 45.7229 46.1201 45.4963 46.1201C45.1163 46.1201 44.7796 46.0568 44.4863 45.9301C44.1996 45.7968 43.9563 45.6101 43.7563 45.3701C43.5629 45.1235 43.4163 44.8268 43.3163 44.4801C43.2163 44.1335 43.1663 43.7401 43.1663 43.3001C43.1663 42.8668 43.2196 42.4801 43.3263 42.1401C43.4396 41.7935 43.5963 41.5001 43.7963 41.2601C43.9963 41.0201 44.2363 40.8368 44.5163 40.7101C44.7963 40.5768 45.1063 40.5101 45.4463 40.5101C45.8063 40.5101 46.1029 40.5735 46.3363 40.7001C46.5763 40.8268 46.7863 40.9835 46.9663 41.1701L47.5963 40.4301C47.4829 40.3101 47.3529 40.1968 47.2063 40.0901C47.0663 39.9768 46.9063 39.8768 46.7263 39.7901C46.5462 39.7035 46.3463 39.6335 46.1263 39.5801C45.9063 39.5268 45.6663 39.5001 45.4063 39.5001C44.9196 39.5001 44.4663 39.5868 44.0462 39.7601C43.6263 39.9335 43.2629 40.1868 42.9563 40.5201C42.6496 40.8468 42.4096 41.2501 42.2363 41.7301C42.0629 42.2035 41.9763 42.7401 41.9763 43.3401C41.9763 43.9401 42.0596 44.4768 42.2263 44.9501C42.3996 45.4168 42.6363 45.8135 42.9363 46.1401C43.2363 46.4601 43.5929 46.7068 44.0063 46.8801C44.4263 47.0468 44.8829 47.1301 45.3763 47.1301Z" fill="#ED9071"/>
</svg>
