<svg width="67" height="63" viewBox="0 0 67 63" fill="none" xmlns="http://www.w3.org/2000/svg">
<path d="M26.3364 27.0192L29.5457 26.0934L48.8688 6.53876C49.0212 6.38257 49.1061 6.1727 49.1051 5.95447C49.1041 5.73624 49.0172 5.52716 48.8634 5.37241L47.7061 4.20241C47.6313 4.12558 47.542 4.0644 47.4433 4.02246C47.3446 3.98053 47.2386 3.95866 47.1314 3.95816C47.0242 3.95765 46.9179 3.9785 46.8188 4.0195C46.7198 4.0605 46.6299 4.12082 46.5543 4.19695L27.2822 23.7005L26.3346 27.0173L26.3364 27.0192ZM49.9969 1.88429L51.1541 3.05611C52.7506 4.6726 52.7652 7.28049 51.1833 8.88058L31.2715 29.0329L24.4119 31.0085C23.9931 31.1257 23.5449 31.072 23.1657 30.8591C22.7864 30.6463 22.5071 30.2916 22.389 29.8731C22.3011 29.5722 22.2999 29.2526 22.3854 28.9509L24.3809 21.9528L44.2399 1.85331C44.6175 1.47307 45.067 1.17184 45.5623 0.96716C46.0576 0.762484 46.5886 0.65847 47.1245 0.661185C47.6604 0.663899 48.1904 0.773287 48.6835 0.982968C49.1767 1.19265 49.6232 1.49843 49.9969 1.88247V1.88429ZM29.0044 3.98555C29.9083 3.98555 30.6409 4.72727 30.6409 5.64213C30.6424 5.85839 30.6012 6.07282 30.5197 6.27315C30.4382 6.47348 30.318 6.65578 30.166 6.80963C30.0141 6.96349 29.8332 7.08587 29.6339 7.16979C29.4346 7.25371 29.2207 7.29752 29.0044 7.29871H22.4583C20.6504 7.29871 19.1852 8.78217 19.1852 10.6101V30.4854C19.1852 32.3151 20.6504 33.7986 22.4583 33.7986H42.0967C43.9045 33.7986 45.3716 32.3151 45.3716 30.4854V23.8609C45.3716 22.9461 46.1042 22.2043 47.0081 22.2043C47.9121 22.2043 48.6447 22.9461 48.6447 23.8627V30.4854C48.6447 34.1449 45.7124 37.1118 42.0967 37.1118H22.4583C18.8426 37.1118 15.9121 34.1449 15.9121 30.4854V10.6101C15.9121 6.95245 18.8426 3.98555 22.4583 3.98555H29.0044Z" fill="#8C8C8C"/>
<path d="M2.42828 45.0733V56.1133H4.16828V51.9283H5.83328C6.43328 51.9283 6.98828 51.8583 7.49828 51.7183C8.00828 51.5783 8.44328 51.3633 8.80328 51.0733C9.17328 50.7833 9.46328 50.4183 9.67328 49.9783C9.88328 49.5283 9.98828 49.0033 9.98828 48.4033C9.98828 47.7833 9.88328 47.2633 9.67328 46.8433C9.46328 46.4133 9.17328 46.0683 8.80328 45.8083C8.43328 45.5483 7.98828 45.3633 7.46828 45.2533C6.95828 45.1333 6.39328 45.0733 5.77328 45.0733H2.42828ZM5.66828 50.5333H4.16828V46.4683H5.60828C6.48828 46.4683 7.15328 46.6083 7.60328 46.8883C8.05328 47.1683 8.27828 47.6733 8.27828 48.4033C8.27828 49.1333 8.06828 49.6733 7.64828 50.0233C7.23828 50.3633 6.57828 50.5333 5.66828 50.5333ZM16.3552 56.3083C17.0652 56.3083 17.7152 56.1783 18.3052 55.9183C18.8952 55.6483 19.4002 55.2633 19.8202 54.7633C20.2502 54.2633 20.5802 53.6583 20.8102 52.9483C21.0502 52.2383 21.1702 51.4383 21.1702 50.5483C21.1702 49.6583 21.0502 48.8633 20.8102 48.1633C20.5802 47.4533 20.2502 46.8583 19.8202 46.3783C19.4002 45.8883 18.8952 45.5133 18.3052 45.2533C17.7152 44.9933 17.0652 44.8633 16.3552 44.8633C15.6452 44.8633 14.9952 44.9933 14.4052 45.2533C13.8152 45.5133 13.3102 45.8883 12.8902 46.3783C12.4702 46.8583 12.1402 47.4533 11.9002 48.1633C11.6702 48.8633 11.5552 49.6583 11.5552 50.5483C11.5552 51.4383 11.6702 52.2383 11.9002 52.9483C12.1402 53.6583 12.4702 54.2633 12.8902 54.7633C13.3102 55.2633 13.8152 55.6483 14.4052 55.9183C14.9952 56.1783 15.6452 56.3083 16.3552 56.3083ZM16.3552 54.7933C15.8952 54.7933 15.4802 54.6933 15.1102 54.4933C14.7402 54.2933 14.4252 54.0133 14.1652 53.6533C13.9052 53.2833 13.7002 52.8383 13.5502 52.3183C13.4102 51.7883 13.3402 51.1983 13.3402 50.5483C13.3402 49.8983 13.4102 49.3183 13.5502 48.8083C13.7002 48.2883 13.9052 47.8483 14.1652 47.4883C14.4252 47.1283 14.7402 46.8533 15.1102 46.6633C15.4802 46.4733 15.8952 46.3783 16.3552 46.3783C16.8152 46.3783 17.2302 46.4733 17.6002 46.6633C17.9702 46.8533 18.2852 47.1283 18.5452 47.4883C18.8152 47.8483 19.0202 48.2883 19.1602 48.8083C19.3102 49.3183 19.3852 49.8983 19.3852 50.5483C19.3852 51.1983 19.3102 51.7883 19.1602 52.3183C19.0202 52.8383 18.8152 53.2833 18.5452 53.6533C18.2852 54.0133 17.9702 54.2933 17.6002 54.4933C17.2302 54.6933 16.8152 54.7933 16.3552 54.7933ZM26.5988 56.3083C27.1988 56.3083 27.7388 56.2233 28.2188 56.0533C28.6988 55.8833 29.1038 55.6533 29.4338 55.3633C29.7738 55.0733 30.0338 54.7333 30.2138 54.3433C30.3938 53.9533 30.4838 53.5383 30.4838 53.0983C30.4838 52.6883 30.4288 52.3333 30.3188 52.0333C30.2088 51.7233 30.0538 51.4483 29.8538 51.2083C29.6538 50.9683 29.4138 50.7633 29.1338 50.5933C28.8638 50.4133 28.5638 50.2533 28.2338 50.1133L26.7188 49.4683C26.4988 49.3783 26.2788 49.2883 26.0588 49.1983C25.8488 49.0983 25.6588 48.9833 25.4888 48.8533C25.3288 48.7233 25.1938 48.5783 25.0838 48.4183C24.9838 48.2483 24.9338 48.0433 24.9338 47.8033C24.9338 47.3533 25.0988 47.0033 25.4288 46.7533C25.7688 46.5033 26.2238 46.3783 26.7938 46.3783C27.2838 46.3783 27.7238 46.4683 28.1138 46.6483C28.5038 46.8183 28.8738 47.0583 29.2238 47.3683L30.1388 46.2583C29.7188 45.8283 29.2188 45.4883 28.6388 45.2383C28.0688 44.9883 27.4538 44.8633 26.7938 44.8633C26.2738 44.8633 25.7888 44.9433 25.3388 45.1033C24.8988 45.2533 24.5138 45.4633 24.1838 45.7333C23.8638 46.0033 23.6138 46.3233 23.4338 46.6933C23.2538 47.0633 23.1638 47.4683 23.1638 47.9083C23.1638 48.3083 23.2288 48.6633 23.3588 48.9733C23.4988 49.2833 23.6738 49.5583 23.8838 49.7983C24.1038 50.0283 24.3438 50.2283 24.6038 50.3983C24.8738 50.5583 25.1438 50.6933 25.4138 50.8033L26.9438 51.4633C27.2038 51.5733 27.4388 51.6833 27.6488 51.7933C27.8688 51.8933 28.0588 52.0083 28.2188 52.1383C28.3788 52.2683 28.4988 52.4233 28.5788 52.6033C28.6688 52.7733 28.7138 52.9833 28.7138 53.2333C28.7138 53.7133 28.5338 54.0933 28.1738 54.3733C27.8138 54.6533 27.2988 54.7933 26.6288 54.7933C26.0888 54.7933 25.5638 54.6783 25.0538 54.4483C24.5438 54.2083 24.0888 53.8883 23.6888 53.4883L22.6688 54.6883C23.1788 55.1983 23.7688 55.5983 24.4388 55.8883C25.1188 56.1683 25.8388 56.3083 26.5988 56.3083ZM34.4878 46.5283V56.1133H36.2278V46.5283H39.4828V45.0733H31.2478V46.5283H34.4878ZM41.4081 45.0733V56.1133H43.1481V45.0733H41.4081ZM46.037 45.0733V56.1133H47.687V50.9083C47.687 50.3083 47.662 49.6983 47.612 49.0783C47.562 48.4583 47.512 47.8633 47.462 47.2933H47.537L48.692 49.6033L52.352 56.1133H54.137V45.0733H52.487V50.2183C52.487 50.8183 52.512 51.4383 52.562 52.0783C52.612 52.7183 52.662 53.3233 52.712 53.8933H52.637L51.482 51.5533L47.822 45.0733H46.037ZM61.5526 56.3083C62.3126 56.3083 62.9926 56.1883 63.5926 55.9483C64.1926 55.6983 64.6776 55.3883 65.0476 55.0183V50.2333H61.2826V51.6583H63.4726V54.2533C63.2726 54.4233 63.0176 54.5583 62.7076 54.6583C62.3976 54.7483 62.0726 54.7933 61.7326 54.7933C61.1626 54.7933 60.6576 54.6983 60.2176 54.5083C59.7876 54.3083 59.4226 54.0283 59.1226 53.6683C58.8326 53.2983 58.6126 52.8533 58.4626 52.3333C58.3126 51.8133 58.2376 51.2233 58.2376 50.5633C58.2376 49.9133 58.3176 49.3333 58.4776 48.8233C58.6476 48.3033 58.8826 47.8633 59.1826 47.5033C59.4826 47.1433 59.8426 46.8683 60.2626 46.6783C60.6826 46.4783 61.1476 46.3783 61.6576 46.3783C62.1976 46.3783 62.6426 46.4733 62.9926 46.6633C63.3526 46.8533 63.6676 47.0883 63.9376 47.3683L64.8826 46.2583C64.7126 46.0783 64.5176 45.9083 64.2976 45.7483C64.0876 45.5783 63.8476 45.4283 63.5776 45.2983C63.3076 45.1683 63.0076 45.0633 62.6776 44.9833C62.3476 44.9033 61.9876 44.8633 61.5976 44.8633C60.8676 44.8633 60.1876 44.9933 59.5576 45.2533C58.9276 45.5133 58.3826 45.8933 57.9226 46.3933C57.4626 46.8833 57.1026 47.4883 56.8426 48.2083C56.5826 48.9183 56.4526 49.7233 56.4526 50.6233C56.4526 51.5233 56.5776 52.3283 56.8276 53.0383C57.0876 53.7383 57.4426 54.3333 57.8926 54.8233C58.3426 55.3033 58.8776 55.6733 59.4976 55.9333C60.1276 56.1833 60.8126 56.3083 61.5526 56.3083Z" fill="#8C8C8C"/>
</svg>
