<svg width="18" height="17" viewBox="0 0 18 17" fill="none" xmlns="http://www.w3.org/2000/svg">
<path fill-rule="evenodd" clip-rule="evenodd" d="M6.25583 6.08972H4.14355C3.95681 6.08972 3.77772 6.00557 3.64568 5.85577C3.51363 5.70597 3.43945 5.5028 3.43945 5.29095C3.43945 5.07911 3.51363 4.87594 3.64568 4.72614C3.77772 4.57634 3.95681 4.49219 4.14355 4.49219H6.25583C6.44256 4.49219 6.62165 4.57634 6.7537 4.72614C6.88574 4.87594 6.95992 5.07911 6.95992 5.29095C6.95992 5.5028 6.88574 5.70597 6.7537 5.85577C6.62165 6.00557 6.44256 6.08972 6.25583 6.08972V6.08972ZM6.25583 9.28479H4.14355C3.95681 9.28479 3.77772 9.20063 3.64568 9.05083C3.51363 8.90104 3.43945 8.69787 3.43945 8.48602C3.43945 8.27418 3.51363 8.07101 3.64568 7.92121C3.77772 7.77141 3.95681 7.68725 4.14355 7.68725H6.25583C6.44256 7.68725 6.62165 7.77141 6.7537 7.92121C6.88574 8.07101 6.95992 8.27418 6.95992 8.48602C6.95992 8.69787 6.88574 8.90104 6.7537 9.05083C6.62165 9.20063 6.44256 9.28479 6.25583 9.28479V9.28479ZM6.25583 12.4799H4.14355C3.95681 12.4799 3.77772 12.3957 3.64568 12.2459C3.51363 12.0961 3.43945 11.8929 3.43945 11.6811C3.43945 11.4692 3.51363 11.2661 3.64568 11.1163C3.77772 10.9665 3.95681 10.8823 4.14355 10.8823H6.25583C6.44256 10.8823 6.62165 10.9665 6.7537 11.1163C6.88574 11.2661 6.95992 11.4692 6.95992 11.6811C6.95992 11.8929 6.88574 12.0961 6.7537 12.2459C6.62165 12.3957 6.44256 12.4799 6.25583 12.4799V12.4799ZM11.8886 6.08972H14.0009C14.1876 6.08972 14.3667 6.00557 14.4987 5.85577C14.6308 5.70597 14.7049 5.5028 14.7049 5.29095C14.7049 5.07911 14.6308 4.87594 14.4987 4.72614C14.3667 4.57634 14.1876 4.49219 14.0009 4.49219H11.8886C11.7018 4.49219 11.5227 4.57634 11.3907 4.72614C11.2587 4.87594 11.1845 5.07911 11.1845 5.29095C11.1845 5.5028 11.2587 5.70597 11.3907 5.85577C11.5227 6.00557 11.7018 6.08972 11.8886 6.08972V6.08972ZM11.8886 9.28479H14.0009C14.1876 9.28479 14.3667 9.20063 14.4987 9.05083C14.6308 8.90104 14.7049 8.69787 14.7049 8.48602C14.7049 8.27418 14.6308 8.07101 14.4987 7.92121C14.3667 7.77141 14.1876 7.68725 14.0009 7.68725H11.8886C11.7018 7.68725 11.5227 7.77141 11.3907 7.92121C11.2587 8.07101 11.1845 8.27418 11.1845 8.48602C11.1845 8.69787 11.2587 8.90104 11.3907 9.05083C11.5227 9.20063 11.7018 9.28479 11.8886 9.28479V9.28479ZM11.8886 12.4799H14.0009C14.1876 12.4799 14.3667 12.3957 14.4987 12.2459C14.6308 12.0961 14.7049 11.8929 14.7049 11.6811C14.7049 11.4692 14.6308 11.2661 14.4987 11.1163C14.3667 10.9665 14.1876 10.8823 14.0009 10.8823H11.8886C11.7018 10.8823 11.5227 10.9665 11.3907 11.1163C11.2587 11.2661 11.1845 11.4692 11.1845 11.6811C11.1845 11.8929 11.2587 12.0961 11.3907 12.2459C11.5227 12.3957 11.7018 12.4799 11.8886 12.4799V12.4799Z" fill="#494C4E"/>
<path fill-rule="evenodd" clip-rule="evenodd" d="M16.1151 0.499023H9.77821C9.53108 0.499023 9.28817 0.573309 9.07412 0.71469C8.86027 0.573694 8.61737 0.499295 8.37003 0.499023H2.03319C1.66006 0.500288 1.30252 0.669005 1.03868 0.968327C0.774834 1.26765 0.626114 1.67325 0.625 2.09656L0.625 14.8768C0.626114 15.3001 0.774834 15.7057 1.03868 16.0051C1.30252 16.3044 1.66006 16.4731 2.03319 16.4744H8.37003C8.60942 16.4768 8.84599 16.4049 9.053 16.2667C9.05909 16.2615 9.0665 16.2587 9.07412 16.2587C9.08174 16.2587 9.08915 16.2615 9.09524 16.2667C9.30225 16.4049 9.53882 16.4768 9.77821 16.4744H16.1151C16.4882 16.4731 16.8457 16.3044 17.1096 16.0051C17.3734 15.7057 17.5221 15.3001 17.5232 14.8768V2.09656C17.5221 1.67325 17.3734 1.26765 17.1096 0.968327C16.8457 0.669005 16.4882 0.500288 16.1151 0.499023V0.499023ZM8.01798 14.8768H2.38523C2.29186 14.8768 2.20232 14.8347 2.1363 14.7598C2.07028 14.685 2.03319 14.5834 2.03319 14.4774V2.49594C2.03319 2.39002 2.07028 2.28843 2.1363 2.21353C2.20232 2.13863 2.29186 2.09656 2.38523 2.09656H8.01798C8.11135 2.09656 8.20089 2.13863 8.26692 2.21353C8.33294 2.28843 8.37003 2.39002 8.37003 2.49594V14.4774C8.37003 14.5834 8.33294 14.685 8.26692 14.7598C8.20089 14.8347 8.11135 14.8768 8.01798 14.8768ZM16.1151 14.4774C16.1151 14.5834 16.078 14.685 16.0119 14.7598C15.9459 14.8347 15.8564 14.8768 15.763 14.8768H10.1303C10.0369 14.8768 9.94735 14.8347 9.88133 14.7598C9.8153 14.685 9.77821 14.5834 9.77821 14.4774V2.49594C9.77821 2.39002 9.8153 2.28843 9.88133 2.21353C9.94735 2.13863 10.0369 2.09656 10.1303 2.09656H15.763C15.8564 2.09656 15.9459 2.13863 16.0119 2.21353C16.078 2.28843 16.1151 2.39002 16.1151 2.49594V14.4774Z" fill="#494C4E"/>
</svg>
