<svg width="82" height="77" viewBox="0 0 82 77" fill="none" xmlns="http://www.w3.org/2000/svg">
<rect x="0.488281" y="0.112305" width="81" height="3" rx="1.5" fill="#EE8B6A"/>
<path d="M33.3364 41.0182L36.5457 40.0924L55.8688 20.5378C56.0212 20.3816 56.1061 20.1717 56.1051 19.9535C56.1041 19.7353 56.0172 19.5262 55.8634 19.3714L54.7061 18.2014C54.6313 18.1246 54.542 18.0634 54.4433 18.0215C54.3446 17.9795 54.2386 17.9577 54.1314 17.9572C54.0242 17.9567 53.9179 17.9775 53.8188 18.0185C53.7198 18.0595 53.6299 18.1198 53.5543 18.196L34.2822 37.6996L33.3346 41.0164L33.3364 41.0182ZM56.9969 15.8833L58.1541 17.0551C59.7506 18.6716 59.7652 21.2795 58.1833 22.8796L38.2715 43.032L31.4119 45.0075C30.9931 45.1247 30.5449 45.071 30.1657 44.8581C29.7864 44.6453 29.5071 44.2907 29.389 43.8721C29.3011 43.5712 29.2999 43.2516 29.3854 42.95L31.3809 35.9519L51.2399 15.8523C51.6175 15.4721 52.067 15.1709 52.5623 14.9662C53.0576 14.7615 53.5886 14.6575 54.1245 14.6602C54.6604 14.6629 55.1904 14.7723 55.6835 14.982C56.1767 15.1917 56.6232 15.4975 56.9969 15.8815V15.8833ZM36.0044 17.9846C36.9083 17.9846 37.6409 18.7263 37.6409 19.6412C37.6424 19.8574 37.6012 20.0718 37.5197 20.2722C37.4382 20.4725 37.318 20.6548 37.166 20.8087C37.0141 20.9625 36.8332 21.0849 36.6339 21.1688C36.4346 21.2527 36.2207 21.2965 36.0044 21.2977H29.4583C27.6504 21.2977 26.1852 22.7812 26.1852 24.6091V44.4844C26.1852 46.3142 27.6504 47.7976 29.4583 47.7976H49.0967C50.9045 47.7976 52.3716 46.3142 52.3716 44.4844V37.8599C52.3716 36.9451 53.1042 36.2033 54.0081 36.2033C54.9121 36.2033 55.6447 36.9451 55.6447 37.8618V44.4844C55.6447 48.1439 52.7124 51.1108 49.0967 51.1108H29.4583C25.8426 51.1108 22.9121 48.1439 22.9121 44.4844V24.6091C22.9121 20.9515 25.8426 17.9846 29.4583 17.9846H36.0044Z" fill="#ED9071"/>
<path d="M9.42828 59.0713V70.1113H11.1683V65.9263H12.8333C13.4333 65.9263 13.9883 65.8563 14.4983 65.7163C15.0083 65.5763 15.4433 65.3613 15.8033 65.0713C16.1733 64.7813 16.4633 64.4163 16.6733 63.9763C16.8833 63.5263 16.9883 63.0013 16.9883 62.4013C16.9883 61.7813 16.8833 61.2613 16.6733 60.8413C16.4633 60.4113 16.1733 60.0663 15.8033 59.8063C15.4333 59.5463 14.9883 59.3613 14.4683 59.2513C13.9583 59.1313 13.3933 59.0713 12.7733 59.0713H9.42828ZM12.6683 64.5313H11.1683V60.4663H12.6083C13.4883 60.4663 14.1533 60.6063 14.6033 60.8863C15.0533 61.1663 15.2783 61.6713 15.2783 62.4013C15.2783 63.1313 15.0683 63.6713 14.6483 64.0213C14.2383 64.3613 13.5783 64.5313 12.6683 64.5313ZM23.3552 70.3063C24.0652 70.3063 24.7152 70.1763 25.3052 69.9163C25.8952 69.6463 26.4002 69.2613 26.8202 68.7613C27.2502 68.2613 27.5802 67.6563 27.8102 66.9463C28.0502 66.2363 28.1702 65.4363 28.1702 64.5463C28.1702 63.6563 28.0502 62.8613 27.8102 62.1613C27.5802 61.4513 27.2502 60.8563 26.8202 60.3763C26.4002 59.8863 25.8952 59.5113 25.3052 59.2513C24.7152 58.9913 24.0652 58.8613 23.3552 58.8613C22.6452 58.8613 21.9952 58.9913 21.4052 59.2513C20.8152 59.5113 20.3102 59.8863 19.8902 60.3763C19.4702 60.8563 19.1402 61.4513 18.9002 62.1613C18.6702 62.8613 18.5552 63.6563 18.5552 64.5463C18.5552 65.4363 18.6702 66.2363 18.9002 66.9463C19.1402 67.6563 19.4702 68.2613 19.8902 68.7613C20.3102 69.2613 20.8152 69.6463 21.4052 69.9163C21.9952 70.1763 22.6452 70.3063 23.3552 70.3063ZM23.3552 68.7913C22.8952 68.7913 22.4802 68.6913 22.1102 68.4913C21.7402 68.2913 21.4252 68.0113 21.1652 67.6513C20.9052 67.2813 20.7002 66.8363 20.5502 66.3163C20.4102 65.7863 20.3402 65.1963 20.3402 64.5463C20.3402 63.8963 20.4102 63.3163 20.5502 62.8063C20.7002 62.2863 20.9052 61.8463 21.1652 61.4863C21.4252 61.1263 21.7402 60.8513 22.1102 60.6613C22.4802 60.4713 22.8952 60.3763 23.3552 60.3763C23.8152 60.3763 24.2302 60.4713 24.6002 60.6613C24.9702 60.8513 25.2852 61.1263 25.5452 61.4863C25.8152 61.8463 26.0202 62.2863 26.1602 62.8063C26.3102 63.3163 26.3852 63.8963 26.3852 64.5463C26.3852 65.1963 26.3102 65.7863 26.1602 66.3163C26.0202 66.8363 25.8152 67.2813 25.5452 67.6513C25.2852 68.0113 24.9702 68.2913 24.6002 68.4913C24.2302 68.6913 23.8152 68.7913 23.3552 68.7913ZM33.5988 70.3063C34.1988 70.3063 34.7388 70.2213 35.2188 70.0513C35.6988 69.8813 36.1038 69.6513 36.4338 69.3613C36.7738 69.0713 37.0338 68.7313 37.2138 68.3413C37.3938 67.9513 37.4838 67.5363 37.4838 67.0963C37.4838 66.6863 37.4288 66.3313 37.3188 66.0313C37.2088 65.7213 37.0538 65.4463 36.8538 65.2063C36.6538 64.9663 36.4138 64.7613 36.1338 64.5913C35.8638 64.4113 35.5638 64.2513 35.2338 64.1113L33.7188 63.4663C33.4988 63.3763 33.2788 63.2863 33.0588 63.1963C32.8488 63.0963 32.6588 62.9813 32.4888 62.8513C32.3288 62.7213 32.1938 62.5763 32.0838 62.4163C31.9838 62.2463 31.9338 62.0413 31.9338 61.8013C31.9338 61.3513 32.0988 61.0013 32.4288 60.7513C32.7688 60.5013 33.2238 60.3763 33.7938 60.3763C34.2838 60.3763 34.7238 60.4663 35.1138 60.6463C35.5038 60.8163 35.8738 61.0563 36.2238 61.3663L37.1388 60.2563C36.7188 59.8263 36.2188 59.4863 35.6388 59.2363C35.0688 58.9863 34.4538 58.8613 33.7938 58.8613C33.2738 58.8613 32.7888 58.9413 32.3388 59.1013C31.8988 59.2513 31.5138 59.4613 31.1838 59.7313C30.8638 60.0013 30.6138 60.3213 30.4338 60.6913C30.2538 61.0613 30.1638 61.4663 30.1638 61.9063C30.1638 62.3063 30.2288 62.6613 30.3588 62.9713C30.4988 63.2813 30.6738 63.5563 30.8838 63.7963C31.1038 64.0263 31.3438 64.2263 31.6038 64.3963C31.8738 64.5563 32.1438 64.6913 32.4138 64.8013L33.9438 65.4613C34.2038 65.5713 34.4388 65.6813 34.6488 65.7913C34.8688 65.8913 35.0588 66.0063 35.2188 66.1363C35.3788 66.2663 35.4988 66.4213 35.5788 66.6013C35.6688 66.7713 35.7138 66.9813 35.7138 67.2313C35.7138 67.7113 35.5338 68.0913 35.1738 68.3713C34.8138 68.6513 34.2988 68.7913 33.6288 68.7913C33.0888 68.7913 32.5638 68.6763 32.0538 68.4463C31.5438 68.2063 31.0888 67.8863 30.6888 67.4863L29.6688 68.6863C30.1788 69.1963 30.7688 69.5963 31.4388 69.8863C32.1188 70.1663 32.8388 70.3063 33.5988 70.3063ZM41.4878 60.5263V70.1113H43.2278V60.5263H46.4828V59.0713H38.2478V60.5263H41.4878ZM48.4081 59.0713V70.1113H50.1481V59.0713H48.4081ZM53.037 59.0713V70.1113H54.687V64.9063C54.687 64.3063 54.662 63.6963 54.612 63.0763C54.562 62.4563 54.512 61.8613 54.462 61.2913H54.537L55.692 63.6013L59.352 70.1113H61.137V59.0713H59.487V64.2163C59.487 64.8163 59.512 65.4363 59.562 66.0763C59.612 66.7163 59.662 67.3213 59.712 67.8913H59.637L58.482 65.5513L54.822 59.0713H53.037ZM68.5526 70.3063C69.3126 70.3063 69.9926 70.1863 70.5926 69.9463C71.1926 69.6963 71.6776 69.3863 72.0476 69.0163V64.2313H68.2826V65.6563H70.4726V68.2513C70.2726 68.4213 70.0176 68.5563 69.7076 68.6563C69.3976 68.7463 69.0726 68.7913 68.7326 68.7913C68.1626 68.7913 67.6576 68.6963 67.2176 68.5063C66.7876 68.3063 66.4226 68.0263 66.1226 67.6663C65.8326 67.2963 65.6126 66.8513 65.4626 66.3313C65.3126 65.8113 65.2376 65.2213 65.2376 64.5613C65.2376 63.9113 65.3176 63.3313 65.4776 62.8213C65.6476 62.3013 65.8826 61.8613 66.1826 61.5013C66.4826 61.1413 66.8426 60.8663 67.2626 60.6763C67.6826 60.4763 68.1476 60.3763 68.6576 60.3763C69.1976 60.3763 69.6426 60.4713 69.9926 60.6613C70.3526 60.8513 70.6676 61.0863 70.9376 61.3663L71.8826 60.2563C71.7126 60.0763 71.5176 59.9063 71.2976 59.7463C71.0876 59.5763 70.8476 59.4263 70.5776 59.2963C70.3076 59.1663 70.0076 59.0613 69.6776 58.9813C69.3476 58.9013 68.9876 58.8613 68.5976 58.8613C67.8676 58.8613 67.1876 58.9913 66.5576 59.2513C65.9276 59.5113 65.3826 59.8913 64.9226 60.3913C64.4626 60.8813 64.1026 61.4863 63.8426 62.2063C63.5826 62.9163 63.4526 63.7213 63.4526 64.6213C63.4526 65.5213 63.5776 66.3263 63.8276 67.0363C64.0876 67.7363 64.4426 68.3313 64.8926 68.8213C65.3426 69.3013 65.8776 69.6713 66.4976 69.9313C67.1276 70.1813 67.8126 70.3063 68.5526 70.3063Z" fill="#ED9071"/>
</svg>
