<svg width="7" height="10" viewBox="0 0 7 10" fill="none" xmlns="http://www.w3.org/2000/svg">
<path d="M6.10082 3.5C6.10082 1.567 4.73511 0 3.05041 0C1.36571 0 0 1.567 0 3.5C0 4.1935 0.178667 4.8385 0.481529 5.3825H0.478043C1.50647 7.23 3.05041 10 3.05041 10L5.62278 5.3825H5.61973C5.92215 4.8385 6.10082 4.1935 6.10082 3.5ZM3.05041 5C2.32833 5 1.74309 4.3285 1.74309 3.5C1.74309 2.6715 2.32833 2 3.05041 2C3.77248 2 4.35773 2.6715 4.35773 3.5C4.35773 4.3285 3.77248 5 3.05041 5Z" fill="#696969"/>
</svg>
