<svg width="44" height="42" viewBox="0 0 44 42" fill="none" xmlns="http://www.w3.org/2000/svg">
<path d="M16.8987 17.572L19.0383 16.9548L31.9204 3.91842C32.022 3.8143 32.0786 3.67438 32.0779 3.52889C32.0772 3.3834 32.0193 3.24402 31.9167 3.14085L31.1452 2.36086C31.0954 2.30963 31.0358 2.26885 30.97 2.24089C30.9043 2.21293 30.8336 2.19836 30.7621 2.19802C30.6906 2.19768 30.6198 2.21158 30.5537 2.23891C30.4877 2.26624 30.4277 2.30646 30.3774 2.35721L17.5293 15.3596L16.8975 17.5708L16.8987 17.572ZM32.6724 0.815439L33.4439 1.59665C34.5082 2.67431 34.5179 4.41291 33.4634 5.47963L20.1888 18.9146L15.6157 20.2316C15.3365 20.3097 15.0377 20.2739 14.7849 20.132C14.5321 19.9901 14.3459 19.7537 14.2672 19.4746C14.2086 19.274 14.2077 19.061 14.2647 18.8599L15.5951 14.1945L28.8344 0.794785C29.0862 0.541295 29.3859 0.340468 29.716 0.204018C30.0462 0.0675677 30.4002 -0.00177493 30.7575 3.45202e-05C31.1147 0.00184397 31.4681 0.0747693 31.7968 0.214557C32.1256 0.354345 32.4233 0.558197 32.6724 0.814224V0.815439ZM18.6774 2.21628C19.28 2.21628 19.7684 2.71076 19.7684 3.32067C19.7694 3.46484 19.7419 3.60779 19.6876 3.74135C19.6333 3.8749 19.5532 3.99643 19.4518 4.099C19.3505 4.20157 19.23 4.28316 19.0971 4.33911C18.9642 4.39506 18.8216 4.42426 18.6774 4.42506H14.3133C13.1081 4.42506 12.1313 5.41403 12.1313 6.63262V19.8829C12.1313 21.1027 13.1081 22.0916 14.3133 22.0916H27.4056C28.6109 22.0916 29.5889 21.1027 29.5889 19.8829V15.4665C29.5889 14.8566 30.0773 14.3621 30.6799 14.3621C31.2825 14.3621 31.7709 14.8566 31.7709 15.4677V19.8829C31.7709 22.3225 29.8161 24.3004 27.4056 24.3004H14.3133C11.9029 24.3004 9.94922 22.3225 9.94922 19.8829V6.63262C9.94922 4.19422 11.9029 2.21628 14.3133 2.21628H18.6774Z" fill="#ED9071"/>
<path d="M0.96 29.9408V37.3008H2.12V34.5108H3.23C3.63 34.5108 4 34.4641 4.34 34.3708C4.68 34.2774 4.97 34.1341 5.21 33.9408C5.45667 33.7474 5.65 33.5041 5.79 33.2108C5.93 32.9108 6 32.5608 6 32.1608C6 31.7474 5.93 31.4008 5.79 31.1208C5.65 30.8341 5.45667 30.6041 5.21 30.4308C4.96333 30.2574 4.66667 30.1341 4.32 30.0608C3.98 29.9808 3.60333 29.9408 3.19 29.9408H0.96ZM3.12 33.5808H2.12V30.8708H3.08C3.66667 30.8708 4.11 30.9641 4.41 31.1508C4.71 31.3374 4.86 31.6741 4.86 32.1608C4.86 32.6474 4.72 33.0074 4.44 33.2408C4.16667 33.4674 3.72667 33.5808 3.12 33.5808ZM10.2446 37.4308C10.7179 37.4308 11.1513 37.3441 11.5446 37.1708C11.9379 36.9908 12.2746 36.7341 12.5546 36.4008C12.8413 36.0674 13.0613 35.6641 13.2146 35.1908C13.3746 34.7174 13.4546 34.1841 13.4546 33.5908C13.4546 32.9974 13.3746 32.4674 13.2146 32.0008C13.0613 31.5274 12.8413 31.1308 12.5546 30.8108C12.2746 30.4841 11.9379 30.2341 11.5446 30.0608C11.1513 29.8874 10.7179 29.8008 10.2446 29.8008C9.77128 29.8008 9.33794 29.8874 8.94461 30.0608C8.55128 30.2341 8.21461 30.4841 7.93461 30.8108C7.65461 31.1308 7.43461 31.5274 7.27461 32.0008C7.12128 32.4674 7.04461 32.9974 7.04461 33.5908C7.04461 34.1841 7.12128 34.7174 7.27461 35.1908C7.43461 35.6641 7.65461 36.0674 7.93461 36.4008C8.21461 36.7341 8.55128 36.9908 8.94461 37.1708C9.33794 37.3441 9.77128 37.4308 10.2446 37.4308ZM10.2446 36.4208C9.93794 36.4208 9.66128 36.3541 9.41461 36.2208C9.16794 36.0874 8.95794 35.9008 8.78461 35.6608C8.61128 35.4141 8.47461 35.1174 8.37461 34.7708C8.28128 34.4174 8.23461 34.0241 8.23461 33.5908C8.23461 33.1574 8.28128 32.7708 8.37461 32.4308C8.47461 32.0841 8.61128 31.7908 8.78461 31.5508C8.95794 31.3108 9.16794 31.1274 9.41461 31.0008C9.66128 30.8741 9.93794 30.8108 10.2446 30.8108C10.5513 30.8108 10.8279 30.8741 11.0746 31.0008C11.3213 31.1274 11.5313 31.3108 11.7046 31.5508C11.8846 31.7908 12.0213 32.0841 12.1146 32.4308C12.2146 32.7708 12.2646 33.1574 12.2646 33.5908C12.2646 34.0241 12.2146 34.4174 12.1146 34.7708C12.0213 35.1174 11.8846 35.4141 11.7046 35.6608C11.5313 35.9008 11.3213 36.0874 11.0746 36.2208C10.8279 36.3541 10.5513 36.4208 10.2446 36.4208ZM17.0737 37.4308C17.4737 37.4308 17.8337 37.3741 18.1537 37.2608C18.4737 37.1474 18.7437 36.9941 18.9637 36.8008C19.1903 36.6074 19.3637 36.3808 19.4837 36.1208C19.6037 35.8608 19.6637 35.5841 19.6637 35.2908C19.6637 35.0174 19.627 34.7808 19.5537 34.5808C19.4803 34.3741 19.377 34.1908 19.2437 34.0308C19.1103 33.8708 18.9503 33.7341 18.7637 33.6208C18.5837 33.5008 18.3837 33.3941 18.1637 33.3008L17.1537 32.8708C17.007 32.8108 16.8603 32.7508 16.7137 32.6908C16.5737 32.6241 16.447 32.5474 16.3337 32.4608C16.227 32.3741 16.137 32.2774 16.0637 32.1708C15.997 32.0574 15.9637 31.9208 15.9637 31.7608C15.9637 31.4608 16.0737 31.2274 16.2937 31.0608C16.5203 30.8941 16.8237 30.8108 17.2037 30.8108C17.5303 30.8108 17.8237 30.8708 18.0837 30.9908C18.3437 31.1041 18.5903 31.2641 18.8237 31.4708L19.4337 30.7308C19.1537 30.4441 18.8203 30.2174 18.4337 30.0508C18.0537 29.8841 17.6437 29.8008 17.2037 29.8008C16.857 29.8008 16.5337 29.8541 16.2337 29.9608C15.9403 30.0608 15.6837 30.2008 15.4637 30.3808C15.2503 30.5608 15.0837 30.7741 14.9637 31.0208C14.8437 31.2674 14.7837 31.5374 14.7837 31.8308C14.7837 32.0974 14.827 32.3341 14.9137 32.5408C15.007 32.7474 15.1237 32.9308 15.2637 33.0908C15.4103 33.2441 15.5703 33.3774 15.7437 33.4908C15.9237 33.5974 16.1037 33.6874 16.2837 33.7608L17.3037 34.2008C17.477 34.2741 17.6337 34.3474 17.7737 34.4208C17.9203 34.4874 18.047 34.5641 18.1537 34.6508C18.2603 34.7374 18.3403 34.8408 18.3937 34.9608C18.4537 35.0741 18.4837 35.2141 18.4837 35.3808C18.4837 35.7008 18.3637 35.9541 18.1237 36.1408C17.8837 36.3274 17.5403 36.4208 17.0937 36.4208C16.7337 36.4208 16.3837 36.3441 16.0437 36.1908C15.7037 36.0308 15.4003 35.8174 15.1337 35.5508L14.4537 36.3508C14.7937 36.6908 15.187 36.9574 15.6337 37.1508C16.087 37.3374 16.567 37.4308 17.0737 37.4308ZM22.333 30.9108V37.3008H23.493V30.9108H25.663V29.9408H20.173V30.9108H22.333ZM26.9466 29.9408V37.3008H28.1066V29.9408H26.9466ZM30.0325 29.9408V37.3008H31.1325V33.8308C31.1325 33.4308 31.1158 33.0241 31.0825 32.6108C31.0492 32.1974 31.0158 31.8008 30.9825 31.4208H31.0325L31.8025 32.9608L34.2425 37.3008H35.4325V29.9408H34.3325V33.3708C34.3325 33.7708 34.3492 34.1841 34.3825 34.6108C34.4158 35.0374 34.4492 35.4408 34.4825 35.8208H34.4325L33.6625 34.2608L31.2225 29.9408H30.0325ZM40.3763 37.4308C40.8829 37.4308 41.3363 37.3508 41.7363 37.1908C42.1363 37.0241 42.4596 36.8174 42.7063 36.5708V33.3808H40.1963V34.3308H41.6563V36.0608C41.5229 36.1741 41.3529 36.2641 41.1463 36.3308C40.9396 36.3908 40.7229 36.4208 40.4963 36.4208C40.1163 36.4208 39.7796 36.3574 39.4863 36.2308C39.1996 36.0974 38.9563 35.9108 38.7563 35.6708C38.5629 35.4241 38.4163 35.1274 38.3163 34.7808C38.2163 34.4341 38.1663 34.0408 38.1663 33.6008C38.1663 33.1674 38.2196 32.7808 38.3263 32.4408C38.4396 32.0941 38.5963 31.8008 38.7963 31.5608C38.9963 31.3208 39.2363 31.1374 39.5163 31.0108C39.7963 30.8774 40.1063 30.8108 40.4463 30.8108C40.8063 30.8108 41.1029 30.8741 41.3363 31.0008C41.5763 31.1274 41.7863 31.2841 41.9663 31.4708L42.5963 30.7308C42.4829 30.6108 42.3529 30.4974 42.2063 30.3908C42.0663 30.2774 41.9063 30.1774 41.7263 30.0908C41.5462 30.0041 41.3463 29.9341 41.1263 29.8808C40.9063 29.8274 40.6663 29.8008 40.4063 29.8008C39.9196 29.8008 39.4663 29.8874 39.0462 30.0608C38.6263 30.2341 38.2629 30.4874 37.9563 30.8208C37.6496 31.1474 37.4096 31.5508 37.2363 32.0308C37.0629 32.5041 36.9763 33.0408 36.9763 33.6408C36.9763 34.2408 37.0596 34.7774 37.2263 35.2508C37.3996 35.7174 37.6363 36.1141 37.9363 36.4408C38.2363 36.7608 38.5929 37.0074 39.0063 37.1808C39.4263 37.3474 39.8829 37.4308 40.3763 37.4308Z" fill="#ED9071"/>
</svg>
