<svg width="44" height="42" viewBox="0 0 44 42" fill="none" xmlns="http://www.w3.org/2000/svg">
<path d="M16.8987 18.2715L19.0383 17.6543L31.9204 4.61788C32.022 4.51376 32.0786 4.37384 32.0779 4.22835C32.0772 4.08287 32.0193 3.94349 31.9167 3.84032L31.1452 3.06032C31.0954 3.00909 31.0358 2.96831 30.97 2.94035C30.9043 2.91239 30.8336 2.89782 30.7621 2.89748C30.6906 2.89714 30.6198 2.91104 30.5537 2.93837C30.4877 2.96571 30.4277 3.00592 30.3774 3.05667L17.5293 16.0591L16.8975 18.2703L16.8987 18.2715ZM32.6724 1.5149L33.4439 2.29611C34.5082 3.37378 34.5179 5.11237 33.4634 6.1791L20.1888 19.614L15.6157 20.931C15.3365 21.0092 15.0377 20.9734 14.7849 20.8315C14.5321 20.6896 14.3459 20.4531 14.2672 20.1741C14.2086 19.9735 14.2077 19.7604 14.2647 19.5593L15.5951 14.8939L28.8344 1.49425C29.0862 1.24076 29.3859 1.03993 29.716 0.903481C30.0462 0.767031 30.4002 0.697688 30.7575 0.699497C31.1147 0.701307 31.4681 0.774232 31.7968 0.91402C32.1256 1.05381 32.4233 1.25766 32.6724 1.51369V1.5149ZM18.6774 2.91574C19.28 2.91574 19.7684 3.41022 19.7684 4.02013C19.7694 4.1643 19.7419 4.30726 19.6876 4.44081C19.6333 4.57436 19.5532 4.6959 19.4518 4.79847C19.3505 4.90103 19.23 4.98262 19.0971 5.03857C18.9642 5.09452 18.8216 5.12372 18.6774 5.12452H14.3133C13.1081 5.12452 12.1313 6.11349 12.1313 7.33208V20.5823C12.1313 21.8021 13.1081 22.7911 14.3133 22.7911H27.4056C28.6109 22.7911 29.5889 21.8021 29.5889 20.5823V16.166C29.5889 15.5561 30.0773 15.0616 30.6799 15.0616C31.2825 15.0616 31.7709 15.5561 31.7709 16.1672V20.5823C31.7709 23.022 29.8161 24.9999 27.4056 24.9999H14.3133C11.9029 24.9999 9.94922 23.022 9.94922 20.5823V7.33208C9.94922 4.89368 11.9029 2.91574 14.3133 2.91574H18.6774Z" fill="#8C8C8C"/>
<path d="M0.96 30.6399V37.9999H2.12V35.2099H3.23C4.83 35.2099 6 34.4699 6 32.8599C6 31.2099 4.83 30.6399 3.19 30.6399H0.96ZM3.12 34.2799H2.12V31.5699H3.08C4.25 31.5699 4.86 31.8899 4.86 32.8599C4.86 33.8299 4.33 34.2799 3.12 34.2799ZM10.2446 38.1299C12.1346 38.1299 13.4546 36.6599 13.4546 34.2899C13.4546 31.9199 12.1346 30.4999 10.2446 30.4999C8.35461 30.4999 7.04461 31.9199 7.04461 34.2899C7.04461 36.6599 8.35461 38.1299 10.2446 38.1299ZM10.2446 37.1199C9.02461 37.1199 8.23461 36.0199 8.23461 34.2899C8.23461 32.5599 9.02461 31.5099 10.2446 31.5099C11.4646 31.5099 12.2646 32.5599 12.2646 34.2899C12.2646 36.0199 11.4646 37.1199 10.2446 37.1199ZM17.0737 38.1299C18.6737 38.1299 19.6637 37.1599 19.6637 35.9899C19.6637 34.9099 19.0437 34.3699 18.1637 33.9999L17.1537 33.5699C16.5637 33.3299 15.9637 33.0899 15.9637 32.4599C15.9637 31.8599 16.4437 31.5099 17.2037 31.5099C17.8537 31.5099 18.3537 31.7599 18.8237 32.1699L19.4337 31.4299C18.8737 30.8599 18.0837 30.4999 17.2037 30.4999C15.8037 30.4999 14.7837 31.3699 14.7837 32.5299C14.7837 33.5899 15.5737 34.1699 16.2837 34.4599L17.3037 34.8999C17.9937 35.1899 18.4837 35.4099 18.4837 36.0799C18.4837 36.7199 17.9837 37.1199 17.0937 37.1199C16.3737 37.1199 15.6637 36.7799 15.1337 36.2499L14.4537 37.0499C15.1337 37.7299 16.0637 38.1299 17.0737 38.1299ZM22.333 31.6099V37.9999H23.493V31.6099H25.663V30.6399H20.173V31.6099H22.333ZM26.9466 30.6399V37.9999H28.1066V30.6399H26.9466ZM30.0325 30.6399V37.9999H31.1325V34.5299C31.1325 33.7299 31.0525 32.8799 30.9825 32.1199H31.0325L31.8025 33.6599L34.2425 37.9999H35.4325V30.6399H34.3325V34.0699C34.3325 34.8699 34.4125 35.7599 34.4825 36.5199H34.4325L33.6625 34.9599L31.2225 30.6399H30.0325ZM40.3763 38.1299C41.3863 38.1299 42.2163 37.7599 42.7063 37.2699V34.0799H40.1963V35.0299H41.6563V36.7599C41.3863 36.9899 40.9463 37.1199 40.4963 37.1199C38.9762 37.1199 38.1663 36.0499 38.1663 34.2999C38.1663 32.5799 39.0863 31.5099 40.4463 31.5099C41.1663 31.5099 41.6063 31.7999 41.9663 32.1699L42.5963 31.4299C42.1463 30.9599 41.4463 30.4999 40.4063 30.4999C38.4463 30.4999 36.9763 31.9299 36.9763 34.3399C36.9763 36.7399 38.4063 38.1299 40.3763 38.1299Z" fill="#8C8C8C"/>
</svg>
