<svg width="10" height="15" viewBox="0 0 10 15" fill="none" xmlns="http://www.w3.org/2000/svg">
<path d="M9.77622 5.25C9.77622 2.3505 7.72766 0 5.20061 0C2.67357 0 0.625 2.3505 0.625 5.25C0.625 6.29025 0.893 7.25775 1.34729 8.07375H1.34206C2.8847 10.845 5.20061 15 5.20061 15L9.05916 8.07375H9.05458C9.50822 7.25775 9.77622 6.29025 9.77622 5.25ZM5.20061 7.5C4.1175 7.5 3.23963 6.49275 3.23963 5.25C3.23963 4.00725 4.1175 3 5.20061 3C6.28372 3 7.16159 4.00725 7.16159 5.25C7.16159 6.49275 6.28372 7.5 5.20061 7.5Z" fill="#696969"/>
</svg>
