<svg width="44" height="42" viewBox="0 0 44 42" fill="none" xmlns="http://www.w3.org/2000/svg">
<path d="M16.8987 17.572L19.0383 16.9548L31.9204 3.91842C32.022 3.8143 32.0786 3.67438 32.0779 3.52889C32.0772 3.3834 32.0193 3.24402 31.9167 3.14085L31.1452 2.36086C31.0954 2.30963 31.0358 2.26885 30.97 2.24089C30.9043 2.21293 30.8336 2.19836 30.7621 2.19802C30.6906 2.19768 30.6198 2.21158 30.5537 2.23891C30.4877 2.26624 30.4277 2.30646 30.3774 2.35721L17.5293 15.3596L16.8975 17.5708L16.8987 17.572ZM32.6724 0.815439L33.4439 1.59665C34.5082 2.67431 34.5179 4.41291 33.4634 5.47963L20.1888 18.9146L15.6157 20.2316C15.3365 20.3097 15.0377 20.2739 14.7849 20.132C14.5321 19.9901 14.3459 19.7537 14.2672 19.4746C14.2086 19.274 14.2077 19.061 14.2647 18.8599L15.5951 14.1945L28.8344 0.794785C29.0862 0.541295 29.3859 0.340468 29.716 0.204018C30.0462 0.0675677 30.4002 -0.00177493 30.7575 3.45202e-05C31.1147 0.00184397 31.4681 0.0747693 31.7968 0.214557C32.1256 0.354345 32.4233 0.558197 32.6724 0.814224V0.815439ZM18.6774 2.21628C19.28 2.21628 19.7684 2.71076 19.7684 3.32067C19.7694 3.46484 19.7419 3.60779 19.6876 3.74135C19.6333 3.8749 19.5532 3.99643 19.4518 4.099C19.3505 4.20157 19.23 4.28316 19.0971 4.33911C18.9642 4.39506 18.8216 4.42426 18.6774 4.42506H14.3133C13.1081 4.42506 12.1313 5.41403 12.1313 6.63262V19.8829C12.1313 21.1027 13.1081 22.0916 14.3133 22.0916H27.4056C28.6109 22.0916 29.5889 21.1027 29.5889 19.8829V15.4665C29.5889 14.8566 30.0773 14.3621 30.6799 14.3621C31.2825 14.3621 31.7709 14.8566 31.7709 15.4677V19.8829C31.7709 22.3225 29.8161 24.3004 27.4056 24.3004H14.3133C11.9029 24.3004 9.94922 22.3225 9.94922 19.8829V6.63262C9.94922 4.19422 11.9029 2.21628 14.3133 2.21628H18.6774Z" fill="#8C8C8C"/>
<path d="M0.96 29.9408V37.3008H2.12V34.5108H3.23C4.83 34.5108 6 33.7708 6 32.1608C6 30.5108 4.83 29.9408 3.19 29.9408H0.96ZM3.12 33.5808H2.12V30.8708H3.08C4.25 30.8708 4.86 31.1908 4.86 32.1608C4.86 33.1308 4.33 33.5808 3.12 33.5808ZM10.2446 37.4308C12.1346 37.4308 13.4546 35.9608 13.4546 33.5908C13.4546 31.2208 12.1346 29.8008 10.2446 29.8008C8.35461 29.8008 7.04461 31.2208 7.04461 33.5908C7.04461 35.9608 8.35461 37.4308 10.2446 37.4308ZM10.2446 36.4208C9.02461 36.4208 8.23461 35.3208 8.23461 33.5908C8.23461 31.8608 9.02461 30.8108 10.2446 30.8108C11.4646 30.8108 12.2646 31.8608 12.2646 33.5908C12.2646 35.3208 11.4646 36.4208 10.2446 36.4208ZM17.0737 37.4308C18.6737 37.4308 19.6637 36.4608 19.6637 35.2908C19.6637 34.2108 19.0437 33.6708 18.1637 33.3008L17.1537 32.8708C16.5637 32.6308 15.9637 32.3908 15.9637 31.7608C15.9637 31.1608 16.4437 30.8108 17.2037 30.8108C17.8537 30.8108 18.3537 31.0608 18.8237 31.4708L19.4337 30.7308C18.8737 30.1608 18.0837 29.8008 17.2037 29.8008C15.8037 29.8008 14.7837 30.6708 14.7837 31.8308C14.7837 32.8908 15.5737 33.4708 16.2837 33.7608L17.3037 34.2008C17.9937 34.4908 18.4837 34.7108 18.4837 35.3808C18.4837 36.0208 17.9837 36.4208 17.0937 36.4208C16.3737 36.4208 15.6637 36.0808 15.1337 35.5508L14.4537 36.3508C15.1337 37.0308 16.0637 37.4308 17.0737 37.4308ZM22.333 30.9108V37.3008H23.493V30.9108H25.663V29.9408H20.173V30.9108H22.333ZM26.9466 29.9408V37.3008H28.1066V29.9408H26.9466ZM30.0325 29.9408V37.3008H31.1325V33.8308C31.1325 33.0308 31.0525 32.1808 30.9825 31.4208H31.0325L31.8025 32.9608L34.2425 37.3008H35.4325V29.9408H34.3325V33.3708C34.3325 34.1708 34.4125 35.0608 34.4825 35.8208H34.4325L33.6625 34.2608L31.2225 29.9408H30.0325ZM40.3763 37.4308C41.3863 37.4308 42.2163 37.0608 42.7063 36.5708V33.3808H40.1963V34.3308H41.6563V36.0608C41.3863 36.2908 40.9463 36.4208 40.4963 36.4208C38.9762 36.4208 38.1663 35.3508 38.1663 33.6008C38.1663 31.8808 39.0863 30.8108 40.4463 30.8108C41.1663 30.8108 41.6063 31.1008 41.9663 31.4708L42.5963 30.7308C42.1463 30.2608 41.4463 29.8008 40.4063 29.8008C38.4463 29.8008 36.9763 31.2308 36.9763 33.6408C36.9763 36.0408 38.4063 37.4308 40.3763 37.4308Z" fill="#8C8C8C"/>
</svg>
