<svg width="41" height="38" viewBox="0 0 41 38" fill="none" xmlns="http://www.w3.org/2000/svg">
<path d="M25.0576 12.4844H25.0763" stroke="#696969" stroke-width="2" stroke-linecap="round" stroke-linejoin="round"/>
<path d="M28.398 6.24219H11.6931C8.92535 6.24219 6.68164 8.33833 6.68164 10.9241V26.5303C6.68164 29.116 8.92535 31.2122 11.6931 31.2122H28.398C31.1658 31.2122 33.4095 29.116 33.4095 26.5303V10.9241C33.4095 8.33833 31.1658 6.24219 28.398 6.24219Z" stroke="#696969" stroke-width="2" stroke-linecap="round" stroke-linejoin="round"/>
<path d="M6.68164 23.409L13.3636 17.1665C14.1254 16.4816 14.9896 16.1211 15.8693 16.1211C16.749 16.1211 17.6132 16.4816 18.3751 17.1665L26.7275 24.9696" stroke="#696969" stroke-width="2" stroke-linecap="round" stroke-linejoin="round"/>
<path d="M23.3867 21.8482L25.0572 20.2876C25.819 19.6027 26.6832 19.2422 27.5629 19.2422C28.4426 19.2422 29.3068 19.6027 30.0687 20.2876L33.4097 23.4089" stroke="#696969" stroke-width="2" stroke-linecap="round" stroke-linejoin="round"/>
</svg>
