<svg width="28" height="27" viewBox="0 0 28 27" fill="none" xmlns="http://www.w3.org/2000/svg">
<path d="M1.82423 0.0846588L27.3587 12.6669C27.7706 12.8698 27.94 13.3683 27.737 13.7803C27.656 13.9446 27.523 14.0776 27.3587 14.1586L1.82476 26.7405C1.41283 26.9435 0.914344 26.7741 0.711364 26.3622C0.622607 26.1821 0.602032 25.9759 0.65344 25.7818L3.18328 16.2284C3.26694 15.9125 3.52794 15.6748 3.85032 15.6211L15.2933 13.7131C15.4335 13.6898 15.5494 13.5972 15.6051 13.4714L15.6351 13.3714C15.6674 13.1772 15.5596 12.9921 15.3856 12.9194L15.2933 12.8929L3.78571 10.975C3.4632 10.9212 3.20213 10.6835 3.11854 10.3674L0.652864 1.0432C0.535405 0.599253 0.800078 0.144142 1.24403 0.0266832C1.43809 -0.0246604 1.64417 -0.00406808 1.82423 0.0846588V0.0846588Z" fill="#E67651"/>
</svg>
