<svg width="19" height="18" viewBox="0 0 19 18" fill="none" xmlns="http://www.w3.org/2000/svg">
<path d="M0.799488 0.0570903L17.8225 8.44523C18.0971 8.58055 18.21 8.91287 18.0747 9.18749C18.0207 9.29706 17.932 9.38573 17.8225 9.43972L0.799838 17.8277C0.525218 17.963 0.192896 17.8501 0.0575761 17.5755C-0.00159553 17.4554 -0.0153121 17.3179 0.0189601 17.1885L1.70552 10.8196C1.7613 10.609 1.93529 10.4505 2.15022 10.4147L9.77889 9.14273C9.87235 9.12715 9.94963 9.06545 9.98677 8.98158L10.0067 8.9149C10.0283 8.78548 9.95643 8.66207 9.84038 8.61361L9.77889 8.59594L2.10714 7.31731C1.89214 7.28148 1.71809 7.12297 1.66236 6.91224L0.0185758 0.696119C-0.05973 0.400153 0.116718 0.0967456 0.412685 0.0184399C0.542058 -0.0157892 0.679446 -0.00206101 0.799488 0.0570903V0.0570903Z" fill="#E67651"/>
</svg>
