<svg width="35" height="33" viewBox="0 0 35 33" fill="none" xmlns="http://www.w3.org/2000/svg">
<path d="M16.2469 1.01246C16.6061 -0.093113 18.1702 -0.0931122 18.5294 1.01246L21.6681 10.6723C21.8287 11.1667 22.2895 11.5015 22.8094 11.5015H32.9663C34.1288 11.5015 34.6121 12.989 33.6717 13.6723L25.4545 19.6424C25.0339 19.948 24.8579 20.4896 25.0186 20.9841L28.1573 30.6439C28.5165 31.7495 27.2511 32.6688 26.3106 31.9856L18.0935 26.0154C17.6729 25.7099 17.1034 25.7099 16.6828 26.0154L8.46564 31.9856C7.52519 32.6688 6.25981 31.7495 6.61903 30.6439L9.75771 20.9841C9.91836 20.4896 9.74237 19.948 9.32178 19.6424L1.10462 13.6723C0.164167 12.989 0.647498 11.5015 1.80997 11.5015H11.9669C12.4868 11.5015 12.9476 11.1667 13.1082 10.6723L16.2469 1.01246Z" fill="#ED9071"/>
</svg>
