<svg width="23" height="23" viewBox="0 0 23 23" fill="none" xmlns="http://www.w3.org/2000/svg">
<path d="M10.7479 1.34164C10.9874 0.604592 12.0301 0.604592 12.2696 1.34164L14.3621 7.78155C14.4692 8.11116 14.7763 8.33433 15.1229 8.33433H21.8942C22.6692 8.33433 22.9914 9.32602 22.3645 9.78155L16.8863 13.7616C16.606 13.9653 16.4886 14.3264 16.5957 14.6561L18.6882 21.096C18.9277 21.833 18.0841 22.4459 17.4571 21.9904L11.979 18.0103C11.6986 17.8066 11.3189 17.8066 11.0385 18.0103L5.56043 21.9904C4.93346 22.4459 4.08988 21.833 4.32936 21.096L6.42181 14.6561C6.52891 14.3264 6.41158 13.9653 6.1312 13.7616L0.653085 9.78155C0.026114 9.32602 0.348334 8.33433 1.12331 8.33433H7.89463C8.24121 8.33433 8.54838 8.11116 8.65547 7.78155L10.7479 1.34164Z" fill="#ED9071"/>
</svg>
