<svg width="23" height="23" viewBox="0 0 23 23" fill="none" xmlns="http://www.w3.org/2000/svg">
<path d="M11.5363 1.49615L13.6287 7.93605C13.8028 8.47168 14.3019 8.83433 14.8651 8.83433H21.6364C21.927 8.83433 22.0479 9.20622 21.8128 9.37704L16.3346 13.3571C15.879 13.6882 15.6884 14.2749 15.8624 14.8106L17.9548 21.2505C18.0446 21.5269 17.7283 21.7567 17.4932 21.5859L12.0151 17.6058C11.5594 17.2748 10.9425 17.2748 10.4868 17.6058L5.00873 21.5859C4.77361 21.7567 4.45727 21.5269 4.54708 21.2505L6.63953 14.8106C6.81356 14.2749 6.62291 13.6882 6.16728 13.3571L0.689165 9.37704C0.454051 9.20622 0.574884 8.83433 0.865501 8.83433H7.63682C8.20001 8.83433 8.69915 8.47168 8.87319 7.93605L10.9656 1.49615C11.0554 1.21976 11.4465 1.21976 11.5363 1.49615Z" fill="white" stroke="#C1C1C1"/>
</svg>
