<svg width="34" height="33" viewBox="0 0 34 33" fill="none" xmlns="http://www.w3.org/2000/svg">
<path d="M17.4294 1.24422L20.5681 10.9041C20.8291 11.7075 21.5778 12.2515 22.4226 12.2515H32.5796C33.0155 12.2515 33.1968 12.8093 32.8441 13.0655L24.6269 19.0357C23.9435 19.5322 23.6575 20.4124 23.9186 21.2158L27.0572 30.8757C27.192 31.2903 26.7174 31.635 26.3648 31.3788L18.1476 25.4087C17.4642 24.9121 16.5387 24.9121 15.8552 25.4087L7.63809 31.3788C7.28541 31.635 6.8109 31.2903 6.94561 30.8757L10.0843 21.2158C10.3453 20.4124 10.0594 19.5322 9.37591 19.0357L1.15874 13.0655C0.806074 12.8093 0.987319 12.2515 1.42325 12.2515H11.5802C12.425 12.2515 13.1737 11.7075 13.4348 10.9041L16.5735 1.24422C16.7082 0.829634 17.2947 0.829632 17.4294 1.24422Z" fill="white" stroke="#C1C1C1" stroke-width="1.5"/>
</svg>
