<svg width="22" height="22" viewBox="0 0 22 22" fill="none" xmlns="http://www.w3.org/2000/svg">
<path d="M19.5908 21.9417H2.35089C1.05251 21.9417 0 20.8892 0 19.5908V2.35089C0 1.05251 1.05251 0 2.35089 0H19.5908C20.8892 0 21.9417 1.05251 21.9417 2.35089V19.5908C21.9417 20.8892 20.8892 21.9417 19.5908 21.9417ZM9.56588 17.139L18.5776 8.12728C18.8836 7.82127 18.8836 7.32509 18.5776 7.01908L17.4694 5.91088C17.1634 5.60487 16.6672 5.60482 16.3612 5.91088L9.01176 13.2603L5.58048 9.82898C5.27447 9.52298 4.77829 9.52298 4.47223 9.82898L3.36403 10.9372C3.05802 11.2432 3.05802 11.7394 3.36403 12.0454L8.45763 17.139C8.76369 17.4451 9.25982 17.4451 9.56588 17.139V17.139Z" fill="#303030"/>
</svg>
