<svg width="34" height="33" viewBox="0 0 34 33" fill="none" xmlns="http://www.w3.org/2000/svg">
<path d="M29.5111 32.9115H3.65134C1.70377 32.9115 0.125 31.3327 0.125 29.3852V3.52536C0.125 1.57779 1.70377 -0.000976562 3.65134 -0.000976562H29.5111C31.4587 -0.000976562 33.0375 1.57779 33.0375 3.52536V29.3852C33.0375 31.3327 31.4587 32.9115 29.5111 32.9115ZM14.4738 25.7076L27.9914 12.1899C28.4504 11.7309 28.4504 10.9867 27.9914 10.5276L26.3291 8.86534C25.8701 8.40633 25.1258 8.40625 24.6668 8.86534L13.6426 19.8894L8.49572 14.7425C8.0367 14.2835 7.29243 14.2835 6.83334 14.7425L5.17104 16.4048C4.71203 16.8638 4.71203 17.6081 5.17104 18.0671L12.8114 25.7075C13.2705 26.1667 14.0147 26.1667 14.4738 25.7076V25.7076Z" fill="#009422"/>
</svg>
