<svg width="34" height="33" viewBox="0 0 34 33" fill="none" xmlns="http://www.w3.org/2000/svg">
<path d="M30.0111 32.9115H4.15134C2.20377 32.9115 0.625 31.3327 0.625 29.3852V3.52536C0.625 1.57779 2.20377 -0.000976562 4.15134 -0.000976562H30.0111C31.9587 -0.000976562 33.5375 1.57779 33.5375 3.52536V29.3852C33.5375 31.3327 31.9587 32.9115 30.0111 32.9115ZM14.9738 25.7076L28.4914 12.1899C28.9504 11.7309 28.9504 10.9867 28.4914 10.5276L26.8291 8.86534C26.3701 8.40633 25.6258 8.40625 25.1668 8.86534L14.1426 19.8894L8.99572 14.7425C8.5367 14.2835 7.79243 14.2835 7.33334 14.7425L5.67104 16.4048C5.21203 16.8638 5.21203 17.6081 5.67104 18.0671L13.3114 25.7075C13.7705 26.1667 14.5147 26.1667 14.9738 25.7076V25.7076Z" fill="#303030"/>
</svg>
