<svg width="58" height="57" viewBox="0 0 58 57" fill="none" xmlns="http://www.w3.org/2000/svg">
<path d="M50.5672 46.2721C53.5007 42.7852 55.5408 38.6519 56.515 34.2217C57.4892 29.7915 57.3687 25.1948 56.1639 20.8203C54.959 16.4458 52.7052 12.4222 49.5931 9.08984C46.4809 5.7575 42.602 3.21444 38.2843 1.67575C33.9667 0.137068 29.3373 -0.351984 24.7878 0.249965C20.2384 0.851913 15.9026 2.52716 12.1472 5.13399C8.39187 7.74083 5.32741 11.2026 3.21303 15.2265C1.09866 19.2503 -0.00341705 23.7179 7.95869e-06 28.2514C0.00160819 34.8426 2.35339 41.2226 6.64268 46.2721L6.60182 46.3056C6.74484 46.4761 6.9083 46.6218 7.05582 46.7883C7.23971 46.9974 7.43668 47.1919 7.62792 47.3953C8.20002 48.0074 8.78724 48.5964 9.40551 49.151C9.59246 49.3186 9.78636 49.4763 9.97761 49.6387C10.6314 50.1955 11.3024 50.7228 12.0004 51.2154C12.0905 51.2783 12.1704 51.3552 12.2611 51.4184V51.3927C17.0465 54.7187 22.7552 56.5037 28.6068 56.5037C34.4583 56.5037 40.167 54.7187 44.9524 51.3927V51.418C45.0432 51.3548 45.123 51.2779 45.2132 51.215C45.9103 50.7224 46.5821 50.1951 47.2359 49.6383C47.4272 49.4769 47.6211 49.3182 47.808 49.1505C48.4261 48.5958 49.0135 48.0068 49.5856 47.3949C49.7763 47.1919 49.9726 46.9969 50.1577 46.7879C50.3046 46.6214 50.4687 46.4757 50.6117 46.3052L50.5672 46.2721ZM28.6049 12.1074C30.4234 12.1074 32.2011 12.64 33.7131 13.6379C35.2251 14.6357 36.4036 16.0539 37.0995 17.7133C37.7954 19.3726 37.9775 21.1985 37.6227 22.96C37.2679 24.7216 36.3922 26.3396 35.1064 27.6096C33.8205 28.8796 32.1822 29.7445 30.3987 30.0949C28.6151 30.4453 26.7664 30.2655 25.0864 29.5781C23.4063 28.8908 21.9703 27.7269 20.96 26.2335C19.9497 24.7402 19.4105 22.9845 19.4105 21.1884C19.4105 18.78 20.3792 16.4702 22.1035 14.7672C23.8278 13.0642 26.1664 12.1074 28.6049 12.1074V12.1074ZM12.2738 46.2721C12.3091 43.6224 13.3992 41.0929 15.3084 39.2311C17.2176 37.3692 19.7923 36.3246 22.4753 36.3234H34.7346C37.4176 36.3247 39.9922 37.3693 41.9014 39.2311C43.8106 41.093 44.9008 43.6224 44.9361 46.2721C40.455 50.2602 34.6369 52.4673 28.6049 52.4673C22.5729 52.4673 16.7548 50.2602 12.2738 46.2721V46.2721Z" fill="#A0A0A0"/>
</svg>
