<svg width="38" height="38" viewBox="0 0 38 38" fill="none" xmlns="http://www.w3.org/2000/svg">
<path d="M33.6135 31.119C35.5635 28.774 36.9196 25.9943 37.5672 23.0149C38.2147 20.0355 38.1347 16.944 37.3338 14.0021C36.5329 11.0601 35.0347 8.35418 32.966 6.11312C30.8972 3.87205 28.3188 2.16178 25.4487 1.12698C22.5786 0.092181 19.5014 -0.236717 16.4772 0.168107C13.453 0.57293 10.5709 1.69957 8.07462 3.45272C5.57832 5.20588 3.54128 7.53399 2.1358 10.2401C0.730314 12.9463 -0.00227141 15.9508 5.29037e-06 18.9997C0.00106901 23.4324 1.56437 27.7231 4.41559 31.119L4.38842 31.1415C4.4835 31.2562 4.59215 31.3542 4.69021 31.4662C4.81245 31.6068 4.94338 31.7376 5.0705 31.8744C5.45079 32.286 5.84113 32.6822 6.25212 33.0551C6.37639 33.1679 6.50528 33.2739 6.63241 33.3831C7.06703 33.7576 7.51305 34.1122 7.97701 34.4435C8.0369 34.4858 8.09001 34.5375 8.15031 34.58V34.5628C11.3313 36.7995 15.1261 38 19.0158 38C22.9054 38 26.7002 36.7995 29.8812 34.5628V34.5797C29.9415 34.5372 29.9946 34.4855 30.0545 34.4432C30.5179 34.1119 30.9645 33.7573 31.3991 33.3829C31.5262 33.2743 31.6551 33.1676 31.7794 33.0548C32.1903 32.6818 32.5807 32.2856 32.961 31.8741C33.0877 31.7376 33.2183 31.6065 33.3413 31.4659C33.439 31.3539 33.548 31.2559 33.6431 31.1413L33.6135 31.119ZM19.0145 8.14252C20.2233 8.14252 21.405 8.5007 22.4101 9.17177C23.4152 9.84283 24.1985 10.7966 24.6611 11.9126C25.1237 13.0285 25.2447 14.2565 25.0089 15.4411C24.7731 16.6258 24.191 17.714 23.3362 18.5681C22.4815 19.4222 21.3925 20.0038 20.2069 20.2395C19.0213 20.4751 17.7924 20.3542 16.6756 19.892C15.5589 19.4297 14.6043 18.647 13.9327 17.6426C13.2612 16.6383 12.9027 15.4576 12.9027 14.2497C12.9027 12.63 13.5466 11.0766 14.6928 9.93127C15.839 8.78596 17.3936 8.14252 19.0145 8.14252V8.14252ZM8.15873 31.119C8.18219 29.337 8.90686 27.6359 10.176 26.3838C11.445 25.1316 13.1565 24.4291 14.94 24.4283H23.0891C24.8726 24.4292 26.584 25.1317 27.8531 26.3838C29.1222 27.6359 29.8469 29.337 29.8703 31.119C26.8917 33.8011 23.0242 35.2854 19.0145 35.2854C15.0049 35.2854 11.1374 33.8011 8.15873 31.119V31.119Z" fill="#A6A6A6"/>
</svg>
