<svg width="31" height="30" viewBox="0 0 31 30" fill="none" xmlns="http://www.w3.org/2000/svg">
<path d="M25.4709 24.2582C26.8381 22.6383 27.7889 20.7181 28.2429 18.66C28.6969 16.6019 28.6408 14.4663 28.0792 12.4341C27.5177 10.4018 26.4673 8.53256 25.0169 6.98446C23.5665 5.43636 21.7588 4.25493 19.7465 3.5401C17.7343 2.82527 15.5768 2.59808 13.4566 2.87772C11.3363 3.15737 9.31563 3.93564 7.56546 5.1467C5.81529 6.35776 4.38711 7.96598 3.40172 9.83535C2.41632 11.7047 1.9027 13.7802 1.9043 15.8863C1.90505 18.9484 3.00109 21.9124 5.00009 24.2582L4.98105 24.2738C5.0477 24.353 5.12388 24.4207 5.19263 24.498C5.27833 24.5952 5.37013 24.6855 5.45926 24.78C5.72588 25.0644 5.99955 25.338 6.2877 25.5957C6.37483 25.6736 6.46519 25.7468 6.55432 25.8223C6.85903 26.0809 7.17175 26.3259 7.49703 26.5547C7.53902 26.584 7.57625 26.6197 7.61853 26.649V26.6371C9.84876 28.1823 12.5093 29.0115 15.2364 29.0115C17.9634 29.0115 20.624 28.1823 22.8542 26.6371V26.6488C22.8965 26.6195 22.9337 26.5838 22.9757 26.5545C23.3006 26.3257 23.6137 26.0807 23.9184 25.8221C24.0075 25.7471 24.0979 25.6734 24.185 25.5955C24.4731 25.3378 24.7468 25.0641 25.0135 24.7798C25.1023 24.6855 25.1938 24.595 25.2801 24.4978C25.3486 24.4205 25.425 24.3528 25.4917 24.2736L25.4709 24.2582ZM15.2355 8.38635C16.083 8.38635 16.9115 8.63378 17.6161 9.09734C18.3208 9.5609 18.87 10.2198 19.1944 10.9907C19.5187 11.7615 19.6035 12.6098 19.4382 13.4281C19.2729 14.2465 18.8648 14.9982 18.2655 15.5882C17.6662 16.1782 16.9027 16.58 16.0715 16.7428C15.2403 16.9056 14.3787 16.822 13.5957 16.5027C12.8127 16.1834 12.1435 15.6427 11.6726 14.9489C11.2018 14.2551 10.9505 13.4395 10.9505 12.6051C10.9505 11.4862 11.4019 10.4132 12.2055 9.622C13.0091 8.83083 14.099 8.38635 15.2355 8.38635V8.38635ZM7.62444 24.2582C7.64088 23.0272 8.14895 21.8521 9.03872 20.9872C9.92849 20.1222 11.1284 19.6369 12.3788 19.6363H18.0922C19.3426 19.637 20.5425 20.1222 21.4323 20.9872C22.322 21.8522 22.8301 23.0273 22.8466 24.2582C20.7582 26.111 18.0467 27.1363 15.2355 27.1363C12.4243 27.1363 9.71281 26.111 7.62444 24.2582V24.2582Z" fill="#A6A6A6"/>
</svg>
