<svg width="46" height="45" viewBox="0 0 46 45" fill="none" xmlns="http://www.w3.org/2000/svg">
<path d="M38.3304 36.3865C40.3811 33.9567 41.8073 31.0764 42.4883 27.9892C43.1693 24.902 43.0851 21.6987 42.2429 18.6503C41.4006 15.6019 39.825 12.7981 37.6494 10.4759C35.4738 8.15374 32.7622 6.3816 29.7438 5.30936C26.7255 4.23712 23.4893 3.89632 20.3089 4.31579C17.1285 4.73526 14.0975 5.90266 11.4722 7.71925C8.84696 9.53584 6.70469 11.9482 5.2266 14.7522C3.74851 17.5563 2.97808 20.6696 2.98047 23.8287C2.98159 28.4218 4.62565 32.8678 7.62416 36.3865L7.59559 36.4099C7.69558 36.5287 7.80984 36.6302 7.91297 36.7462C8.04152 36.8919 8.17921 37.0275 8.31291 37.1692C8.71284 37.5958 9.12335 38.0062 9.55556 38.3927C9.68626 38.5095 9.82181 38.6194 9.9555 38.7326C10.4126 39.1206 10.8816 39.488 11.3696 39.8313C11.4325 39.8752 11.4884 39.9287 11.5518 39.9727V39.9549C14.8972 42.2726 18.8879 43.5165 22.9786 43.5165C27.0692 43.5165 31.06 42.2726 34.4053 39.9549V39.9725C34.4687 39.9284 34.5246 39.8749 34.5876 39.831C35.0749 39.4877 35.5445 39.1203 36.0016 38.7323C36.1353 38.6198 36.2709 38.5093 36.4016 38.3924C36.8336 38.0058 37.2443 37.5953 37.6442 37.169C37.7775 37.0275 37.9147 36.8917 38.0441 36.746C38.1468 36.6299 38.2615 36.5284 38.3615 36.4096L38.3304 36.3865ZM22.9773 12.5787C24.2485 12.5787 25.4912 12.9499 26.5482 13.6452C27.6052 14.3406 28.4291 15.3289 28.9155 16.4852C29.402 17.6415 29.5293 18.9139 29.2813 20.1414C29.0333 21.3689 28.4211 22.4965 27.5222 23.3815C26.6233 24.2665 25.478 24.8692 24.2312 25.1134C22.9844 25.3576 21.692 25.2322 20.5176 24.7533C19.3431 24.2743 18.3392 23.4632 17.633 22.4226C16.9267 21.3819 16.5497 20.1584 16.5497 18.9069C16.5497 17.2285 17.2269 15.6189 18.4323 14.4322C19.6377 13.2454 21.2726 12.5787 22.9773 12.5787V12.5787ZM11.5607 36.3865C11.5853 34.5401 12.3474 32.7774 13.6821 31.48C15.0168 30.1825 16.8166 29.4546 18.6922 29.4537H27.2623C29.1379 29.4546 30.9378 30.1826 32.2724 31.48C33.607 32.7774 34.3692 34.5401 34.3939 36.3865C31.2613 39.1657 27.194 40.7037 22.9773 40.7037C18.7605 40.7037 14.6932 39.1657 11.5607 36.3865V36.3865Z" fill="#A6A6A6"/>
</svg>
