<svg width="86" height="86" viewBox="0 0 86 86" fill="none" xmlns="http://www.w3.org/2000/svg">
<path d="M75.9757 69.9071C80.376 64.6769 83.4362 58.4769 84.8974 51.8316C86.3587 45.1863 86.178 38.2912 84.3708 31.7294C82.5635 25.1676 79.1828 19.1323 74.5146 14.1338C69.8463 9.13527 64.0279 5.32068 57.5514 3.01265C51.075 0.704625 44.131 -0.028952 37.3067 0.87397C30.4825 1.77689 23.9789 4.28976 18.3458 8.20001C12.7128 12.1103 8.1161 17.3029 4.94455 23.3387C1.773 29.3745 0.119874 36.0759 0.125012 42.8761C0.127412 52.7629 3.65509 62.333 10.089 69.9071L10.0277 69.9574C10.2423 70.2132 10.4874 70.4317 10.7087 70.6814C10.9846 70.995 11.28 71.2868 11.5669 71.5919C12.425 72.51 13.3058 73.3936 14.2333 74.2254C14.5137 74.477 14.8045 74.7134 15.0914 74.9571C16.0721 75.7922 17.0786 76.5832 18.1256 77.322C18.2607 77.4165 18.3806 77.5318 18.5166 77.6266V77.5881C25.6948 82.5771 34.2578 85.2546 43.0351 85.2546C51.8124 85.2546 60.3755 82.5771 67.5536 77.5881V77.6259C67.6897 77.5312 67.8095 77.4159 67.9447 77.3214C68.9904 76.5825 69.9981 75.7916 70.9789 74.9564C71.2657 74.7143 71.5566 74.4764 71.837 74.2248C72.7641 73.3927 73.6452 72.5091 74.5034 71.5913C74.7893 71.2868 75.0839 70.9944 75.3615 70.6808C75.5819 70.4311 75.828 70.2125 76.0425 69.9568L75.9757 69.9071ZM43.0324 18.6602C45.7601 18.6602 48.4266 19.4591 50.6946 20.9558C52.9626 22.4526 54.7303 24.5799 55.7742 27.0689C56.8181 29.5579 57.0912 32.2967 56.559 34.9391C56.0269 37.5814 54.7133 40.0085 52.7845 41.9135C50.8557 43.8185 48.3983 45.1158 45.723 45.6414C43.0477 46.1669 40.2746 45.8972 37.7545 44.8662C35.2344 43.8352 33.0805 42.0893 31.565 39.8493C30.0496 37.6093 29.2407 34.9757 29.2407 32.2816C29.2407 28.669 30.6938 25.2043 33.2802 22.6498C35.8666 20.0953 39.3746 18.6602 43.0324 18.6602V18.6602ZM18.5356 69.9071C18.5886 65.9326 20.2238 62.1384 23.0876 59.3456C25.9514 56.5528 29.8134 54.9859 33.8379 54.9841H52.2268C56.2513 54.986 60.1133 56.5529 62.977 59.3457C65.8408 62.1385 67.4761 65.9326 67.5291 69.9071C60.8075 75.8893 52.0803 79.1999 43.0324 79.1999C33.9844 79.1999 25.2572 75.8893 18.5356 69.9071V69.9071Z" fill="#A0A0A0"/>
</svg>
