<svg width="58" height="58" viewBox="0 0 58 58" fill="none" xmlns="http://www.w3.org/2000/svg">
<path d="M50.5452 47.1775C53.4702 43.6601 55.5044 39.4904 56.4757 35.0213C57.4471 30.5522 57.327 25.9151 56.1256 21.5022C54.9243 17.0892 52.677 13.0303 49.5739 9.66869C46.4708 6.30709 42.6031 3.7417 38.298 2.1895C33.9929 0.637295 29.377 0.143948 24.8408 0.751184C20.3045 1.35842 15.9814 3.04837 12.2369 5.67811C8.49248 8.30784 5.43692 11.8 3.3287 15.8592C1.22047 19.9184 0.121593 24.4253 0.125008 28.9986C0.126604 35.6476 2.47155 42.0837 6.74838 47.1775L6.70763 47.2113C6.85024 47.3833 7.01322 47.5303 7.16031 47.6983C7.34367 47.9092 7.54006 48.1054 7.73075 48.3106C8.30118 48.928 8.8867 49.5223 9.50317 50.0817C9.68958 50.2508 9.88292 50.4098 10.0736 50.5737C10.7255 51.1354 11.3946 51.6673 12.0905 52.1642C12.1803 52.2277 12.26 52.3053 12.3505 52.369V52.3432C17.122 55.6983 22.8141 57.499 28.6486 57.499C34.4831 57.499 40.1753 55.6983 44.9468 52.3432V52.3686C45.0372 52.3049 45.1169 52.2273 45.2067 52.1638C45.9019 51.6669 46.5717 51.135 47.2236 50.5733C47.4143 50.4104 47.6077 50.2504 47.7941 50.0813C48.4103 49.5216 48.9961 48.9274 49.5665 48.3102C49.7566 48.1054 49.9524 47.9087 50.1369 47.6978C50.2834 47.5299 50.447 47.3829 50.5896 47.2109L50.5452 47.1775ZM28.6468 12.7128C30.46 12.7128 32.2325 13.2501 33.7401 14.2567C35.2477 15.2633 36.4228 16.694 37.1167 18.3679C37.8105 20.0418 37.9921 21.8837 37.6383 23.6607C37.2846 25.4377 36.4115 27.07 35.1293 28.3512C33.8472 29.6323 32.2137 30.5048 30.4353 30.8582C28.657 31.2117 26.8136 31.0303 25.1385 30.3369C23.4633 29.6436 22.0315 28.4694 21.0241 26.963C20.0168 25.4565 19.4791 23.6854 19.4791 21.8735C19.4791 19.444 20.445 17.1139 22.1642 15.3959C23.8835 13.678 26.2154 12.7128 28.6468 12.7128V12.7128ZM12.3631 47.1775C12.3983 44.5045 13.4853 41.9529 15.3889 40.0747C17.2926 38.1964 19.8597 37.1427 22.535 37.1414H34.7586C37.4338 37.1427 40.001 38.1965 41.9046 40.0747C43.8082 41.9529 44.8953 44.5046 44.9305 47.1775C40.4625 51.2007 34.6612 53.4271 28.6468 53.4271C22.6323 53.4271 16.8311 51.2007 12.3631 47.1775V47.1775Z" fill="#A6A6A6"/>
</svg>
