<svg width="28" height="29" viewBox="0 0 28 29" fill="none" xmlns="http://www.w3.org/2000/svg">
<path d="M7.93663 20.5923L10.3578 19.8938L24.9357 5.14128C25.0507 5.02345 25.1148 4.86511 25.114 4.70047C25.1132 4.53583 25.0477 4.3781 24.9316 4.26135L24.0586 3.37867C24.0022 3.3207 23.9348 3.27455 23.8603 3.24291C23.7859 3.21127 23.7059 3.19478 23.625 3.1944C23.5441 3.19401 23.4639 3.20975 23.3892 3.24068C23.3144 3.27161 23.2466 3.31712 23.1896 3.37455L8.65019 18.0886L7.93525 20.5909L7.93663 20.5923ZM25.7868 1.62982L26.6599 2.51387C27.8643 3.7334 27.8753 5.70086 26.6819 6.90801L11.6598 22.1115L6.48475 23.6019C6.16879 23.6903 5.83066 23.6498 5.54454 23.4892C5.25843 23.3287 5.04771 23.0611 4.95862 22.7454C4.89233 22.5183 4.89137 22.2772 4.95587 22.0497L6.46137 16.7701L21.4435 1.60644C21.7284 1.31958 22.0676 1.09232 22.4412 0.937907C22.8148 0.783494 23.2155 0.705023 23.6198 0.70707C24.0241 0.709118 24.4239 0.791643 24.7959 0.949833C25.168 1.10802 25.5048 1.33871 25.7868 1.62844V1.62982ZM9.94946 3.21506C10.6314 3.21506 11.1841 3.77464 11.1841 4.46484C11.1852 4.62799 11.1541 4.78976 11.0926 4.94089C11.0312 5.09203 10.9405 5.22956 10.8258 5.34563C10.7112 5.4617 10.5747 5.55404 10.4244 5.61735C10.274 5.68066 10.1126 5.71371 9.94946 5.71461H5.01086C3.64698 5.71461 2.54157 6.83377 2.54157 8.21278V23.2073C2.54157 24.5877 3.64698 25.7069 5.01086 25.7069H19.8267C21.1906 25.7069 22.2973 24.5877 22.2973 23.2073V18.2096C22.2973 17.5194 22.85 16.9598 23.532 16.9598C24.2139 16.9598 24.7666 17.5194 24.7666 18.211V23.2073C24.7666 25.9681 22.5544 28.2064 19.8267 28.2064H5.01086C2.28309 28.2064 0.0722656 25.9681 0.0722656 23.2073V8.21278C0.0722656 5.45338 2.28309 3.21506 5.01086 3.21506H9.94946Z" fill="#ED9071"/>
</svg>
