<svg width="28" height="29" viewBox="0 0 28 29" fill="none" xmlns="http://www.w3.org/2000/svg">
<path d="M8.36656 20.5933L10.7877 19.8948L25.3657 5.14226C25.4807 5.02442 25.5447 4.86609 25.5439 4.70145C25.5431 4.53681 25.4776 4.37908 25.3616 4.26233L24.4885 3.37965C24.4321 3.32168 24.3647 3.27553 24.2902 3.24389C24.2158 3.21225 24.1358 3.19576 24.0549 3.19537C23.974 3.19499 23.8939 3.21072 23.8191 3.24165C23.7444 3.27258 23.6765 3.31809 23.6196 3.37553L9.08013 18.0896L8.36518 20.5919L8.36656 20.5933ZM26.2167 1.63079L27.0898 2.51485C28.2942 3.73437 28.3052 5.70184 27.1118 6.90899L12.0898 22.1125L6.91468 23.6029C6.59872 23.6913 6.26059 23.6508 5.97448 23.4902C5.68836 23.3296 5.47764 23.0621 5.38855 22.7463C5.32226 22.5193 5.3213 22.2782 5.3858 22.0506L6.8913 16.7711L21.8735 1.60742C22.1584 1.32056 22.4975 1.0933 22.8711 0.938883C23.2448 0.78447 23.6454 0.705999 24.0497 0.708047C24.454 0.710095 24.8538 0.79262 25.2259 0.95081C25.5979 1.109 25.9348 1.33969 26.2167 1.62942V1.63079ZM10.3794 3.21604C11.0613 3.21604 11.614 3.77562 11.614 4.46581C11.6151 4.62897 11.584 4.79074 11.5226 4.94187C11.4611 5.09301 11.3704 5.23054 11.2558 5.34661C11.1411 5.46268 11.0047 5.55501 10.8543 5.61832C10.7039 5.68164 10.5426 5.71469 10.3794 5.71559H5.4408C4.07691 5.71559 2.9715 6.83475 2.9715 8.21376V23.2083C2.9715 24.5887 4.07691 25.7078 5.4408 25.7078H20.2566C21.6205 25.7078 22.7273 24.5887 22.7273 23.2083V18.2106C22.7273 17.5204 23.28 16.9608 23.9619 16.9608C24.6439 16.9608 25.1966 17.5204 25.1966 18.2119V23.2083C25.1966 25.9691 22.9844 28.2074 20.2566 28.2074H5.4408C2.71302 28.2074 0.502197 25.9691 0.502197 23.2083V8.21376C0.502197 5.45436 2.71302 3.21604 5.4408 3.21604H10.3794Z" fill="#8C8C8C"/>
</svg>
